<?xml version="1.0" encoding="UTF-8" standalone="no"?>
<svg
   xmlns:dc="http://purl.org/dc/elements/1.1/"
   xmlns:cc="http://creativecommons.org/ns#"
   xmlns:rdf="http://www.w3.org/1999/02/22-rdf-syntax-ns#"
   xmlns:svg="http://www.w3.org/2000/svg"
   xmlns="http://www.w3.org/2000/svg"
   xmlns:sodipodi="http://sodipodi.sourceforge.net/DTD/sodipodi-0.dtd"
   xmlns:inkscape="http://www.inkscape.org/namespaces/inkscape"
   height="300"
   viewBox="0 0 1058.3334 793.74998"
   width="400"
   version="1.2"
   id="svg2085"
   sodipodi:docname="Minamo_2_chemin.svg"
   inkscape:version="0.92.3 (2405546, 2018-03-11)"
   inkscape:export-filename="/home/pascal/Documents/Pascal/Projets/Croque Livres/Saint-Lambert_2022/Github/CAD/Minamo_2.png"
   inkscape:export-xdpi="96"
   inkscape:export-ydpi="96">
  <metadata
     id="metadata2089">
    <rdf:RDF>
      <cc:Work
         rdf:about="">
        <dc:title>FreeCAD SVG Export</dc:title>
      </cc:Work>
    </rdf:RDF>
  </metadata>
  <sodipodi:namedview
     pagecolor="#ffffff"
     bordercolor="#666666"
     borderopacity="1"
     objecttolerance="10"
     gridtolerance="10"
     guidetolerance="10"
     inkscape:pageopacity="0"
     inkscape:pageshadow="2"
     inkscape:window-width="1853"
     inkscape:window-height="1025"
     id="namedview2087"
     showgrid="false"
     units="px"
     inkscape:zoom="0.89085297"
     inkscape:cx="201.04493"
     inkscape:cy="240.84418"
     inkscape:window-x="67"
     inkscape:window-y="27"
     inkscape:window-maximized="1"
     inkscape:current-layer="Page002" />
  <title
     id="title815">FreeCAD SVG Export</title>
  <desc
     id="desc817">Drawing page: Page002 exported from FreeCAD document: Croc_Tiffinanou_V7</desc>
  <defs
     id="defs819" />
  <g
     inkscape:groupmode="layer"
     inkscape:label="TechDraw"
     id="Page002"
     transform="translate(0,-1306.2501)">
    <rect
       style="opacity:1;fill:#ffffff;fill-opacity:1;fill-rule:nonzero;stroke:none;stroke-width:2.64583349;stroke-linejoin:miter;stroke-miterlimit:4;stroke-dasharray:none;stroke-opacity:1"
       id="rect2676"
       width="1058.3334"
       height="793.75"
       x="0"
       y="1306.2501" />
    <g
       style="font-style:normal;font-weight:400;font-size:38.80559921px;font-family:Ubuntu;fill:#ffffff;fill-opacity:1;fill-rule:evenodd;stroke:none;stroke-width:1;stroke-linecap:square;stroke-linejoin:bevel"
       id="g1105"
       transform="translate(1485,1050)"
       font-style="normal"
       font-weight="400"
       font-size="38.8056">
      <path
         style="vector-effect:non-scaling-stroke;fill-rule:evenodd"
         inkscape:connector-curvature="0"
         id="path1103"
         d="m 9998.99,210.558 1.61,-98.566 v 0 C 9988.21,872.06 6937.68,1487.84 2563.1,1613.32 -1811.48,1738.79 -6419.26,1342.68 -8671.11,647.562 -9544.36,378 -10001.6,80.9185 -9996.75,-213.829 v 0 C -9981.64,-1141.27 -5492.83,-1820.17 29.2857,-1730.2 5551.4,-1640.23 10015.7,-815.45 10000.6,111.992 v 0 C 9988.21,872.06 6937.68,1487.84 2563.1,1613.32 -1811.48,1738.79 -6419.26,1342.68 -8671.11,647.562 l -1.61,98.566 c -873.24,-269.562 -1330.48,-566.643 -1325.63,-861.39 v 0 l 1.6,-98.567 C -9981.64,-1141.27 -5492.83,-1820.17 29.2857,-1730.2 5551.4,-1640.23 10015.7,-815.45 10000.6,111.992 v 0 l -1.61,98.566 v 0 C 9986.61,970.627 6936.07,1586.4 2561.49,1711.88 -1813.08,1837.36 -6420.86,1441.25 -8672.72,746.128 -6420.86,1441.25 -1813.08,1837.36 2561.49,1711.88 6936.07,1586.4 9986.61,970.627 9998.99,210.558" />
    </g>
    <g
       style="font-style:normal;font-weight:400;font-size:38.80559921px;font-family:Ubuntu;fill:none;fill-rule:evenodd;stroke:#000000;stroke-width:50;stroke-linecap:round;stroke-linejoin:bevel;stroke-miterlimit:4;stroke-dasharray:none;stroke-opacity:1"
       id="g1133"
       transform="translate(1485,1050)"
       font-style="normal"
       font-weight="400"
       font-size="38.8056">
      <path
         style="vector-effect:none;fill-rule:evenodd;stroke-width:50;stroke-miterlimit:4;stroke-dasharray:none"
         inkscape:connector-curvature="0"
         id="path1131"
         d="m 9998.99,210.558 1.61,-98.566" />
    </g>
    <g
       aria-label="MINAMOTS"
       transform="matrix(2.6458334,0,0,2.6458334,-388.68544,1356.6526)"
       style="font-style:normal;font-variant:normal;font-weight:normal;font-stretch:normal;font-size:48px;line-height:100%;font-family:Ubuntu;-inkscape-font-specification:'Ubuntu, Normal';font-variant-ligatures:normal;font-variant-caps:normal;font-variant-numeric:normal;font-feature-settings:normal;text-align:start;letter-spacing:0px;word-spacing:0px;writing-mode:lr-tb;text-anchor:start;fill:#000000;fill-opacity:1;stroke:none;stroke-width:1px;stroke-linecap:butt;stroke-linejoin:miter;stroke-opacity:1"
       id="flowRoot2600">
      <path
         d="m 199.50182,65.845573 q -0.66666,-1.6 -1.8,-4.066667 -1.06666,-2.466666 -2.33333,-5.333333 -1.26667,-2.866666 -2.73333,-5.866666 -1.4,-3.066667 -2.66667,-5.733333 -1.26667,-2.733333 -2.4,-4.866667 -1.06667,-2.133333 -1.73333,-3.266666 -0.73334,7.866666 -1.2,17.066666 -0.46667,9.133333 -0.8,18.466666 h -6.33334 q 0.26667,-6 0.6,-12.066666 0.33334,-6.133334 0.73334,-12 0.46666,-5.933333 0.93333,-11.533333 0.53333,-5.6 1.13333,-10.6 h 5.66667 q 1.8,2.933334 3.86667,6.933334 2.06666,3.999999 4.13333,8.399999 2.06667,4.333333 4,8.733333 1.93333,4.333333 3.53333,7.933333 1.6,-3.6 3.53334,-7.933333 1.93333,-4.4 3.99999,-8.733333 2.06667,-4.4 4.13334,-8.399999 2.06666,-4 3.86666,-6.933334 h 5.66667 q 2.26667,22.333333 3.4,46.199999 h -6.33333 q -0.33334,-9.333333 -0.8,-18.466666 -0.46667,-9.2 -1.2,-17.066666 -0.66667,1.133333 -1.8,3.266666 -1.06667,2.133334 -2.33334,4.866667 -1.26666,2.666666 -2.73333,5.733333 -1.4,3 -2.66667,5.866666 -1.26666,2.866667 -2.4,5.333333 -1.06666,2.466667 -1.73333,4.066667 z"
         style="font-style:normal;font-variant:normal;font-weight:normal;font-stretch:normal;font-size:66.66666412px;font-family:Ubuntu;-inkscape-font-specification:'Ubuntu, Normal';font-variant-ligatures:normal;font-variant-caps:normal;font-variant-numeric:normal;font-feature-settings:normal;text-align:start;writing-mode:lr-tb;text-anchor:start"
         id="path2691" />
      <path
         d="m 236.8414,26.045574 h 6.46667 v 46.199999 h -6.46667 z"
         style="font-style:normal;font-variant:normal;font-weight:normal;font-stretch:normal;font-size:66.66666412px;font-family:Ubuntu;-inkscape-font-specification:'Ubuntu, Normal';font-variant-ligatures:normal;font-variant-caps:normal;font-variant-numeric:normal;font-feature-settings:normal;text-align:start;writing-mode:lr-tb;text-anchor:start"
         id="path2693" />
      <path
         d="m 286.47682,72.245573 q -1.46667,-2.466667 -3.4,-5.533333 -1.86667,-3.066667 -4.06667,-6.333333 -2.2,-3.333334 -4.6,-6.733334 -2.33333,-3.399999 -4.66666,-6.533333 -2.33334,-3.2 -4.53334,-5.999999 -2.2,-2.8 -4.06666,-4.933334 v 36.066666 h -6.33334 V 26.045574 h 5.13334 q 3.13333,3.333334 6.66666,7.8 3.6,4.4 7.06667,9.133333 3.53333,4.666667 6.6,9.2 3.13333,4.533333 5.26667,8.066666 V 26.045574 h 6.33333 v 46.199999 z"
         style="font-style:normal;font-variant:normal;font-weight:normal;font-stretch:normal;font-size:66.66666412px;font-family:Ubuntu;-inkscape-font-specification:'Ubuntu, Normal';font-variant-ligatures:normal;font-variant-caps:normal;font-variant-numeric:normal;font-feature-settings:normal;text-align:start;writing-mode:lr-tb;text-anchor:start"
         id="path2695" />
      <path
         d="m 334.24453,72.245573 q -1.13333,-3 -2.13333,-5.866667 -1,-2.933333 -2.06667,-5.933333 H 309.1112 l -4.2,11.8 h -6.73334 q 2.66667,-7.333333 5,-13.533333 2.33334,-6.266667 4.53334,-11.866666 2.26666,-5.6 4.46666,-10.666667 2.2,-5.133333 4.6,-10.133333 h 5.93334 q 2.4,5 4.6,10.133333 2.2,5.066667 4.4,10.666667 2.26666,5.599999 4.6,11.866666 2.33333,6.2 5,13.533333 z M 328.17786,55.11224 q -2.13333,-5.8 -4.26666,-11.2 -2.06667,-5.466666 -4.33334,-10.466666 -2.33333,5 -4.46666,10.466666 -2.06667,5.4 -4.13334,11.2 z"
         style="font-style:normal;font-variant:normal;font-weight:normal;font-stretch:normal;font-size:66.66666412px;font-family:Ubuntu;-inkscape-font-specification:'Ubuntu, Normal';font-variant-ligatures:normal;font-variant-caps:normal;font-variant-numeric:normal;font-feature-settings:normal;text-align:start;writing-mode:lr-tb;text-anchor:start"
         id="path2697" />
      <path
         d="m 368.25182,65.845573 q -0.66666,-1.6 -1.8,-4.066667 -1.06666,-2.466666 -2.33333,-5.333333 -1.26667,-2.866666 -2.73333,-5.866666 -1.4,-3.066667 -2.66667,-5.733333 -1.26667,-2.733333 -2.4,-4.866667 -1.06667,-2.133333 -1.73333,-3.266666 -0.73334,7.866666 -1.2,17.066666 -0.46667,9.133333 -0.8,18.466666 h -6.33334 q 0.26667,-6 0.6,-12.066666 0.33334,-6.133334 0.73334,-12 0.46666,-5.933333 0.93333,-11.533333 0.53333,-5.6 1.13333,-10.6 h 5.66667 q 1.8,2.933334 3.86667,6.933334 2.06666,3.999999 4.13333,8.399999 2.06667,4.333333 4,8.733333 1.93333,4.333333 3.53333,7.933333 1.6,-3.6 3.53334,-7.933333 1.93333,-4.4 3.99999,-8.733333 2.06667,-4.4 4.13334,-8.399999 2.06666,-4 3.86666,-6.933334 h 5.66667 q 2.26667,22.333333 3.4,46.199999 h -6.33333 q -0.33334,-9.333333 -0.8,-18.466666 -0.46667,-9.2 -1.2,-17.066666 -0.66667,1.133333 -1.8,3.266666 -1.06667,2.133334 -2.33334,4.866667 -1.26666,2.666666 -2.73333,5.733333 -1.4,3 -2.66667,5.866666 -1.26666,2.866667 -2.4,5.333333 -1.06666,2.466667 -1.73333,4.066667 z"
         style="font-style:normal;font-variant:normal;font-weight:normal;font-stretch:normal;font-size:66.66666412px;font-family:Ubuntu;-inkscape-font-specification:'Ubuntu, Normal';font-variant-ligatures:normal;font-variant-caps:normal;font-variant-numeric:normal;font-feature-settings:normal;text-align:start;writing-mode:lr-tb;text-anchor:start"
         id="path2699" />
      <path
         d="m 403.72473,49.11224 q 0,-5.933333 1.73333,-10.466666 1.8,-4.533333 4.8,-7.533333 3.06667,-3.066667 7.06667,-4.6 4.06667,-1.533333 8.6,-1.533333 4.46666,0 8.4,1.533333 4,1.533333 7,4.6 3,3 4.73333,7.533333 1.8,4.533333 1.8,10.466666 0,5.933333 -1.8,10.466667 -1.73333,4.533333 -4.73333,7.599999 -3,3 -7,4.533333 -3.93334,1.533334 -8.4,1.533334 -4.53333,0 -8.6,-1.533334 -4,-1.533333 -7.06667,-4.533333 -3,-3.066666 -4.8,-7.599999 -1.73333,-4.533334 -1.73333,-10.466667 z m 6.8,0 q 0,4.2 1.06667,7.666667 1.06666,3.4 3,5.799999 2,2.4 4.8,3.733334 2.86666,1.266666 6.4,1.266666 3.53333,0 6.33333,-1.266666 2.8,-1.333334 4.73333,-3.733334 2,-2.399999 3.06667,-5.799999 1.06666,-3.466667 1.06666,-7.666667 0,-4.2 -1.06666,-7.599999 -1.06667,-3.466667 -3.06667,-5.866667 -1.93333,-2.4 -4.73333,-3.666666 -2.8,-1.333334 -6.33333,-1.333334 -3.53334,0 -6.4,1.333334 -2.8,1.266666 -4.8,3.666666 -1.93334,2.4 -3,5.866667 -1.06667,3.399999 -1.06667,7.599999 z"
         style="font-style:normal;font-variant:normal;font-weight:normal;font-stretch:normal;font-size:66.66666412px;font-family:Ubuntu;-inkscape-font-specification:'Ubuntu, Normal';font-variant-ligatures:normal;font-variant-caps:normal;font-variant-numeric:normal;font-feature-settings:normal;text-align:start;writing-mode:lr-tb;text-anchor:start"
         id="path2701" />
      <path
         d="m 486.45806,26.045574 v 5.6 h -14.53333 v 40.599999 h -6.46667 V 31.645574 h -14.53333 v -5.6 z"
         style="font-style:normal;font-variant:normal;font-weight:normal;font-stretch:normal;font-size:66.66666412px;font-family:Ubuntu;-inkscape-font-specification:'Ubuntu, Normal';font-variant-ligatures:normal;font-variant-caps:normal;font-variant-numeric:normal;font-feature-settings:normal;text-align:start;writing-mode:lr-tb;text-anchor:start"
         id="path2703" />
      <path
         d="m 503.95495,67.645573 q 10.13333,0 10.13333,-6.933333 0,-2.133333 -0.93333,-3.6 -0.86667,-1.533333 -2.4,-2.6 -1.53334,-1.133333 -3.53334,-1.933333 -1.93333,-0.8 -4.13333,-1.6 -2.53333,-0.866667 -4.8,-1.933333 -2.26667,-1.133334 -3.93333,-2.6 -1.66667,-1.533334 -2.66667,-3.6 -0.93333,-2.066667 -0.93333,-5 0,-6.066666 4.13333,-9.466666 4.13333,-3.4 11.4,-3.4 4.2,0 7.6,0.933333 3.46667,0.866667 5.06667,1.933333 l -2.06667,5.266667 q -1.4,-0.866667 -4.2,-1.666667 -2.73333,-0.866666 -6.4,-0.866666 -1.86667,0 -3.46667,0.4 -1.6,0.4 -2.8,1.2 -1.2,0.8 -1.93333,2.066666 -0.66667,1.2 -0.66667,2.866667 0,1.866666 0.73334,3.133333 0.73333,1.266667 2.06666,2.266667 1.33334,0.933333 3.06667,1.733333 1.8,0.8 3.93333,1.6 3,1.2 5.46667,2.4 2.53333,1.2 4.33333,2.866666 1.86667,1.666667 2.86667,4 1,2.266667 1,5.533333 0,6.066667 -4.46667,9.333333 -4.4,3.266667 -12.46666,3.266667 -2.73334,0 -5.06667,-0.4 -2.26667,-0.333334 -4.06667,-0.8 -1.8,-0.533334 -3.13333,-1.066667 -1.26667,-0.6 -2,-1 l 1.93333,-5.333333 q 1.53334,0.866667 4.66667,1.933333 3.13333,1.066667 7.66667,1.066667 z"
         style="font-style:normal;font-variant:normal;font-weight:normal;font-stretch:normal;font-size:66.66666412px;font-family:Ubuntu;-inkscape-font-specification:'Ubuntu, Normal';font-variant-ligatures:normal;font-variant-caps:normal;font-variant-numeric:normal;font-feature-settings:normal;text-align:start;writing-mode:lr-tb;text-anchor:start"
         id="path2705" />
    </g>
    <g
       aria-label="(la mine à mots)"
       transform="matrix(2.6458334,0,0,2.6458334,24.027028,1205.445)"
       style="font-style:normal;font-variant:normal;font-weight:normal;font-stretch:normal;font-size:13.33333302px;line-height:100%;font-family:Ubuntu;-inkscape-font-specification:'Ubuntu, Normal';font-variant-ligatures:normal;font-variant-caps:normal;font-variant-numeric:normal;font-feature-settings:normal;text-align:start;letter-spacing:0px;word-spacing:0px;writing-mode:lr-tb;text-anchor:start;fill:#ff0000;fill-opacity:1;stroke:none;stroke-width:1px;stroke-linecap:butt;stroke-linejoin:miter;stroke-opacity:1"
       id="flowRoot2608">
      <path
         d="m 181.56391,152.11383 q 0,3.41333 0.98666,6.32 0.98667,2.90666 2.90667,5.38666 l -1.76,1.2 q -2.08,-2.53333 -3.36,-5.81333 -1.25333,-3.30667 -1.25333,-7.09333 0,-3.78667 1.25333,-7.06667 1.28,-3.30666 3.36,-5.84 l 1.76,1.2 q -1.92,2.48 -2.90667,5.38667 -0.98666,2.90666 -0.98666,6.32 z"
         style="font-style:normal;font-variant:normal;font-weight:normal;font-stretch:normal;font-size:26.66666603px;font-family:Ubuntu;-inkscape-font-specification:'Ubuntu, Normal';font-variant-ligatures:normal;font-variant-caps:normal;font-variant-numeric:normal;font-feature-settings:normal;text-align:start;writing-mode:lr-tb;text-anchor:start;fill:#ff0000"
         id="path2708" />
      <path
         d="m 191.94307,160.35383 q -2.29333,-0.0533 -3.25333,-0.98667 -0.96,-0.93333 -0.96,-2.90667 V 139.8205 l 2.48,-0.42667 v 16.66666 q 0,0.61334 0.10667,1.01334 0.10666,0.4 0.34666,0.64 0.24,0.24 0.64,0.37333 0.4,0.10667 0.98667,0.18667 z"
         style="font-style:normal;font-variant:normal;font-weight:normal;font-stretch:normal;font-size:26.66666603px;font-family:Ubuntu;-inkscape-font-specification:'Ubuntu, Normal';font-variant-ligatures:normal;font-variant-caps:normal;font-variant-numeric:normal;font-feature-settings:normal;text-align:start;writing-mode:lr-tb;text-anchor:start;fill:#ff0000"
         id="path2710" />
      <path
         d="m 199.76807,158.30049 q 0.88,0 1.54667,-0.0267 0.69333,-0.0533 1.14667,-0.16 v -4.13334 q -0.26667,-0.13333 -0.88,-0.21333 -0.58667,-0.10667 -1.44,-0.10667 -0.56,0 -1.2,0.08 -0.61334,0.08 -1.14667,0.34667 -0.50667,0.24 -0.85333,0.69333 -0.34667,0.42667 -0.34667,1.14667 0,1.33333 0.85333,1.86667 0.85334,0.50666 2.32,0.50666 z m -0.21333,-12.42666 q 1.49333,0 2.50667,0.4 1.04,0.37333 1.65333,1.09333 0.64,0.69333 0.90667,1.68 0.26666,0.96 0.26666,2.13333 v 8.66667 q -0.32,0.0533 -0.90666,0.16 -0.56,0.08 -1.28,0.16 -0.72,0.08 -1.57334,0.13333 -0.82666,0.08 -1.65333,0.08 -1.17333,0 -2.16,-0.24 -0.98667,-0.24 -1.70667,-0.74666 -0.72,-0.53334 -1.12,-1.38667 -0.4,-0.85333 -0.4,-2.05333 0,-1.14667 0.45334,-1.97334 0.48,-0.82666 1.28,-1.33333 0.8,-0.50667 1.86666,-0.74667 1.06667,-0.24 2.24,-0.24 0.37334,0 0.77334,0.0533 0.4,0.0267 0.74666,0.10666 0.37334,0.0533 0.64,0.10667 0.26667,0.0533 0.37334,0.08 v -0.69333 q 0,-0.61334 -0.13334,-1.2 -0.13333,-0.61334 -0.48,-1.06667 -0.34666,-0.48 -0.96,-0.74667 -0.58666,-0.29333 -1.54666,-0.29333 -1.22667,0 -2.16,0.18667 -0.90667,0.16 -1.36,0.34666 l -0.29334,-2.05333 q 0.48,-0.21333 1.6,-0.4 1.12,-0.21333 2.42667,-0.21333 z"
         style="font-style:normal;font-variant:normal;font-weight:normal;font-stretch:normal;font-size:26.66666603px;font-family:Ubuntu;-inkscape-font-specification:'Ubuntu, Normal';font-variant-ligatures:normal;font-variant-caps:normal;font-variant-numeric:normal;font-feature-settings:normal;text-align:start;writing-mode:lr-tb;text-anchor:start;fill:#ff0000"
         id="path2712" />
      <path
         d="m 215.12682,146.62049 q 0.85333,-0.21333 2.24,-0.45333 1.41333,-0.24 3.25333,-0.24 1.33334,0 2.24,0.37333 0.90667,0.34667 1.52,1.04 0.18667,-0.13333 0.58667,-0.37333 0.4,-0.24 0.98667,-0.45333 0.58666,-0.24 1.30666,-0.4 0.72,-0.18667 1.54667,-0.18667 1.6,0 2.61333,0.48 1.01334,0.45333 1.57334,1.30667 0.58666,0.85333 0.77333,2.02666 0.21333,1.17334 0.21333,2.56 v 7.78667 h -2.48 v -7.25333 q 0,-1.22667 -0.13333,-2.10667 -0.10667,-0.88 -0.45333,-1.46667 -0.32,-0.58666 -0.90667,-0.85333 -0.56,-0.29333 -1.46667,-0.29333 -1.25333,0 -2.08,0.34666 -0.8,0.32 -1.09333,0.58667 0.21333,0.69333 0.32,1.52 0.10667,0.82667 0.10667,1.73333 v 7.78667 h -2.48 v -7.25333 q 0,-1.22667 -0.13334,-2.10667 -0.13333,-0.88 -0.48,-1.46667 -0.32,-0.58666 -0.90666,-0.85333 -0.56,-0.29333 -1.44,-0.29333 -0.37334,0 -0.8,0.0267 -0.42667,0.0267 -0.82667,0.08 -0.37333,0.0267 -0.69333,0.08 -0.32,0.0533 -0.42667,0.08 v 11.70667 h -2.48 z"
         style="font-style:normal;font-variant:normal;font-weight:normal;font-stretch:normal;font-size:26.66666603px;font-family:Ubuntu;-inkscape-font-specification:'Ubuntu, Normal';font-variant-ligatures:normal;font-variant-caps:normal;font-variant-numeric:normal;font-feature-settings:normal;text-align:start;writing-mode:lr-tb;text-anchor:start;fill:#ff0000"
         id="path2714" />
      <path
         d="m 240.57557,160.08716 h -2.48 v -13.86667 h 2.48 z m -1.25333,-16.37333 q -0.66667,0 -1.14667,-0.42667 -0.45333,-0.45333 -0.45333,-1.2 0,-0.74666 0.45333,-1.17333 0.48,-0.45333 1.14667,-0.45333 0.66666,0 1.12,0.45333 0.48,0.42667 0.48,1.17333 0,0.74667 -0.48,1.2 -0.45334,0.42667 -1.12,0.42667 z"
         style="font-style:normal;font-variant:normal;font-weight:normal;font-stretch:normal;font-size:26.66666603px;font-family:Ubuntu;-inkscape-font-specification:'Ubuntu, Normal';font-variant-ligatures:normal;font-variant-caps:normal;font-variant-numeric:normal;font-feature-settings:normal;text-align:start;writing-mode:lr-tb;text-anchor:start;fill:#ff0000"
         id="path2716" />
      <path
         d="m 244.8664,146.62049 q 0.85334,-0.21333 2.26667,-0.45333 1.41333,-0.24 3.25333,-0.24 1.65334,0 2.74667,0.48 1.09333,0.45333 1.73333,1.30667 0.66667,0.82666 0.93334,2 0.26666,1.17333 0.26666,2.58666 v 7.78667 h -2.48 v -7.25333 q 0,-1.28 -0.18666,-2.18667 -0.16,-0.90667 -0.56,-1.46667 -0.4,-0.56 -1.06667,-0.8 -0.66667,-0.26666 -1.65333,-0.26666 -0.4,0 -0.82667,0.0267 -0.42667,0.0267 -0.82667,0.08 -0.37333,0.0267 -0.69333,0.08 -0.29333,0.0533 -0.42667,0.08 v 11.70667 h -2.48 z"
         style="font-style:normal;font-variant:normal;font-weight:normal;font-stretch:normal;font-size:26.66666603px;font-family:Ubuntu;-inkscape-font-specification:'Ubuntu, Normal';font-variant-ligatures:normal;font-variant-caps:normal;font-variant-numeric:normal;font-feature-settings:normal;text-align:start;writing-mode:lr-tb;text-anchor:start;fill:#ff0000"
         id="path2718" />
      <path
         d="m 259.40557,153.18049 q 0,-1.84 0.53333,-3.2 0.53334,-1.38666 1.41334,-2.29333 0.88,-0.90667 2.02666,-1.36 1.14667,-0.45333 2.34667,-0.45333 2.8,0 4.29333,1.76 1.49334,1.73333 1.49334,5.30666 0,0.16 0,0.42667 0,0.24 -0.0267,0.45333 h -9.49333 q 0.16,2.16 1.25333,3.28 1.09333,1.12 3.41333,1.12 1.30667,0 2.18667,-0.21333 0.90667,-0.24 1.36,-0.45333 l 0.34667,2.08 q -0.45334,0.24 -1.6,0.50666 -1.12,0.26667 -2.56,0.26667 -1.81334,0 -3.14667,-0.53333 -1.30667,-0.56 -2.16,-1.52 -0.85333,-0.96 -1.28,-2.26667 -0.4,-1.33333 -0.4,-2.90667 z m 9.52,-1.36 q 0.0267,-1.68 -0.85333,-2.74666 -0.85334,-1.09334 -2.37334,-1.09334 -0.85333,0 -1.52,0.34667 -0.64,0.32 -1.09333,0.85333 -0.45333,0.53334 -0.72,1.22667 -0.24,0.69333 -0.32,1.41333 z"
         style="font-style:normal;font-variant:normal;font-weight:normal;font-stretch:normal;font-size:26.66666603px;font-family:Ubuntu;-inkscape-font-specification:'Ubuntu, Normal';font-variant-ligatures:normal;font-variant-caps:normal;font-variant-numeric:normal;font-feature-settings:normal;text-align:start;writing-mode:lr-tb;text-anchor:start;fill:#ff0000"
         id="path2720" />
      <path
         d="m 285.9139,158.30049 q 0.88,0 1.54667,-0.0267 0.69333,-0.0533 1.14666,-0.16 v -4.13334 q -0.26666,-0.13333 -0.88,-0.21333 -0.58666,-0.10667 -1.44,-0.10667 -0.56,0 -1.2,0.08 -0.61333,0.08 -1.14666,0.34667 -0.50667,0.24 -0.85334,0.69333 -0.34666,0.42667 -0.34666,1.14667 0,1.33333 0.85333,1.86667 0.85333,0.50666 2.32,0.50666 z m -0.21333,-12.42666 q 1.49333,0 2.50666,0.4 1.04,0.37333 1.65334,1.09333 0.64,0.69333 0.90666,1.68 0.26667,0.96 0.26667,2.13333 v 8.66667 q -0.32,0.0533 -0.90667,0.16 -0.56,0.08 -1.28,0.16 -0.72,0.08 -1.57333,0.13333 -0.82667,0.08 -1.65333,0.08 -1.17334,0 -2.16,-0.24 -0.98667,-0.24 -1.70667,-0.74666 -0.72,-0.53334 -1.12,-1.38667 -0.4,-0.85333 -0.4,-2.05333 0,-1.14667 0.45333,-1.97334 0.48,-0.82666 1.28,-1.33333 0.8,-0.50667 1.86667,-0.74667 1.06667,-0.24 2.24,-0.24 0.37333,0 0.77333,0.0533 0.4,0.0267 0.74667,0.10666 0.37333,0.0533 0.64,0.10667 0.26667,0.0533 0.37333,0.08 v -0.69333 q 0,-0.61334 -0.13333,-1.2 -0.13333,-0.61334 -0.48,-1.06667 -0.34667,-0.48 -0.96,-0.74667 -0.58667,-0.29333 -1.54667,-0.29333 -1.22666,0 -2.16,0.18667 -0.90666,0.16 -1.36,0.34666 l -0.29333,-2.05333 q 0.48,-0.21333 1.6,-0.4 1.12,-0.21333 2.42667,-0.21333 z m -1.2,-6.48 3.41333,4.10667 -1.25333,1.12 -3.76,-3.65334 z"
         style="font-style:normal;font-variant:normal;font-weight:normal;font-stretch:normal;font-size:26.66666603px;font-family:Ubuntu;-inkscape-font-specification:'Ubuntu, Normal';font-variant-ligatures:normal;font-variant-caps:normal;font-variant-numeric:normal;font-feature-settings:normal;text-align:start;writing-mode:lr-tb;text-anchor:start;fill:#ff0000"
         id="path2722" />
      <path
         d="m 301.27265,146.62049 q 0.85334,-0.21333 2.24,-0.45333 1.41334,-0.24 3.25334,-0.24 1.33333,0 2.24,0.37333 0.90666,0.34667 1.52,1.04 0.18666,-0.13333 0.58666,-0.37333 0.4,-0.24 0.98667,-0.45333 0.58667,-0.24 1.30667,-0.4 0.72,-0.18667 1.54666,-0.18667 1.6,0 2.61334,0.48 1.01333,0.45333 1.57333,1.30667 0.58667,0.85333 0.77333,2.02666 0.21334,1.17334 0.21334,2.56 v 7.78667 h -2.48 v -7.25333 q 0,-1.22667 -0.13334,-2.10667 -0.10666,-0.88 -0.45333,-1.46667 -0.32,-0.58666 -0.90667,-0.85333 -0.56,-0.29333 -1.46666,-0.29333 -1.25334,0 -2.08,0.34666 -0.8,0.32 -1.09334,0.58667 0.21334,0.69333 0.32,1.52 0.10667,0.82667 0.10667,1.73333 v 7.78667 h -2.48 v -7.25333 q 0,-1.22667 -0.13333,-2.10667 -0.13334,-0.88 -0.48,-1.46667 -0.32,-0.58666 -0.90667,-0.85333 -0.56,-0.29333 -1.44,-0.29333 -0.37333,0 -0.8,0.0267 -0.42667,0.0267 -0.82667,0.08 -0.37333,0.0267 -0.69333,0.08 -0.32,0.0533 -0.42667,0.08 v 11.70667 h -2.48 z"
         style="font-style:normal;font-variant:normal;font-weight:normal;font-stretch:normal;font-size:26.66666603px;font-family:Ubuntu;-inkscape-font-specification:'Ubuntu, Normal';font-variant-ligatures:normal;font-variant-caps:normal;font-variant-numeric:normal;font-feature-settings:normal;text-align:start;writing-mode:lr-tb;text-anchor:start;fill:#ff0000"
         id="path2724" />
      <path
         d="m 336.48141,153.15383 q 0,1.65333 -0.48,2.98666 -0.48,1.33334 -1.36,2.29334 -0.85333,0.96 -2.05333,1.49333 -1.2,0.50667 -2.61334,0.50667 -1.41333,0 -2.61333,-0.50667 -1.2,-0.53333 -2.08,-1.49333 -0.85333,-0.96 -1.33333,-2.29334 -0.48,-1.33333 -0.48,-2.98666 0,-1.62667 0.48,-2.96 0.48,-1.36 1.33333,-2.32 0.88,-0.96 2.08,-1.46667 1.2,-0.53333 2.61333,-0.53333 1.41334,0 2.61334,0.53333 1.2,0.50667 2.05333,1.46667 0.88,0.96 1.36,2.32 0.48,1.33333 0.48,2.96 z m -2.58667,0 q 0,-2.34667 -1.06666,-3.70667 -1.04,-1.38667 -2.85334,-1.38667 -1.81333,0 -2.88,1.38667 -1.04,1.36 -1.04,3.70667 0,2.34666 1.04,3.73333 1.06667,1.36 2.88,1.36 1.81334,0 2.85334,-1.36 1.06666,-1.38667 1.06666,-3.73333 z"
         style="font-style:normal;font-variant:normal;font-weight:normal;font-stretch:normal;font-size:26.66666603px;font-family:Ubuntu;-inkscape-font-specification:'Ubuntu, Normal';font-variant-ligatures:normal;font-variant-caps:normal;font-variant-numeric:normal;font-feature-settings:normal;text-align:start;writing-mode:lr-tb;text-anchor:start;fill:#ff0000"
         id="path2726" />
      <path
         d="m 342.29057,146.22049 h 5.25333 v 2.08 h -5.25333 v 6.4 q 0,1.04 0.16,1.73334 0.16,0.66666 0.48,1.06666 0.32,0.37334 0.8,0.53334 0.48,0.16 1.12,0.16 1.12,0 1.78666,-0.24 0.69334,-0.26667 0.96,-0.37334 l 0.48,2.05334 q -0.37333,0.18666 -1.30666,0.45333 -0.93334,0.29333 -2.13334,0.29333 -1.41333,0 -2.34666,-0.34666 -0.90667,-0.37334 -1.46667,-1.09334 -0.56,-0.72 -0.8,-1.76 -0.21333,-1.06666 -0.21333,-2.45333 v -12.37333 l 2.48,-0.42667 z"
         style="font-style:normal;font-variant:normal;font-weight:normal;font-stretch:normal;font-size:26.66666603px;font-family:Ubuntu;-inkscape-font-specification:'Ubuntu, Normal';font-variant-ligatures:normal;font-variant-caps:normal;font-variant-numeric:normal;font-feature-settings:normal;text-align:start;writing-mode:lr-tb;text-anchor:start;fill:#ff0000"
         id="path2728" />
      <path
         d="m 353.92641,158.30049 q 1.52,0 2.24,-0.4 0.74666,-0.4 0.74666,-1.28 0,-0.90666 -0.72,-1.44 -0.72,-0.53333 -2.37333,-1.2 -0.8,-0.32 -1.54667,-0.64 -0.72,-0.34666 -1.25333,-0.8 -0.53333,-0.45333 -0.85333,-1.09333 -0.32,-0.64 -0.32,-1.57333 0,-1.84 1.36,-2.90667 1.36,-1.09333 3.70666,-1.09333 0.58667,0 1.17334,0.08 0.58666,0.0533 1.09333,0.16 0.50667,0.08 0.88,0.18666 0.4,0.10667 0.61333,0.18667 l -0.45333,2.13333 q -0.4,-0.21333 -1.25333,-0.42666 -0.85334,-0.24 -2.05334,-0.24 -1.04,0 -1.81333,0.42666 -0.77333,0.4 -0.77333,1.28 0,0.45334 0.16,0.8 0.18666,0.34667 0.53333,0.64 0.37333,0.26667 0.90667,0.50667 0.53333,0.24 1.28,0.50667 0.98666,0.37333 1.76,0.74666 0.77333,0.34667 1.30666,0.82667 0.56,0.48 0.85334,1.17333 0.29333,0.66667 0.29333,1.65334 0,1.92 -1.44,2.90666 -1.41333,0.98667 -4.05333,0.98667 -1.84,0 -2.88,-0.32 -1.04,-0.29333 -1.41334,-0.45333 l 0.45334,-2.13334 q 0.42666,0.16 1.36,0.48 0.93333,0.32 2.48,0.32 z"
         style="font-style:normal;font-variant:normal;font-weight:normal;font-stretch:normal;font-size:26.66666603px;font-family:Ubuntu;-inkscape-font-specification:'Ubuntu, Normal';font-variant-ligatures:normal;font-variant-caps:normal;font-variant-numeric:normal;font-feature-settings:normal;text-align:start;writing-mode:lr-tb;text-anchor:start;fill:#ff0000"
         id="path2730" />
      <path
         d="m 364.52141,152.11383 q 0,-3.41334 -0.98667,-6.32 -0.98667,-2.90667 -2.90667,-5.38667 l 1.76,-1.2 q 2.08,2.53334 3.33334,5.84 1.28,3.28 1.28,7.06667 0,3.78666 -1.28,7.09333 -1.25334,3.28 -3.33334,5.81333 l -1.76,-1.2 q 1.92,-2.48 2.90667,-5.38666 0.98667,-2.90667 0.98667,-6.32 z"
         style="font-style:normal;font-variant:normal;font-weight:normal;font-stretch:normal;font-size:26.66666603px;font-family:Ubuntu;-inkscape-font-specification:'Ubuntu, Normal';font-variant-ligatures:normal;font-variant-caps:normal;font-variant-numeric:normal;font-feature-settings:normal;text-align:start;writing-mode:lr-tb;text-anchor:start;fill:#ff0000"
         id="path2732" />
    </g>
    <path
       style="fill:#000000;stroke-width:1.72767138"
       d="m 702.51754,2071.9318 c -5.7014,-0.7694 -20.8617,-2.6642 -33.6896,-4.2107 -75.1834,-9.0634 -97.3883,-11.552 -110.571,-12.3923 l -14.6852,-0.936 -8.1116,6.2394 c -11.6509,8.962 -15.9762,10.2572 -26.1243,7.8228 -6.1148,-1.4669 -10.7317,-4.2006 -16.498,-9.7685 l -8.0069,-7.7315 -19.8682,1.1908 c -10.9276,0.6548 -20.806,1.9676 -21.9522,2.9173 -1.1462,0.9497 -2.8501,1.2532 -3.7866,0.6744 -0.9365,-0.5788 -6.2183,-0.2036 -11.7374,0.8337 -5.5192,1.0374 -15.477,2.1349 -22.1285,2.4389 -6.6515,0.304 -21.4232,1.395 -32.8258,2.4244 -53.9639,4.8716 -58.2697,5.1072 -63.0272,3.4487 -6.4763,-2.2576 -7.8296,-9.0227 -2.8425,-14.2099 2.0205,-2.1016 6.1842,-7.4829 9.2529,-11.9585 5.7482,-8.3839 11.2794,-11.0798 9.6064,-4.6822 -0.8108,3.1008 -0.041,3.461 7.5044,3.5103 7.7686,0.051 8.1529,0.2478 5.0543,2.5915 -1.8445,1.3951 -5.1028,2.5366 -7.2406,2.5366 -4.7237,0 -6.7786,2.8085 -4.2681,5.8334 1.3609,1.6397 4.2467,1.8669 10.9467,0.8617 5.0043,-0.7507 22.704,-2.1965 39.3329,-3.2127 16.6288,-1.0161 38.7862,-2.9546 49.2386,-4.3075 10.4524,-1.353 28.4866,-3.0033 40.0759,-3.6673 l 21.0715,-1.2073 4.2689,9.6525 c 3.4504,7.802 5.6755,10.3702 11.6063,13.3959 12.6728,6.4652 25.9359,0.8517 32.1107,-13.5907 l 2.4559,-5.7442 11.5846,1.0348 c 22.1621,1.9799 44.5113,4.5853 60.8233,7.0906 25.1623,3.8648 41.463,5.7797 72.7968,8.5517 15.8076,1.3986 30.0135,3.031 31.5685,3.6277 2.4872,0.9544 2.7033,-0.1346 1.7962,-9.0488 -1.9218,-18.8859 -6.081,-51.4343 -6.6445,-51.9978 -0.3084,-0.3083 -2.8027,0.292 -5.5432,1.3339 -12.4622,4.7382 -27.2001,6.0872 -44.7352,4.0949 -24.5635,-2.7908 -46.3679,-7.1952 -56.7288,-11.459 -7.5108,-3.091 -12.6133,-3.693 -32.2463,-3.804 -21.6604,-0.1225 -24.0068,0.1886 -32.9046,4.3621 -5.2696,2.4716 -12.3693,6.9419 -15.7771,9.934 -3.4079,2.9922 -7.0263,5.4403 -8.041,5.4403 -1.0147,0 -5.4482,-2.4319 -9.8522,-5.4041 -4.404,-2.9722 -13.5781,-7.324 -20.3868,-9.6706 -10.5184,-3.6252 -15.4961,-4.2609 -33.1115,-4.2289 -11.4026,0.021 -27.7291,0.8676 -36.2811,1.8819 -20.1519,2.3902 -51.8563,2.3765 -69.7397,-0.03 -10.8891,-1.4654 -14.7212,-1.4204 -16.6685,0.1957 -3.6836,3.0571 -2.1286,4.3013 8.5873,6.8721 7.5353,1.8077 19.6645,2.0109 56.6618,0.9495 59.5904,-1.7096 70.8802,-1.4427 81.9844,1.9384 8.8551,2.6964 17.6832,9.2363 12.4366,9.2133 -1.335,-0.01 -4.7597,-1.2301 -7.6103,-2.7206 -9.9741,-5.215 -31.5808,-6.7437 -63.6397,-4.5026 -43.406,3.0343 -69.2684,2.7311 -79.4879,-0.932 -8.1475,-2.9204 -8.4357,-2.9091 -10.8804,0.4234 -2.3089,3.1474 -2.1244,3.5826 2.2897,5.4007 9.3363,3.8454 41.4332,4.4518 77.5576,1.4653 32.0079,-2.6462 35.9383,-2.6526 50.9662,-0.083 19.5654,3.3452 22.3306,4.1329 22.3306,6.361 0,0.9422 -0.7276,1.2636 -1.6168,0.7139 -5.8185,-3.596 -29.405,-4.0812 -67.9985,-1.3989 -34.596,2.4045 -43.8563,2.5142 -58.4514,0.6928 -15.6726,-1.956 -17.7739,-1.882 -21.819,0.7684 -4.2807,2.8048 -4.3355,3.0357 -1.2549,5.2883 4.5211,3.3059 66.4397,3.1285 89.8083,-0.2573 21.1616,-3.066 35.8002,-3.2176 44.9194,-0.4652 6.3854,1.9273 4.9745,2.1779 -18.5597,3.2974 -14.0087,0.6664 -32.6675,2.2145 -41.4641,3.44 -8.7966,1.2255 -26.8781,2.1989 -40.1811,2.1631 -21.5567,-0.058 -25.395,-0.533 -35.2903,-4.3665 l -11.103,-4.3015 3.7603,-3.7603 c 4.6869,-4.6869 4.7938,-7.2157 0.305,-7.2157 -4.146,0 -4.8452,-6.4859 -0.8638,-8.0136 3.3352,-1.2799 3.315,-4.7843 -0.044,-7.5716 -2.3516,-1.9517 -2.3201,-2.5351 0.2926,-5.4221 2.7594,-3.0491 2.7371,-3.3818 -0.3884,-5.7867 -1.8238,-1.4034 -5.0599,-3.0289 -7.1913,-3.6122 -5.1002,-1.3958 -4.0047,-2.7829 7.1858,-9.0984 5.1464,-2.9045 10.4504,-6.8417 11.7865,-8.7493 1.3361,-1.9075 6.0867,-7.4386 10.5567,-12.2913 12.6643,-13.7482 13.4461,-15.3685 11.251,-23.316 -6.0296,-21.829 7.4762,-51.5552 26.4247,-58.1607 2.7025,-0.9421 4.9136,-2.803 4.9136,-4.1354 0,-3.9818 -7.4024,-2.7773 -15.8481,2.5788 -11.7333,7.4411 -20.4801,20.2291 -22.8719,33.4394 -1.81,9.9968 -6.1375,8.5137 -17.4887,-5.9935 -13.9763,-17.8624 -16.7994,-24.1552 -17.6565,-39.3579 -0.6915,-12.2641 -0.4367,-13.3962 4.7626,-21.1555 14.1882,-21.1744 45.743,-39.3129 68.3907,-39.3129 h 7.5625 l -0.6311,-15.981 c -0.3471,-8.7895 -1.568,-18.3133 -2.7131,-21.1639 -2.94,-7.3193 -1.4176,-21.0225 3.458,-31.1253 5.27,-10.92 33.8136,-39.9628 40.7909,-41.5042 2.7163,-0.6001 8.0485,-2.2641 11.8494,-3.6979 17.7906,-6.7109 41.9438,-8.9589 60.5831,-5.6386 18.9545,3.3764 23.9808,6.1841 33.4335,18.6751 15.4541,20.4217 14.7567,19.7571 19.3061,18.3989 2.2874,-0.6828 14.6545,-6.9416 27.4825,-13.9084 28.0041,-15.2088 36.8969,-18.8168 56.6398,-22.9795 17.1344,-3.6127 42.148,-2.7425 55.3213,1.9245 33.7232,11.9476 63.4292,61.8178 71.2367,119.5918 3.3201,24.5679 2.7681,23.26 9.0584,21.4633 3.0592,-0.8738 8.8249,-3.3161 12.8126,-5.4273 7.7,-4.0766 11.2396,-3.354 7.2491,1.4799 -2.9539,3.5781 -2.7057,39.8837 0.3999,58.5016 2.2618,13.5596 4.5961,16.4009 13.5054,16.4393 3.3817,0.014 7.26717,0.7343 8.63447,1.5994 4.0877,2.5864 -0.4143,17.301 -11.14047,36.4119 -5.2173,9.2956 -9.486,18.1972 -9.486,19.7812 0,1.5841 -1.8362,5.355 -4.0806,8.3798 -2.2442,3.0248 -4.9847,8.2207 -6.0897,11.5465 -1.105,3.3258 -4.6534,10.3467 -7.8851,15.602 -3.2318,5.2554 -6.3985,11.6375 -7.0373,14.1824 -0.6387,2.545 -2.2513,5.5318 -3.5833,6.6374 -1.3322,1.1055 -2.4221,2.968 -2.4221,4.1387 0,4.1939 -25.9979,56.429 -30.1536,60.5847 -3.5993,3.5993 -5.7611,4.2095 -14.2553,4.0237 -5.507,-0.1204 -14.6774,-0.8487 -20.3787,-1.6182 z m 26.7463,-32.1619 c 2.0056,-5.3604 5.5545,-12.0137 7.8864,-14.785 2.3319,-2.7713 4.2399,-6.4509 4.2399,-8.1768 0,-1.7258 1.1662,-3.5854 2.5915,-4.1323 1.4253,-0.547 2.5915,-2.0848 2.5915,-3.4175 0,-3.3908 14.4666,-35.6912 22.9507,-51.2433 19.1064,-35.0234 27.4259,-51.3876 28.3239,-55.7123 0.6054,-2.9158 -0.3745,-7.9125 -2.5412,-12.9575 -3.0146,-7.0194 -5.5447,-22.8923 -7.7802,-48.8118 -0.4373,-5.0698 -0.758,-5.4885 -1.9848,-2.5915 -2.8357,6.6967 -12.966,27.6744 -14.6002,30.2342 -0.91,1.4254 -4.5256,9.1999 -8.0349,17.2767 -3.5092,8.0769 -13.6866,29.8456 -22.6165,48.3749 -8.9298,18.5292 -16.2226,35.1498 -16.2063,36.9346 0.016,1.7848 -2.4021,7.4955 -5.3744,12.6905 -4.749,8.3005 -5.2782,10.5088 -4.365,18.2185 1.2428,10.4946 3.6711,13.7827 5.3216,7.2064 1.0499,-4.1828 21.903,-47.1854 29.2726,-60.3648 1.5941,-2.8507 6.0064,-12.0989 9.8052,-20.5516 3.7988,-8.4527 7.3795,-14.8961 7.957,-14.3185 0.5776,0.5776 -1.7713,6.991 -5.2195,14.2522 -3.4483,7.261 -6.2696,14.218 -6.2696,15.4599 0,1.2419 -8.1633,18.207 -18.1406,37.7002 -10.7193,20.943 -18.1166,37.4388 -18.082,40.3226 0.04,3.3957 7.2674,-9.3116 23.7554,-41.7714 21.8433,-43.0023 29.7439,-57.3041 29.7439,-53.8428 0,2.8029 -44.8066,94.3008 -48.3663,98.7669 -0.7573,0.9502 -2.2041,4.8375 -3.2151,8.6384 -1.6987,6.3864 -1.6362,6.6485 0.8239,3.4553 1.4642,-1.9005 5.0199,-8.1201 7.9015,-13.8214 2.8817,-5.7013 9.3743,-17.7518 14.4281,-26.7789 5.0538,-9.0271 10.8324,-21.3542 12.8414,-27.3936 3.7004,-11.1242 8.4762,-20.029 9.9509,-18.5542 0.4439,0.4439 -1.5059,5.716 -4.333,11.7157 -2.827,5.9997 -5.6547,13.2759 -6.2836,16.1694 -0.629,2.8935 -6.1826,14.1666 -12.3415,25.0512 -6.1588,10.8847 -12.8533,24.2846 -14.8765,29.7776 -2.0232,5.4929 -4.3432,10.3979 -5.1555,10.8999 -0.8122,0.502 -1.4768,2.4676 -1.4768,4.3681 0,5.6922 3,2.0773 6.8781,-8.288 z m -9.239,-48.0514 c 1.803,-7.6536 8.8963,-25.2006 11.4645,-28.3602 1.2302,-1.5134 7.9291,-14.8023 14.8865,-29.5306 24.3541,-51.5563 26.2279,-55.2855 27.7804,-55.2855 0.8602,0 -1.5651,6.8027 -5.3896,15.1171 -3.8246,8.3144 -8.0138,17.4495 -9.3094,20.3001 -26.296,57.8562 -42.0729,88.9676 -39.4324,77.7591 z m -204.2592,1.2819 c 1.6874,-3.5633 9.3045,-17.7518 16.9268,-31.53 13.3423,-24.1178 20.3815,-34.3702 20.3815,-29.6855 0,2.6722 -4.0484,10.8264 -18.1692,36.5962 -5.9878,10.9275 -11.4082,21.6474 -12.0454,23.822 -1.1,3.7537 -0.6928,3.6604 8.0493,-1.8461 14.5759,-9.1813 19.914,-10.7575 35.9867,-10.6257 11.476,0.094 20.5372,1.6819 41.4641,7.2654 35.4238,9.4517 58.1375,13.1918 72.4509,11.9302 13.8893,-1.2242 29.4663,-5.7534 29.5254,-8.5849 0.024,-1.151 3.189,-8.3123 7.0332,-15.9141 3.8441,-7.6017 8.0882,-17.3199 9.4313,-21.5959 1.343,-4.276 4.7831,-11.273 7.6447,-15.549 2.8614,-4.276 5.206,-8.2804 5.2101,-8.8988 0.01,-0.6183 2.9901,-7.6153 6.6356,-15.549 3.6456,-7.9336 8.8308,-19.7082 11.5227,-26.1656 2.6919,-6.4574 5.54,-12.1398 6.3293,-12.6276 0.7892,-0.4877 1.4349,-2.0814 1.4349,-3.5415 0,-1.4602 1.4394,-4.7184 3.1985,-7.2407 3.6482,-5.2304 19.5544,-40.2858 18.6775,-41.1627 -0.3173,-0.3174 -4.883,0.9044 -10.1459,2.7151 -5.2629,1.8107 -18.3923,4.5862 -29.1765,6.1677 -15.9053,2.3325 -20.9894,2.4886 -26.9256,0.8266 -11.5152,-3.2241 -15.1172,-1.4024 -21.3057,10.7759 -10.2684,20.2069 -28.2021,42.1348 -40.8558,49.9552 -6.905,4.2676 -9.2205,3.1777 -9.2205,-4.3397 0,-12.9084 -19.0278,-28.6601 -34.621,-28.6601 -4.3972,0 -8.4977,0.5027 -9.1122,1.1173 -0.6145,0.6145 2.5601,2.8262 7.0547,4.9149 14.9323,6.9393 24.5848,17.6553 24.5848,27.2933 0,5.5399 -8.0109,15.6738 -15.9809,20.2162 -4.5399,2.5875 -6.4788,4.8823 -6.4788,7.6682 0,8.7053 -14.1332,20.0669 -20.6341,16.5877 -1.8294,-0.979 -6.2025,-1.7801 -9.7181,-1.7801 -3.5155,0 -9.2032,-0.7421 -12.6392,-1.6491 -3.436,-0.907 -8.3193,-2.0715 -10.8518,-2.5877 -2.9602,-0.6033 -5.4246,-2.7909 -6.9006,-6.1254 -1.2627,-2.8528 -3.3216,-5.1868 -4.5751,-5.1868 -1.2535,0 -8.3616,5.794 -15.7956,12.8755 -13.952,13.2904 -20.6551,16.7594 -25.1598,13.0209 -3.6158,-3.0008 -3.2195,-6.6359 1.8271,-16.7631 5.0721,-10.1784 27.6558,-32.655 37.4999,-37.322 3.5633,-1.6893 6.4787,-3.8028 6.4787,-4.6964 0,-0.8937 5.3835,-4.336 11.9634,-7.6495 7.8874,-3.9721 12.3852,-7.3641 13.2014,-9.9559 0.681,-2.1622 3.072,-6.6384 5.3135,-9.9472 5.4579,-8.0571 5.1554,-10.1218 -1.9161,-13.0765 -11.7946,-4.9281 -15.0164,-3.6938 -21.595,8.2726 -7.1589,13.022 -17.161,24.2099 -24.9471,27.9046 -9.2231,4.3767 -32.6973,5.4532 -45.9439,2.107 -14.6817,-3.7087 -30.5052,-11.5269 -43.9952,-21.7374 -5.9809,-4.527 -13.106,-8.6745 -15.8335,-9.2167 -2.7274,-0.5421 -6.9026,-1.4557 -9.2781,-2.0301 -3.8972,-0.9422 -4.7837,-0.066 -9.0729,8.9656 -4.5772,9.6386 -6.1557,17.7736 -3.4527,17.7944 5.4971,0.043 21.9943,3.7114 23.9367,5.3236 3.0319,2.5161 3.1264,9.7461 0.1662,12.7064 -8.1047,8.1047 -20.2148,9.7595 -32.0661,4.3818 -4.1423,-1.8795 -7.8216,-3.4173 -8.1763,-3.4173 -0.3548,0 -4.9148,6.3774 -10.1334,14.1721 -5.2186,7.7947 -20.7812,26.0037 -34.5836,40.4644 -13.8024,14.4606 -25.0953,27.1008 -25.0953,28.0891 0,6.5652 49.5985,8.1616 90.2617,2.9053 20.25,-2.6176 26.2955,-2.7732 41.0597,-1.0567 21.9383,2.5504 33.739,5.6337 46.2204,12.0764 5.4508,2.8137 10.3497,5.1532 10.8864,5.1989 0.5367,0.046 2.3564,-2.8324 4.0439,-6.3957 z m 6.8074,-56.057 c 13.0324,-9.0755 31.677,-26.3494 36.0864,-33.4337 2.6328,-4.2299 6.0045,-7.6908 7.4929,-7.6908 2.2317,0 2.0529,0.9171 -1.02,5.2326 -5.9508,8.357 -7.6266,16.6871 -4.3601,21.6724 4.1413,6.3205 7.8507,5.4041 7.8507,-1.9396 0,-7.3467 3.9215,-15.5304 8.6562,-18.0643 4.2514,-2.2753 4.2721,-1.6539 0.1846,5.5257 -5.3625,9.4193 -5.9152,14.6862 -1.9564,18.6449 4.9827,4.9827 6.6364,4.3516 7.8532,-2.9971 1.4372,-8.6787 4.1088,-15.4267 7.086,-17.8975 4.217,-3.4998 4.5171,-0.4078 0.7805,8.0394 -1.9798,4.4758 -3.5997,9.4384 -3.5997,11.028 0,8.3453 11.5768,9.547 19.1373,1.9865 7.4038,-7.4038 6.2415,-11.7025 -1.8054,-6.6771 -1.8444,1.1518 -3.9653,1.4822 -4.7133,0.7343 -0.7479,-0.748 -0.2002,-2.0289 1.2172,-2.8465 1.4174,-0.8175 8.7967,-5.6183 16.3984,-10.6684 12.756,-8.474 13.8626,-9.6784 14.3554,-15.6238 0.4618,-5.5696 -0.3286,-7.2071 -5.8369,-12.0936 -14.499,-12.8623 -24.6019,-14.7342 -37.1187,-6.8775 -4.2244,2.6517 -12.3455,7.4149 -18.0469,10.5849 -17.7303,9.8582 -39.4828,26.1672 -45.3841,34.0269 -4.9563,6.601 -5.3794,7.9634 -3.4554,11.1269 1.946,3.1997 1.6099,4.0758 -2.9906,7.7951 -6.4696,5.2302 -4.1591,5.5289 3.1887,0.4123 z m -3.8317,-5.664 c 0.066,-2.9158 -3.2014,-2.9087 -4.3211,0.01 -0.7386,1.9248 -0.2406,2.6172 1.6061,2.2326 1.4722,-0.3065 2.6939,-1.3154 2.715,-2.2418 z m -153.4857,-4.9101 c 1.4425,-2.2017 4.2741,-9.5477 6.2923,-16.3243 5.6849,-19.0889 12.3666,-22.7036 29.4909,-15.9538 11.4631,4.5184 20.9659,4.5143 25.0608,-0.01 4.0265,-4.4492 2.5639,-5.8773 -3.2885,-3.2108 -3.5105,1.5995 -5.0656,1.6147 -6.6157,0.065 -1.5499,-1.5501 -1.2105,-2.0265 1.4444,-2.0265 1.9088,0 4.9798,-1.1307 6.8243,-2.5126 3.1043,-2.3257 2.904,-2.4442 -2.6932,-1.5927 -5.0535,0.7689 -7.8918,-0.2918 -17.2768,-6.4558 -14.9938,-9.848 -21.9061,-10.0892 -30.4234,-1.0614 -3.3414,3.5417 -6.708,6.4395 -7.4814,6.4395 -3.4572,0 -9.4242,18.4207 -9.514,29.3704 -0.1373,16.7391 2.7935,21.4948 8.1803,13.2737 z m 21.9618,-29.0603 c 0,-2.4648 -2.1434,-1.7019 -6.3674,2.2664 -2.1992,2.0661 -3.9986,5.6715 -3.9986,8.0121 0,4.0187 0.2885,3.8925 5.183,-2.2664 2.8507,-3.5871 5.183,-7.1925 5.183,-8.0121 z m 143.8796,-20.5025 c 8.5839,-2.6512 12.2787,-4.8605 15.7584,-9.4228 10.6668,-13.9849 15.0945,-33.8978 12.9883,-58.4126 -0.804,-9.3579 -1.8353,-12.4643 -5.1623,-15.549 l -4.1576,-3.8549 6.0262,-0.5669 c 8.5243,-0.8019 16.2778,-7.3982 21.3844,-18.1927 8.4776,-17.9201 9.4244,-33.3176 2.5052,-40.7445 -4.0375,-4.3338 -12.89,-4.6859 -18.5278,-0.737 -5.1065,3.5767 -12.2543,18.7754 -12.2764,26.1037 -0.014,4.4845 -1.2138,6.3759 -6.0303,9.5021 -3.6283,2.355 -8.2088,8.0149 -11.548,14.2692 -3.0439,5.7013 -7.7853,13.4759 -10.5365,17.2767 -4.4796,6.1889 -4.8878,7.8316 -3.9084,15.7279 1.4944,12.0475 -2.4735,20.2368 -12.0514,24.8734 -13.158,6.3697 -22.2435,4.1301 -34.47,-8.497 -8.859,-9.1492 -12.1833,-9.3298 -10.5679,-0.5743 0.6574,3.5633 1.8427,11.5322 2.6338,17.7086 0.7912,6.1764 2.0092,12.6326 2.7068,14.347 1.1866,2.916 1.5329,2.8687 5.3668,-0.7331 2.2541,-2.1176 4.1013,-4.6865 4.1048,-5.7086 0.01,-1.0222 1.6102,-4.489 3.5703,-7.704 2.5109,-4.1187 4.1049,-5.3044 5.3955,-4.0138 2.6695,2.6694 0.5406,9.0643 -6.3546,19.088 l -6.0702,8.8246 5.4686,2.8279 c 15.889,8.2166 35.6674,9.748 53.7523,4.1621 z m -29.8532,-11.1054 c 0,-2.3827 6.3574,-5.5648 7.9453,-3.9769 0.4259,0.4259 0.2841,2.0518 -0.315,3.6132 -1.338,3.4867 -7.6303,3.7866 -7.6303,0.3637 z m 53.9897,-88.508 c -1.1878,-0.4793 -2.1596,-2.2538 -2.1596,-3.9432 0,-2.2629 1.0338,-2.8742 3.9258,-2.3214 4.8824,0.9333 13.3509,-5.4055 13.3509,-9.9933 0,-4.4599 -1.495,-4.1993 -7.1856,1.2526 -3.9947,3.8271 -5.2206,4.2195 -7.4371,2.38 -5.5305,-4.5899 -1.8104,-19.3241 7.1385,-28.2729 6.8406,-6.8406 9.2119,-7.8035 9.2119,-3.7409 0,1.4253 -0.7665,2.5915 -1.7032,2.5915 -2.3762,0 -9.9263,11.916 -11.4127,18.0124 l -1.2326,5.0549 6.3543,-3.9272 c 8.0843,-4.9963 11.4495,-3.7841 11.4495,4.1242 0,4.5777 -1.5562,7.8187 -6.2479,13.0118 -5.8955,6.5257 -9.0115,7.8054 -14.0522,5.7715 z m 46.7895,80.7407 c 5.6802,-5.2936 11.5194,-13.5715 11.5194,-16.3302 0,-2.2401 -11.5812,2.8976 -16.0092,7.1022 -4.9659,4.7154 -11.6336,15.8579 -11.6336,19.4413 0,2.4515 7.9105,-2.5593 16.1234,-10.2133 z m -142.6374,-5.3447 c -0.4586,-4.772 -1.2466,-9.0892 -1.7513,-9.5939 -0.5046,-0.5047 -3.7994,1.7226 -7.3217,4.9494 l -6.4041,5.8669 5.776,3.6979 c 9.1577,5.8628 10.6638,5.099 9.7011,-4.9203 z m -11.8251,-13.1526 c 4.7504,-6.039 4.5166,-10.0191 -1.1111,-18.9146 -5.6562,-8.9405 -9.8854,-11.0865 -21.8484,-11.0865 -8.5763,0 -9.2525,0.3236 -11.7313,5.6148 -6.467,13.8047 5.5628,28.9181 23.029,28.932 6.6766,0.01 8.7034,-0.7846 11.6618,-4.5457 z m -10.1798,-5.7002 c -2.5827,-4.8258 -2.2554,-5.6032 2.0988,-4.9848 2.4981,0.3547 4.0845,1.9411 4.4393,4.4393 0.6961,4.9009 -3.9976,5.2925 -6.5381,0.5455 z m 64.5275,-4.2381 c 4.3189,-1.8046 6.0138,-3.7836 6.8588,-8.0085 1.6518,-8.2589 -1.6877,-18.1973 -8.3549,-24.8645 -18.2608,-18.2608 -39.254,-0.2379 -26.0221,22.3403 4.134,7.0542 12.4864,12.8108 18.7028,12.8902 1.6934,0.022 5.6603,-1.0393 8.8154,-2.3575 z m -19.0727,-7.1799 c -0.5627,-1.4663 -0.501,-3.1881 0.1372,-3.8261 1.415,-1.415 6.5778,1.6466 7.5143,4.456 1.0237,3.0711 -6.4678,2.4544 -7.6514,-0.6299 z m -23.4878,-10.5165 c 3.2347,-0.8669 3.8883,-2.2405 3.8937,-8.1829 0.01,-9.2217 5.3297,-17.8894 12.9335,-21.0664 10.6163,-4.4358 18.2432,-2.6548 31.6611,7.3931 3.1506,2.3593 5.9486,4.0168 6.2178,3.6833 2.5341,-3.1399 25.1987,-37.5794 25.1987,-38.2901 0,-0.5145 -1.2952,-1.187 -2.8782,-1.4942 -2.0507,-0.398 -0.7746,-2.0159 4.4395,-5.6279 4.0246,-2.7882 8.4142,-7.1902 9.7546,-9.7822 2.3327,-4.5109 1.9667,-5.4781 -8.5403,-22.5734 -13.3109,-21.6573 -15.4699,-23.8977 -27.2303,-28.2581 -7.7381,-2.8689 -13.5753,-3.4238 -36.0138,-3.4238 -26.5386,0 -26.8835,0.05 -38.4406,5.5241 -6.4141,3.0384 -11.6618,6.3676 -11.6618,7.3983 0,1.0308 -1.4697,2.4322 -3.266,3.1142 -3.9128,1.4857 -25.4064,29.9154 -28.8531,38.1641 -2.5852,6.1868 -3.2313,18.8943 -1.1122,21.8739 2.2979,3.231 24.7537,21.5388 26.4189,21.5388 0.8961,0 1.6293,0.7775 1.6293,1.7277 0,3.7625 -8.571,1.3997 -16.2828,-4.4888 -4.4778,-3.4189 -8.6064,-5.7513 -9.1748,-5.183 -2.0672,2.0673 -0.955,15.9382 1.9876,24.7889 1.6586,4.9887 3.3734,9.0703 3.8106,9.0703 0.4373,0 3.0149,-1.6413 5.7282,-3.6473 7.4691,-5.5222 18.4549,-6.114 29.0317,-1.564 4.8623,2.0917 10.1827,5.2862 11.823,7.0987 3.3066,3.6537 3.4207,3.6819 8.9257,2.2067 z m -37.6705,-36.6166 c -6.8835,-4.3731 -18.7531,-18.3537 -17.0078,-20.0326 0.3787,-0.3642 6.9082,5.0696 14.5099,12.0753 14.5107,13.3728 15.3797,16.1413 2.4979,7.9573 z m 5.6121,-5.9182 c -11.4035,-11.5982 -15.7422,-16.8512 -15.8295,-19.1653 -0.1059,-2.8079 21.2647,15.7623 30.0151,26.0819 3.2436,3.8252 3.2416,3.8813 -0.1389,3.8813 -1.9233,0 -8.0937,-4.7432 -14.0467,-10.7979 z m 11.1767,-1.8481 c -10.2236,-10.5331 -19.3994,-25.2241 -13.8787,-22.2207 4.9673,2.7023 20.2727,20.2581 25.5022,29.2518 3.1003,5.3321 -3.4973,1.3411 -11.6235,-7.0311 z m 14.3891,-7.2642 c -5.7063,-17.29 3.335,-47.4458 18.3842,-61.3176 4.1071,-3.7859 8.2623,-6.8834 9.2338,-6.8834 3.0714,0 1.9152,3.7047 -2.1557,6.9069 -2.157,1.6967 -7.7935,10.6395 -12.5256,19.8728 -8.2813,16.1589 -8.6037,17.3254 -8.6037,31.1347 0,7.8907 -0.5056,14.8553 -1.1235,15.4769 -0.618,0.6216 -2.0623,-1.7141 -3.2095,-5.1903 z m 36.3038,-7.3006 c 0.035,-5.1827 26.1455,-36.713 30.4019,-36.713 3.7578,0 2.8844,2.362 -2.915,7.8832 -2.9315,2.7909 -9.5834,10.7108 -14.7821,17.6 -8.4688,11.2225 -12.7305,14.9894 -12.7048,11.2298 z m 13.8287,0 c 0.047,-3.7433 10.9888,-19.5852 17.9759,-26.0257 11.7605,-10.8405 13.6002,-7.0121 2.2286,4.638 -5.2214,5.3493 -10.0143,11.4706 -10.651,13.603 -1.7957,6.014 -9.611,12.3823 -9.5535,7.7847 z m -57.5419,-2.7328 c -5.9776,-15.5683 9.2158,-54.7039 23.6017,-60.7939 7.6933,-3.2568 7.6515,-0.3244 -0.1213,8.5059 -9.3448,10.6163 -16.2795,25.4131 -19.5112,41.6314 -1.8535,9.3016 -3.1514,12.7864 -3.9692,10.6566 z m 76.5301,1.3763 c 0,-4.5327 17.2933,-19.8074 22.425,-19.8074 3.0637,0 -0.023,3.9331 -9.957,12.6878 -8.2452,7.2662 -12.468,9.6776 -12.468,7.1196 z m -5.183,-5.0202 c 0,-4.9854 18.9764,-22.3018 21.5831,-19.6951 0.3681,0.3681 -4.3375,5.4965 -10.4569,11.3964 -6.1194,5.8999 -11.1262,9.6343 -11.1262,8.2987 z m 93.2943,282.8888 c -14.1064,-2.7923 -62.5892,-3.9778 -72.5391,-1.7738 -5.4098,1.1983 -5.754,1.0646 -3.3775,-1.3119 7.9299,-7.9299 51.3058,-8.3368 76.9567,-0.7219 7.1018,2.1083 13.3175,4.4887 13.8126,5.2898 1.0631,1.7201 1.5912,1.7728 -14.8527,-1.4822 z m -5.1831,-17.8241 c -27.3006,-5.7662 -48.708,-6.595 -61.1182,-2.3664 -10.9057,3.7159 -12.3728,1.6503 -2.066,-2.9089 13.1379,-5.8115 29.1263,-6.0758 58.8651,-0.9731 32.0663,5.5021 50.7648,7.9989 60.1616,8.0333 5.2965,0.02 6.5278,0.4722 4.6261,1.7012 -5.2809,3.4128 -36.261,1.6267 -60.4686,-3.4861 z"
       id="path2627"
       inkscape:connector-curvature="0" />
    <g
       aria-label="Projet"
       transform="matrix(2.6458334,0,0,2.6458334,-386.49103,970.89515)"
       style="font-style:normal;font-variant:normal;font-weight:normal;font-stretch:normal;font-size:13.33333302px;line-height:100%;font-family:Ubuntu;-inkscape-font-specification:'Ubuntu, Normal';font-variant-ligatures:normal;font-variant-caps:normal;font-variant-numeric:normal;font-feature-settings:normal;text-align:start;letter-spacing:0px;word-spacing:0px;writing-mode:lr-tb;text-anchor:start;fill:#ff0000;fill-opacity:1;stroke:none;stroke-width:1px;stroke-linecap:butt;stroke-linejoin:miter;stroke-opacity:1"
       id="flowRoot2608-7">
      <path
         d="m 184.20391,141.4205 q 3.89333,0 5.97333,1.49333 2.10667,1.46667 2.10667,4.4 0,1.6 -0.58667,2.74666 -0.56,1.12 -1.65333,1.84 -1.06667,0.69334 -2.61334,1.01334 -1.54666,0.32 -3.49333,0.32 h -2.05333 v 6.85333 h -2.58667 v -18.21333 q 1.09333,-0.26667 2.42667,-0.34667 1.36,-0.10666 2.48,-0.10666 z m 0.21333,2.26666 q -1.65333,0 -2.53333,0.08 v 7.25333 h 1.94666 q 1.33334,0 2.4,-0.16 1.06667,-0.18666 1.78667,-0.58666 0.74667,-0.42667 1.14667,-1.14667 0.4,-0.72 0.4,-1.84 0,-1.06667 -0.42667,-1.76 -0.4,-0.69333 -1.12,-1.09333 -0.69333,-0.42667 -1.62667,-0.58667 -0.93333,-0.16 -1.97333,-0.16 z"
         style="font-style:normal;font-variant:normal;font-weight:normal;font-stretch:normal;font-size:26.66666603px;font-family:Ubuntu;-inkscape-font-specification:'Ubuntu, Normal';font-variant-ligatures:normal;font-variant-caps:normal;font-variant-numeric:normal;font-feature-settings:normal;text-align:start;writing-mode:lr-tb;text-anchor:start;fill:#ff0000"
         id="path2678" />
      <path
         d="m 200.45516,145.92716 q 0.32,0 0.72,0.0533 0.42666,0.0267 0.82666,0.10667 0.4,0.0533 0.72,0.13333 0.34667,0.0533 0.50667,0.10667 l -0.42667,2.16 q -0.29333,-0.10667 -0.98666,-0.24 -0.66667,-0.16 -1.73334,-0.16 -0.69333,0 -1.38666,0.16 -0.66667,0.13333 -0.88,0.18667 v 11.65333 h -2.48 v -13.28 q 0.88,-0.32 2.18666,-0.58667 1.30667,-0.29333 2.93334,-0.29333 z"
         style="font-style:normal;font-variant:normal;font-weight:normal;font-stretch:normal;font-size:26.66666603px;font-family:Ubuntu;-inkscape-font-specification:'Ubuntu, Normal';font-variant-ligatures:normal;font-variant-caps:normal;font-variant-numeric:normal;font-feature-settings:normal;text-align:start;writing-mode:lr-tb;text-anchor:start;fill:#ff0000"
         id="path2680" />
      <path
         d="m 217.88766,153.15383 q 0,1.65333 -0.48,2.98666 -0.48,1.33334 -1.36,2.29334 -0.85334,0.96 -2.05334,1.49333 -1.2,0.50667 -2.61333,0.50667 -1.41333,0 -2.61333,-0.50667 -1.2,-0.53333 -2.08,-1.49333 -0.85334,-0.96 -1.33334,-2.29334 -0.48,-1.33333 -0.48,-2.98666 0,-1.62667 0.48,-2.96 0.48,-1.36 1.33334,-2.32 0.88,-0.96 2.08,-1.46667 1.2,-0.53333 2.61333,-0.53333 1.41333,0 2.61333,0.53333 1.2,0.50667 2.05334,1.46667 0.88,0.96 1.36,2.32 0.48,1.33333 0.48,2.96 z m -2.58667,0 q 0,-2.34667 -1.06667,-3.70667 -1.04,-1.38667 -2.85333,-1.38667 -1.81333,0 -2.88,1.38667 -1.04,1.36 -1.04,3.70667 0,2.34666 1.04,3.73333 1.06667,1.36 2.88,1.36 1.81333,0 2.85333,-1.36 1.06667,-1.38667 1.06667,-3.73333 z"
         style="font-style:normal;font-variant:normal;font-weight:normal;font-stretch:normal;font-size:26.66666603px;font-family:Ubuntu;-inkscape-font-specification:'Ubuntu, Normal';font-variant-ligatures:normal;font-variant-caps:normal;font-variant-numeric:normal;font-feature-settings:normal;text-align:start;writing-mode:lr-tb;text-anchor:start;fill:#ff0000"
         id="path2682" />
      <path
         d="m 219.11015,165.07383 q -0.32,0 -0.82666,-0.08 -0.50667,-0.08 -0.85333,-0.21334 l 0.32,-2.02666 q 0.26666,0.08 0.61333,0.13333 0.34666,0.0533 0.64,0.0533 1.28,0 1.81333,-0.8 0.56,-0.77333 0.56,-2.29333 v -13.62667 h 2.48 v 13.6 q 0,2.66667 -1.22667,3.94667 -1.2,1.30667 -3.52,1.30667 z m 3.49334,-21.36 q -0.66667,0 -1.14667,-0.42667 -0.45333,-0.45333 -0.45333,-1.2 0,-0.74666 0.45333,-1.17333 0.48,-0.45333 1.14667,-0.45333 0.66666,0 1.12,0.45333 0.48,0.42667 0.48,1.17333 0,0.74667 -0.48,1.2 -0.45334,0.42667 -1.12,0.42667 z"
         style="font-style:normal;font-variant:normal;font-weight:normal;font-stretch:normal;font-size:26.66666603px;font-family:Ubuntu;-inkscape-font-specification:'Ubuntu, Normal';font-variant-ligatures:normal;font-variant-caps:normal;font-variant-numeric:normal;font-feature-settings:normal;text-align:start;writing-mode:lr-tb;text-anchor:start;fill:#ff0000"
         id="path2684" />
      <path
         d="m 227.37432,153.18049 q 0,-1.84 0.53333,-3.2 0.53334,-1.38666 1.41334,-2.29333 0.88,-0.90667 2.02666,-1.36 1.14667,-0.45333 2.34667,-0.45333 2.8,0 4.29333,1.76 1.49334,1.73333 1.49334,5.30666 0,0.16 0,0.42667 0,0.24 -0.0267,0.45333 h -9.49333 q 0.16,2.16 1.25333,3.28 1.09333,1.12 3.41333,1.12 1.30667,0 2.18667,-0.21333 0.90667,-0.24 1.36,-0.45333 l 0.34667,2.08 q -0.45334,0.24 -1.6,0.50666 -1.12,0.26667 -2.56,0.26667 -1.81334,0 -3.14667,-0.53333 -1.30667,-0.56 -2.16,-1.52 -0.85333,-0.96 -1.28,-2.26667 -0.4,-1.33333 -0.4,-2.90667 z m 9.52,-1.36 q 0.0267,-1.68 -0.85333,-2.74666 -0.85334,-1.09334 -2.37334,-1.09334 -0.85333,0 -1.52,0.34667 -0.64,0.32 -1.09333,0.85333 -0.45333,0.53334 -0.72,1.22667 -0.24,0.69333 -0.32,1.41333 z"
         style="font-style:normal;font-variant:normal;font-weight:normal;font-stretch:normal;font-size:26.66666603px;font-family:Ubuntu;-inkscape-font-specification:'Ubuntu, Normal';font-variant-ligatures:normal;font-variant-caps:normal;font-variant-numeric:normal;font-feature-settings:normal;text-align:start;writing-mode:lr-tb;text-anchor:start;fill:#ff0000"
         id="path2686" />
      <path
         d="m 245.36349,146.22049 h 5.25333 v 2.08 h -5.25333 v 6.4 q 0,1.04 0.16,1.73334 0.16,0.66666 0.48,1.06666 0.32,0.37334 0.8,0.53334 0.48,0.16 1.12,0.16 1.12,0 1.78667,-0.24 0.69333,-0.26667 0.96,-0.37334 l 0.48,2.05334 q -0.37334,0.18666 -1.30667,0.45333 -0.93333,0.29333 -2.13333,0.29333 -1.41334,0 -2.34667,-0.34666 -0.90667,-0.37334 -1.46667,-1.09334 -0.56,-0.72 -0.8,-1.76 -0.21333,-1.06666 -0.21333,-2.45333 v -12.37333 l 2.48,-0.42667 z"
         style="font-style:normal;font-variant:normal;font-weight:normal;font-stretch:normal;font-size:26.66666603px;font-family:Ubuntu;-inkscape-font-specification:'Ubuntu, Normal';font-variant-ligatures:normal;font-variant-caps:normal;font-variant-numeric:normal;font-feature-settings:normal;text-align:start;writing-mode:lr-tb;text-anchor:start;fill:#ff0000"
         id="path2688" />
    </g>
    <rect
       style="opacity:1;fill:none;fill-opacity:1;fill-rule:nonzero;stroke:#ff0000;stroke-width:2.87498999;stroke-linejoin:miter;stroke-miterlimit:4;stroke-dasharray:none;stroke-opacity:1"
       id="rect2674"
       width="1029.0001"
       height="764.41669"
       x="14.666662"
       y="1320.9167"
       ry="26.458334"
       rx="26.458334" />
  </g>
</svg>
