<?xml version="1.0" encoding="UTF-8" standalone="no"?>
<!-- Created with Inkscape (http://www.inkscape.org/) -->

<svg
   xmlns:dc="http://purl.org/dc/elements/1.1/"
   xmlns:cc="http://creativecommons.org/ns#"
   xmlns:rdf="http://www.w3.org/1999/02/22-rdf-syntax-ns#"
   xmlns:svg="http://www.w3.org/2000/svg"
   xmlns="http://www.w3.org/2000/svg"
   xmlns:sodipodi="http://sodipodi.sourceforge.net/DTD/sodipodi-0.dtd"
   xmlns:inkscape="http://www.inkscape.org/namespaces/inkscape"
   width="400"
   height="300"
   viewBox="0 0 105.83333 79.375002"
   version="1.1"
   id="svg2760"
   inkscape:version="0.92.3 (2405546, 2018-03-11)"
   sodipodi:docname="ProjetsPapasInventeurs.svg">
  <defs
     id="defs2754" />
  <sodipodi:namedview
     id="base"
     pagecolor="#ffffff"
     bordercolor="#666666"
     borderopacity="1.0"
     inkscape:pageopacity="0.0"
     inkscape:pageshadow="2"
     inkscape:zoom="1.979899"
     inkscape:cx="234.15824"
     inkscape:cy="155.0344"
     inkscape:document-units="mm"
     inkscape:current-layer="layer1"
     showgrid="false"
     units="px"
     inkscape:window-width="1853"
     inkscape:window-height="1025"
     inkscape:window-x="67"
     inkscape:window-y="27"
     inkscape:window-maximized="1" />
  <metadata
     id="metadata2757">
    <rdf:RDF>
      <cc:Work
         rdf:about="">
        <dc:format>image/svg+xml</dc:format>
        <dc:type
           rdf:resource="http://purl.org/dc/dcmitype/StillImage" />
        <dc:title></dc:title>
      </cc:Work>
    </rdf:RDF>
  </metadata>
  <g
     inkscape:label="Calque 1"
     inkscape:groupmode="layer"
     id="layer1"
     transform="translate(0,-217.62498)">
    <rect
       style="opacity:1;fill:#ff0000;fill-opacity:1;fill-rule:nonzero;stroke:none;stroke-width:0.26531219;stroke-linejoin:miter;stroke-miterlimit:4;stroke-dasharray:none;stroke-opacity:1"
       id="rect4741"
       width="97.419746"
       height="22.183395"
       x="4.2763119"
       y="272.5502"
       rx="2.6604309"
       ry="2.6458333" />
    <path
       style="fill:#000000;stroke-width:0.04134769"
       d="m 6.0876693,270.16393 c -0.6042961,-0.20789 -1.1659494,-0.7603 -1.3749072,-1.35233 l -0.09806,-0.27787 -8.204e-4,-4.94771 c -8.204e-4,-4.74113 0.00296,-4.95821 0.07744,-5.1994 0.193826,-0.62274 0.821267,-1.24242 1.4722015,-1.45396 0.1206166,-0.0392 0.6626652,-0.06 2.0019521,-0.077 l 1.8365527,-0.0232 0.354869,-1.06106 0.354881,-1.06106 0.598598,-0.67554 c 1.035979,-1.16915 1.016435,-1.15104 1.242445,-1.15104 0.149032,0 0.371912,0.0735 0.941794,0.31011 0.410605,0.17055 0.757035,0.3101 0.769849,0.3101 0.01286,0 0.142434,-0.23723 0.288041,-0.52718 0.145597,-0.28995 0.308549,-0.56784 0.362082,-0.61752 0.164791,-0.15292 0.975059,-0.50921 1.15806,-0.50921 0.198684,0 0.188274,0.006 1.435568,-0.73331 1.695535,-1.00407 2.701977,-1.67512 4.346759,-2.89821 2.7134,-2.01772 3.764452,-3.06006 6.94906,-6.89147 2.27401,-2.73585 3.410306,-4.4309 5.072374,-7.56663 1.446412,-2.72882 2.429137,-4.9561 3.002621,-6.80519 0.301895,-0.97338 0.947133,-3.44383 1.37059,-5.24766 l 0.393127,-1.67457 0.175432,-0.15494 c 0.164789,-0.1456 0.191702,-0.15488 0.444178,-0.1538 0.147814,5.5e-4 0.650189,0.0302 1.116384,0.0658 0.673512,0.0513 1.84142,0.0687 5.685313,0.0848 4.83754,0.0203 4.837685,0.0203 4.930711,0.10672 0.06653,0.0618 0.09299,0.13363 0.09299,0.25152 0,0.14442 -0.04026,0.21459 -0.321817,0.56133 -1.395743,1.71881 -3.24827,4.06849 -3.832171,4.86061 -1.394344,1.89158 -2.666521,3.8266 -3.88637,5.9113 -1.05645,1.80545 -1.530515,3.11627 -2.004724,5.54325 -0.467054,2.3903 -0.587329,3.90738 -0.436308,5.50294 0.107476,1.13562 0.413095,3.31257 0.474373,3.37914 0.01709,0.0185 0.745215,-0.14353 1.618163,-0.36001 3.771848,-0.93553 5.999028,-1.34953 8.14077,-1.51323 2.12104,-0.16212 5.120125,-0.21096 6.420033,-0.10451 2.69993,0.22103 5.727415,0.78553 9.064682,1.69016 0.54579,0.14793 1.422813,0.38177 1.948951,0.51961 1.791903,0.46946 2.634693,0.73628 4.755636,1.50559 1.38185,0.50123 1.960692,0.66666 3.63233,1.03809 2.277478,0.50604 4.091831,0.93214 4.6862,1.10055 1.866709,0.52892 4.005564,1.41656 5.288044,2.19457 0.267695,0.1624 0.542544,0.32785 0.610765,0.36764 0.08835,0.0516 0.373911,0.0989 0.992353,0.16485 0.612908,0.0653 0.889563,0.11101 0.940616,0.15565 0.03978,0.0347 0.230828,0.36347 0.424567,0.73051 l 0.352272,0.66734 0.340356,0.1116 0.340347,0.1116 0.45483,-0.31034 0.45482,-0.31037 0.620219,-0.0399 c 0.341118,-0.022 0.798796,-0.0403 1.017062,-0.0408 l 0.396844,-7.7e-4 0.224378,0.23774 c 0.12341,0.13082 0.412807,0.45217 0.643114,0.71424 l 0.418734,0.47647 0.825941,0.23536 c 0.746472,0.21269 0.882833,0.2663 1.41717,0.5572 0.468696,0.25517 0.661576,0.38828 0.930655,0.64232 l 0.339418,0.32044 0.676659,5.2e-4 c 1.066594,9.6e-4 1.435664,0.11692 1.947844,0.61146 0.33634,0.32471 0.50964,0.58458 0.61449,0.92143 0.075,0.2411 0.0783,0.45945 0.0783,5.19037 0,4.8593 -9.6e-4,4.94269 -0.0842,5.18872 -0.20538,0.60963 -0.75683,1.17342 -1.35383,1.38413 l -0.277875,0.098 -46.826273,-5.2e-4 c -46.7700716,-5.9e-4 -46.82655,-5.9e-4 -47.0674682,-0.0835 z m 11.4464257,-2.6449 c 0.20468,-0.0229 0.555021,-0.0721 0.778559,-0.10954 l 0.406423,-0.068 -0.01766,-2.07082 c -0.01506,-1.76588 -0.02791,-2.10984 -0.087,-2.33573 -0.263398,-1.00597 -1.051853,-1.5314 -2.300073,-1.53276 -0.636256,-5.1e-4 -1.57442,0.16537 -1.803761,0.31929 -0.03379,0.0228 -0.02066,0.20981 0.04838,0.68598 0.05215,0.36013 0.103219,0.66318 0.113462,0.67342 0.0102,0.0104 0.111526,-0.018 0.225044,-0.0628 0.336089,-0.13244 0.80602,-0.21111 1.26168,-0.21111 0.360722,0 0.455814,0.0148 0.611625,0.093 0.214943,0.10835 0.348468,0.32014 0.392904,0.62305 l 0.02925,0.19924 -0.160165,-0.0338 c -0.08807,-0.0186 -0.39276,-0.0309 -0.677025,-0.0273 -1.628601,0.0205 -2.567874,0.8877 -2.399559,2.21525 0.123705,0.97564 0.715958,1.53453 1.786013,1.68538 0.296605,0.0418 1.234449,0.0194 1.791952,-0.0429 z m -1.412613,-1.32157 c -0.478564,-0.0665 -0.634094,-0.20997 -0.634094,-0.58475 0,-0.2077 0.01497,-0.25072 0.126293,-0.362 0.176591,-0.17659 0.46746,-0.25232 0.96659,-0.25164 0.651911,7.7e-4 0.602375,-0.0506 0.602375,0.62447 v 0.57405 l -0.196404,5.1e-4 c -0.108008,0 -0.289431,0.007 -0.403131,0.0177 -0.113714,0.0104 -0.32144,9.7e-4 -0.461627,-0.0182 z m 6.60176,1.26968 c 0.390095,-0.10938 0.743951,-0.2547 0.74482,-0.3059 2.81e-4,-0.0183 -0.0674,-0.32331 -0.150547,-0.67776 l -0.151108,-0.64441 -0.412469,0.16192 c -0.360325,0.14145 -0.457599,0.16243 -0.769442,0.16605 -0.442894,0.004 -0.583178,-0.0575 -0.692649,-0.30899 -0.06932,-0.15926 -0.0785,-0.31941 -0.09028,-1.57279 l -0.01316,-1.39549 h 1.015542 1.015517 v -0.68223 -0.68224 H 22.20645 21.193432 v -0.84764 c 0,-0.78429 -0.0058,-0.84761 -0.07339,-0.84761 -0.07156,0 -1.178088,0.1851 -1.363427,0.22809 l -0.09299,0.0216 v 2.7641 c 0,2.94807 0.01525,3.21712 0.20749,3.66566 0.250448,0.58427 0.732045,0.94607 1.401218,1.05269 0.378055,0.0603 1.055543,0.0158 1.451017,-0.095 z m 4.876753,0.0148 c 0.19205,-0.048 0.454029,-0.13436 0.582173,-0.19189 l 0.233002,-0.1045 -0.110462,-0.65942 c -0.06074,-0.36266 -0.120395,-0.66933 -0.132545,-0.68148 -0.01212,-0.0118 -0.129545,0.0254 -0.260887,0.0835 -0.436145,0.19289 -0.70357,0.24375 -1.280674,0.24362 -0.455302,0 -0.572922,-0.0133 -0.769008,-0.0909 -0.379184,-0.14863 -0.595007,-0.42856 -0.714491,-0.92677 l -0.02723,-0.11367 h 1.79425 1.794241 l 0.02588,-0.12918 c 0.07445,-0.37219 -9.65e-4,-1.3107 -0.144341,-1.792 -0.265493,-0.89245 -0.872907,-1.47699 -1.721645,-1.65685 -1.178233,-0.24969 -2.37708,0.25908 -2.926809,1.24209 -0.329697,0.58955 -0.440626,1.0504 -0.439689,1.82669 8.21e-4,0.65908 0.08816,1.08977 0.317143,1.56363 0.373747,0.77341 0.970609,1.23744 1.840116,1.43062 0.476566,0.10584 1.429262,0.0845 1.941071,-0.0435 z m -2.437246,-3.82806 c 0,-0.12313 0.202361,-0.46055 0.363511,-0.60615 0.204361,-0.18462 0.414429,-0.25802 0.732209,-0.25582 0.288591,0.001 0.450688,0.0742 0.632975,0.28178 0.106323,0.12106 0.256002,0.47759 0.256002,0.60974 0,0.0186 -0.446555,0.0338 -0.992354,0.0338 -0.864083,0 -0.992343,-0.009 -0.992343,-0.0634 z m 13.334639,3.82529 c 0.18192,-0.0482 0.434406,-0.13392 0.561065,-0.19045 l 0.230288,-0.10288 -0.149331,-0.63689 c -0.08217,-0.35027 -0.161238,-0.64878 -0.175799,-0.66334 -0.01463,-0.0148 -0.181234,0.0334 -0.370396,0.10657 -0.63197,0.24437 -1.188497,0.2475 -1.402581,0.007 -0.168634,-0.18873 -0.202439,-0.50319 -0.202439,-1.88303 v -1.2267 h 1.033689 1.033691 v -0.68224 -0.68224 h -1.033691 -1.033689 v -0.84762 c 0,-0.78697 -0.0049,-0.84763 -0.07407,-0.84763 -0.06943,0 -1.156757,0.18276 -1.365097,0.22945 l -0.09531,0.0213 0.01545,2.90332 c 0.01681,3.16632 0.01555,3.14869 0.261804,3.63461 0.147785,0.29162 0.480245,0.63176 0.743325,0.76049 0.479644,0.23466 1.350679,0.27743 2.02306,0.0993 z m 4.92037,9.6e-4 c 0.204669,-0.0509 0.471312,-0.13895 0.592543,-0.19568 0.183871,-0.0862 0.216992,-0.11796 0.199804,-0.19169 -0.01138,-0.0486 -0.06229,-0.34894 -0.113122,-0.66732 -0.05089,-0.31838 -0.09799,-0.58565 -0.104638,-0.59395 -0.0068,-0.009 -0.147959,0.0406 -0.314005,0.10879 -0.451508,0.18522 -0.707422,0.23405 -1.232239,0.23518 -0.575404,9.7e-4 -0.878923,-0.0777 -1.114116,-0.29035 -0.178405,-0.16118 -0.3178,-0.42472 -0.358162,-0.67711 l -0.02684,-0.16765 h 1.782451 1.78244 l 0.02723,-0.1085 c 0.01497,-0.0597 0.01681,-0.38992 0.0038,-0.73391 -0.03737,-1.00764 -0.232807,-1.57931 -0.714596,-2.09004 -0.398534,-0.42245 -0.845677,-0.62953 -1.502984,-0.69601 l -0.304832,-0.0308 0.81866,-0.79964 0.818659,-0.79962 -0.518521,-0.51853 -0.51853,-0.51852 -0.831725,0.99835 c -0.457445,0.5491 -0.831724,1.01439 -0.831724,1.03398 0,0.0197 0.160426,0.18125 0.356492,0.35925 l 0.356502,0.32365 -0.287143,0.0483 c -1.006431,0.16958 -1.790339,1.03956 -2.021505,2.24346 -0.07637,0.3978 -0.07416,1.104 0.0049,1.55764 0.208909,1.19795 0.99386,1.999 2.190207,2.23515 0.435971,0.086 1.387547,0.0531 1.860645,-0.0644 z m -2.441892,-3.8767 c 0.04587,-0.19117 0.242937,-0.47589 0.426218,-0.61568 0.286892,-0.21882 0.743787,-0.26977 1.044004,-0.11648 0.226368,0.11559 0.493,0.5209 0.495268,0.75276 l 9.66e-4,0.0931 h -0.996834 -0.996823 l 0.02723,-0.11367 z m 10.145427,3.89905 c 0.265822,-0.0313 0.610263,-0.0792 0.765417,-0.10658 l 0.282111,-0.0497 -0.01709,-2.07294 c -0.01463,-1.77426 -0.02714,-2.11113 -0.08671,-2.33787 -0.202343,-0.76896 -0.759179,-1.30271 -1.486048,-1.42442 l -0.289876,-0.0485 0.377273,-0.33866 0.377281,-0.33864 -0.831628,-1.00453 c -0.457388,-0.55249 -0.838937,-1.013 -0.847878,-1.02338 -0.0087,-0.0103 -0.252759,0.21845 -0.541821,0.5085 -0.490577,0.49223 -0.520413,0.53118 -0.448206,0.58524 0.04259,0.0319 0.414978,0.39117 0.82762,0.79849 l 0.750248,0.74055 -0.496834,0.0259 c -0.506363,0.0263 -1.061066,0.12904 -1.373671,0.2544 -0.153878,0.0616 -0.171655,0.0825 -0.15411,0.17965 0.01094,0.0605 0.05533,0.35831 0.09877,0.66187 0.04346,0.30357 0.08709,0.56009 0.09706,0.57005 0.0099,0.0103 0.110993,-0.0185 0.224522,-0.0633 0.33609,-0.13244 0.806031,-0.2111 1.26168,-0.2111 0.360722,0 0.455815,0.0148 0.611616,0.093 0.214943,0.10835 0.348477,0.32014 0.392914,0.62305 l 0.02925,0.19924 -0.160175,-0.0338 c -0.08807,-0.0186 -0.39275,-0.0309 -0.677015,-0.0273 -1.626688,0.0205 -2.547721,0.86986 -2.397357,2.21068 0.107269,0.95654 0.723837,1.5407 1.783608,1.68989 0.325332,0.0458 1.28641,0.016 1.92907,-0.0597 z m -1.549517,-1.30447 c -0.478718,-0.0668 -0.634103,-0.21016 -0.634103,-0.58491 0,-0.20768 0.01506,-0.25071 0.126292,-0.36199 0.17659,-0.17659 0.467469,-0.25231 0.966591,-0.25163 0.651919,7.6e-4 0.602373,-0.0506 0.602373,0.62445 v 0.57405 h -0.159314 c -0.08758,0 -0.269048,0.007 -0.403151,0.0179 -0.134097,0.0104 -0.35851,10e-4 -0.498687,-0.0177 z m 18.467606,1.26932 c 0.647787,-0.23018 1.189984,-0.72252 1.507002,-1.36843 0.244154,-0.49745 0.312035,-0.77107 0.341738,-1.37742 0.05243,-1.06995 -0.230511,-1.90574 -0.857227,-2.53246 -0.506885,-0.50688 -1.047083,-0.74012 -1.797688,-0.77617 -0.37477,-0.018 -0.51543,-0.007 -0.792404,0.0633 -1.060198,0.26811 -1.738082,0.96315 -2.044535,2.09629 -0.126189,0.46659 -0.128436,1.42807 -0.0049,1.88362 0.293285,1.07722 0.983374,1.80225 1.96861,2.06829 0.447635,0.12091 1.255559,0.0934 1.678908,-0.0569 z M 66.6989,266.1363 c -0.54409,-0.19383 -0.827505,-0.75331 -0.827505,-1.63357 0,-0.78407 0.219521,-1.29428 0.671086,-1.55972 0.173114,-0.1017 0.235443,-0.11471 0.546832,-0.11323 0.277622,9.6e-4 0.387024,0.0202 0.52076,0.0906 0.317211,0.16677 0.547944,0.50773 0.657221,0.97122 0.07088,0.30043 0.08072,0.83436 0.02124,1.14788 -0.09834,0.51849 -0.418251,0.96718 -0.780624,1.09482 -0.222929,0.0785 -0.591714,0.0795 -0.809032,10e-4 z m 12.918762,1.34266 c 0.170564,-0.048 0.418446,-0.1357 0.550859,-0.19494 0.203115,-0.0909 0.237171,-0.12106 0.217898,-0.19371 -0.01256,-0.0473 -0.08208,-0.34796 -0.154555,-0.66809 l -0.131702,-0.58205 -0.416824,0.16163 c -0.360517,0.13984 -0.46432,0.16225 -0.768429,0.16607 -0.428042,0.006 -0.568519,-0.0522 -0.682383,-0.27999 -0.07706,-0.15409 -0.08353,-0.26213 -0.09502,-1.58155 l -0.01242,-1.41615 h 1.015035 1.015036 v -0.68225 -0.68223 h -1.013018 -1.013016 v -0.85933 -0.8593 l -0.754592,0.12741 -0.754602,0.12742 v 2.95435 c 0,2.75044 0.0049,2.97147 0.07599,3.20243 0.221702,0.72345 0.669695,1.16744 1.309129,1.29745 0.393958,0.0801 0.424693,0.0825 0.868292,0.0661 0.270804,-0.0104 0.55083,-0.0489 0.74426,-0.10333 z m 8.708615,0.0616 c 0.611325,-0.1051 1.148241,-0.31158 1.11514,-0.42872 -0.01035,-0.0365 -0.05987,-0.32681 -0.110211,-0.64518 -0.0503,-0.31838 -0.104091,-0.59326 -0.119537,-0.61083 -0.01545,-0.0176 -0.132191,0.0148 -0.259457,0.0704 -0.422328,0.18676 -0.719213,0.2445 -1.271752,0.24731 -0.618751,0.003 -0.872648,-0.0671 -1.142611,-0.31593 -0.16679,-0.15371 -0.284709,-0.38324 -0.361562,-0.70371 l -0.02723,-0.11367 h 1.797533 1.797543 l 0.02839,-0.15147 c 0.04934,-0.26286 -0.01463,-1.24978 -0.104623,-1.61533 -0.239654,-0.97327 -0.872841,-1.62102 -1.770535,-1.81126 -0.153396,-0.0325 -0.357989,-0.0594 -0.454636,-0.0597 -0.157124,-5.1e-4 -0.23837,-0.0543 -0.137142,-0.0903 0.02124,-0.007 0.385498,-0.35645 0.809496,-0.77528 l 0.770929,-0.7615 -0.518453,-0.51844 c -0.285143,-0.28517 -0.525357,-0.50998 -0.533806,-0.49962 -0.0087,0.0104 -0.381308,0.46077 -0.828577,1.00087 -0.447268,0.54011 -0.813223,0.99889 -0.813223,1.01948 0,0.0205 0.159915,0.18262 0.355354,0.36006 l 0.355351,0.3226 -0.31497,0.0532 c -0.896209,0.15138 -1.650529,0.9229 -1.952446,1.99696 -0.06025,0.21451 -0.07561,0.41898 -0.07599,1.01302 -5.12e-4,0.65505 0.01094,0.78368 0.09472,1.07318 0.229284,0.79194 0.684741,1.35213 1.375399,1.69172 0.263911,0.12978 0.496969,0.21057 0.720797,0.24992 0.445491,0.0783 1.128725,0.0794 1.576138,0.003 z m -2.133921,-3.87521 c 5.12e-4,-0.0284 0.04374,-0.14486 0.0968,-0.25873 0.106411,-0.22849 0.334071,-0.45125 0.561335,-0.54922 0.196762,-0.0849 0.649043,-0.0844 0.809294,5e-4 0.245168,0.13023 0.441638,0.40896 0.497229,0.70528 l 0.02878,0.15363 h -0.996949 c -0.770206,0 -0.996853,-0.0118 -0.996533,-0.0516 z m 7.76515,3.83703 c 0.265822,-0.0313 0.610119,-0.0792 0.765098,-0.10658 l 0.281802,-0.0497 -0.01632,-2.09369 c -0.01434,-1.84478 -0.02491,-2.12318 -0.08893,-2.34176 -0.23076,-0.78749 -0.767318,-1.27473 -1.599294,-1.45227 -0.584403,-0.12475 -1.813339,-0.0164 -2.376713,0.20949 l -0.168488,0.0675 0.09637,0.66711 c 0.05301,0.36692 0.10316,0.67389 0.111423,0.68217 0.0077,0.009 0.105835,-0.0207 0.216817,-0.0642 0.546659,-0.21479 1.526816,-0.28563 1.859777,-0.13437 0.09318,0.0423 0.210366,0.13437 0.260336,0.20458 0.08709,0.12239 0.207925,0.56052 0.166065,0.60239 -0.01109,0.0118 -0.149688,9.6e-4 -0.308018,-0.0225 -0.328837,-0.0488 -0.858125,-0.0207 -1.279022,0.068 -0.666258,0.14028 -1.229206,0.53935 -1.480043,1.04911 -0.131067,0.26634 -0.133683,0.28279 -0.132146,0.83065 9.65e-4,0.48607 0.01375,0.58834 0.09578,0.78458 0.272918,0.65334 0.840067,1.04184 1.698143,1.1632 0.297629,0.0421 1.279678,0.009 1.897308,-0.0636 z m -1.555804,-1.30515 c -0.457175,-0.0636 -0.626059,-0.22158 -0.627209,-0.5871 -5.11e-4,-0.15948 0.02269,-0.22148 0.127328,-0.34067 0.172959,-0.19699 0.436637,-0.27079 0.964939,-0.27008 0.651919,7.7e-4 0.602373,-0.0506 0.602373,0.62447 v 0.57405 h -0.159324 c -0.08767,0 -0.269037,0.007 -0.40314,0.0179 -0.134097,0.0103 -0.36133,9.7e-4 -0.504974,-0.0185 z m 5.759311,1.31345 c 0.01153,-0.0511 0.06459,-0.35635 0.117734,-0.67818 l 0.09657,-0.58514 -0.256619,-0.0275 c -0.318005,-0.0341 -0.523968,-0.13318 -0.561153,-0.27005 -0.01545,-0.0569 -0.02993,-1.68028 -0.03215,-3.60759 -0.003,-2.77363 -0.01487,-3.50422 -0.05582,-3.5042 -0.02839,2e-5 -0.367993,0.0559 -0.754592,0.12401 -0.386609,0.0681 -0.708155,0.12402 -0.714548,0.12402 -0.0068,0 -0.0058,1.62343 5.11e-4,3.6076 0.01109,3.27879 0.01864,3.62661 0.08304,3.8162 0.24566,0.72288 0.795313,1.03705 1.901561,1.08689 0.128998,0.006 0.157732,-0.009 0.175421,-0.0862 z m -88.2969082,-1.348 v -1.31667 l 0.6512242,-0.027 c 1.056731,-0.0441 1.608131,-0.15785 2.166569,-0.44707 0.789567,-0.40891 1.206699,-1.14276 1.206699,-2.12293 0,-0.73584 -0.190679,-1.23139 -0.653755,-1.69904 -0.651378,-0.65781 -1.642553,-0.92868 -3.184674,-0.87026 -0.6521322,0.0247 -1.317019,0.10037 -1.612562,0.18351 l -0.1240459,0.0349 -0.010495,3.7907 -0.010495,3.79067 h 0.7858196 0.78583 z m 0.00961,-3.89767 0.010938,-1.13254 0.4548292,-0.0118 c 0.934573,-0.0254 1.510807,0.14412 1.776205,0.52263 0.120439,0.17181 0.12579,0.19757 0.12579,0.60638 0,0.40896 -0.0049,0.4345 -0.125879,0.60617 -0.252671,0.35975 -0.634316,0.48495 -1.580399,0.51848 l -0.6725735,0.0238 z m 21.2430572,2.92251 v -2.29183 l 0.22768,-0.0285 c 0.125228,-0.0157 0.409437,-0.0211 0.631565,-0.0118 0.460651,0.0185 0.635049,0.0911 0.768689,0.31989 0.185117,0.31697 0.202139,0.50555 0.221549,2.4541 l 0.01845,1.85033 h 0.76475 0.764759 l -0.01883,-1.97436 c -0.02086,-2.19018 -0.03679,-2.34797 -0.291082,-2.88253 -0.1853,-0.38958 -0.492294,-0.71789 -0.84337,-0.90193 -0.470076,-0.24645 -0.719752,-0.29393 -1.520559,-0.28923 -0.698364,0.004 -1.180346,0.0633 -1.960333,0.24067 l -0.29311,0.0667 v 2.87034 2.87035 h 0.764933 0.764925 z m 25.85845,1.90935 c 0.01315,-0.21036 0.0532,-1.04187 0.08892,-1.8478 0.03583,-0.80594 0.08198,-1.65254 0.102657,-1.88134 0.02066,-0.22878 0.03814,-0.46155 0.03892,-0.51727 7.63e-4,-0.0622 0.01593,-0.0862 0.03911,-0.0619 0.05128,0.0534 0.528061,1.07755 1.16364,2.49948 l 0.526738,1.17841 0.595741,0.0118 0.595731,0.0118 0.09784,-0.23879 c 0.154692,-0.37767 1.040789,-2.3328 1.335665,-2.9471 0.222669,-0.4639 0.271952,-0.54072 0.291721,-0.45481 0.04625,0.20124 0.232739,3.70383 0.233838,4.39318 l 5.13e-4,0.23776 h 0.789914 0.789914 l -0.02384,-0.32045 c -0.01316,-0.17624 -0.03379,-0.51581 -0.04597,-0.75459 -0.09329,-1.8338 -0.411406,-5.98928 -0.499305,-6.52261 l -0.02211,-0.13436 h -0.651644 -0.651687 l -0.278867,0.48584 c -0.340656,0.59349 -1.084143,2.10304 -1.578331,3.20461 -0.201531,0.44924 -0.379831,0.80277 -0.396226,0.78562 -0.01642,-0.0172 -0.219009,-0.44983 -0.450264,-0.96152 -0.500588,-1.10757 -1.230973,-2.5771 -1.551931,-3.12246 l -0.23076,-0.39209 h -0.653368 -0.653366 l -0.02356,0.21708 c -0.250855,2.31531 -0.40989,4.45035 -0.509744,6.84304 l -0.028,0.6719 h 0.767174 0.767185 l 0.02384,-0.38247 z m 15.241151,-1.90693 v -2.28939 l 0.155058,-0.0256 c 0.258222,-0.0427 0.981123,-0.0297 1.130889,0.0204 0.07735,0.0257 0.193246,0.0956 0.257642,0.15505 0.283956,0.26209 0.317057,0.54034 0.317057,2.66468 v 1.76423 h 0.764934 0.764933 v -1.89656 c 0,-2.42082 -0.04171,-2.70292 -0.490402,-3.31381 -0.677933,-0.92307 -1.924289,-1.08051 -4.336942,-0.54786 l -0.09308,0.0206 v 2.86884 2.86884 h 0.764934 0.764933 z m 10.130191,-0.003 v -2.29228 l 0.196404,-0.0335 c 0.325447,-0.0556 0.874653,-0.0236 1.230084,0.0714 0.18194,0.0486 0.357989,0.0915 0.391246,0.0951 0.04625,0.004 0.09154,-0.15363 0.192831,-0.67559 0.07281,-0.37523 0.12783,-0.68685 0.122272,-0.69248 -0.03747,-0.0378 -0.69681,-0.17653 -1.027241,-0.21599 -0.630685,-0.0754 -1.442885,0.0228 -2.273664,0.27438 l -0.361792,0.10968 v 2.82579 2.8258 h 0.764934 0.764933 z M 42.62404,254.50608 c 0.148347,-0.14633 0.249406,-0.30826 0.398863,-0.63891 0.426682,-0.94407 1.083322,-1.89856 1.838745,-2.67282 0.511732,-0.52448 0.906945,-0.83867 1.500291,-1.19276 0.258899,-0.1545 0.37506,-0.24441 0.327591,-0.25355 -0.04046,-0.007 -0.105347,0.0148 -0.144237,0.0498 -0.127387,0.11529 -0.922724,0.42972 -1.628572,0.64388 -0.798054,0.24213 -1.466166,0.52323 -2.426287,1.02082 -1.062621,0.55071 -1.320206,0.7418 -1.859766,1.37965 -0.373643,0.44171 -0.866382,1.05497 -1.1351,1.41275 l -0.113891,0.15164 0.222786,0.0463 c 0.222214,0.0461 0.224059,0.0457 0.715552,-0.18208 0.681409,-0.31576 0.699814,-0.31446 1.436609,0.10081 0.32232,0.1817 0.604633,0.33038 0.627373,0.33043 0.02279,4e-5 0.130757,-0.0881 0.24004,-0.19598 z m 3.842803,-0.13406 c 0.725109,-0.41535 0.821004,-0.42646 1.254582,-0.1456 0.15722,0.10184 0.304465,0.1854 0.327205,0.18568 0.02279,2.5e-4 0.08488,-0.14352 0.138088,-0.31956 0.477,-1.57812 1.24681,-2.8363 2.441023,-3.98965 l 0.460236,-0.4445 h -0.662145 -0.662146 l -0.741979,0.37142 c -0.764915,0.38291 -1.942318,1.04416 -2.378895,1.33602 -0.694012,0.46396 -1.123058,0.91411 -1.731612,1.8168 -0.374346,0.55528 -0.705008,1.16612 -0.674407,1.24588 0.0281,0.0732 0.546898,0.2022 0.938172,0.23328 0.728182,0.0578 0.657202,0.0738 1.291875,-0.28976 z m 28.701424,0.29663 c 0.05281,-0.0854 -1.002617,-1.58927 -1.484958,-2.11593 -0.9458,-1.03272 -1.716287,-1.55204 -3.934477,-2.65188 -1.240241,-0.61495 -1.2493,-0.61862 -1.499218,-0.60631 l -0.251435,0.0118 0.496988,0.36738 c 1.047086,0.77403 1.746551,1.71461 2.685031,3.6106 l 0.307632,0.6215 0.250557,-0.0191 c 0.239925,-0.0183 0.274522,-0.007 0.814748,0.24972 0.562533,0.26796 0.565566,0.26883 1.033693,0.29878 0.279301,0.0179 0.653762,0.0763 0.924335,0.14411 0.493066,0.12358 0.624544,0.14132 0.657104,0.0887 z m -23.258191,-0.09 0.480061,-7e-5 v -0.4064 c 0,-0.38147 0.0068,-0.41569 0.115843,-0.55817 0.06374,-0.0834 0.169782,-0.17966 0.235694,-0.21375 0.156979,-0.0811 0.639356,-0.0807 0.870494,7.5e-4 0.09793,0.0346 0.190079,0.0485 0.204765,0.031 0.01463,-0.0174 0.05051,-0.1802 0.07946,-0.36156 0.137616,-0.85981 0.652654,-1.92073 1.524104,-3.13957 l 0.263291,-0.36823 -0.406403,0.0269 c -0.22353,0.0148 -0.742667,0.0271 -1.153659,0.0272 l -0.747234,1e-4 -0.513866,0.3356 c -1.079297,0.70488 -1.777961,1.39986 -2.48852,2.47543 -0.328113,0.49666 -0.589329,1.01901 -0.771549,1.54283 l -0.126558,0.36379 0.427705,-0.22941 c 0.66537,-0.3569 0.857545,-0.30969 1.062564,0.26105 l 0.09453,0.26305 0.184614,-0.0253 c 0.101534,-0.0133 0.40063,-0.0254 0.664665,-0.0254 z m 10.738676,-0.17183 0.417867,-0.0483 0.326405,-0.65909 c 0.179513,-0.3625 0.375349,-0.70062 0.435196,-0.75138 0.06692,-0.0568 0.245998,-0.12239 0.465162,-0.17043 0.275613,-0.0605 0.356346,-0.094 0.356346,-0.14782 0,-0.1351 -0.24677,-0.82247 -0.446301,-1.24316 -0.271954,-0.57334 -0.510671,-0.96693 -0.945918,-1.55962 l -0.365057,-0.49707 -0.289431,-9.6e-4 c -0.15919,-5.2e-4 -0.526727,0.0118 -0.816748,0.0259 l -0.527298,0.0269 -0.04037,0.14994 c -0.164645,0.61147 -0.396767,2.60417 -0.519023,4.45581 l -0.0278,0.42173 0.262731,0.0148 c 0.61959,0.0349 1.325574,0.0278 1.714289,-0.0172 z m -3.191008,-0.56202 c 0.107816,-1.73017 0.374007,-4.21647 0.467652,-4.36799 0.0225,-0.0364 -1.108504,-0.0133 -2.123675,0.0426 l -0.459781,0.0256 -0.325816,0.41558 c -0.792619,1.01099 -1.47394,2.13471 -1.714511,2.82781 -0.06653,0.19173 -0.203193,0.74334 -0.203193,0.82025 0,0.0562 1.017123,-0.36195 1.466958,-0.60295 0.386505,-0.20706 0.579385,-0.2875 0.689415,-0.2875 0.16866,0 1.484899,0.5393 1.628638,0.66731 0.04644,0.0414 0.109767,0.1453 0.140778,0.23111 0.128835,0.35644 0.292019,0.6728 0.34703,0.6728 0.04548,0 0.06508,-0.10066 0.08652,-0.44449 z m 19.702802,0.40802 c 0.09676,-0.027 0.08545,-0.0452 -0.260918,-0.4197 -0.634354,-0.68587 -1.619234,-1.54833 -2.197042,-1.92392 -0.51938,-0.33763 -1.112185,-0.61603 -2.292812,-1.07682 -0.601542,-0.23477 -1.099168,-0.42141 -1.105811,-0.41478 -0.0068,0.007 0.147164,0.14879 0.341804,0.31588 0.825564,0.70871 1.660823,1.67762 2.309672,2.67923 l 0.275882,0.42588 0.147224,-0.0909 c 0.140571,-0.0869 0.175392,-0.0897 0.77315,-0.0636 1.020442,0.0445 1.002752,0.0402 1.375592,0.33899 0.325545,0.26093 0.410972,0.29194 0.633264,0.22989 z m 2.876587,-0.36668 c -0.01642,-0.19897 -0.03255,-0.36305 -0.03592,-0.3646 -0.003,-10e-4 -0.220119,-0.15281 -0.481644,-0.33613 -1.250238,-0.87646 -2.069187,-1.34545 -3.390503,-1.94164 -0.306474,-0.13821 -0.308414,-0.13851 -0.165389,-0.0254 0.552713,0.43715 1.781021,1.6247 2.608208,2.52166 l 0.389495,0.42236 0.434156,0.037 c 0.238775,0.0204 0.487516,0.0396 0.552742,0.0427 l 0.118591,0.006 z m -12.560977,0.0219 c 0.132131,-0.11811 0.210356,-0.15623 0.320447,-0.15623 0.08006,0 0.145626,-0.0118 0.145626,-0.0254 0,-0.0455 -0.568075,-1.05971 -0.835172,-1.49102 -0.336735,-0.54376 -0.650259,-0.93862 -0.929713,-1.1709 -0.390009,-0.32417 -1.188653,-0.87459 -1.936978,-1.33497 l -0.724512,-0.44572 -0.511761,0.0118 -0.511762,0.0118 0.261911,0.39142 c 0.499344,0.74624 0.935334,1.72589 1.134441,2.549 l 0.09116,0.37685 0.296278,0.027 c 1.091424,0.0998 1.197072,0.14205 1.321846,0.52835 l 0.07126,0.22071 0.704023,0.32858 c 0.387218,0.18072 0.72434,0.35304 0.749186,0.38297 0.05128,0.0616 0.06615,0.0531 0.353691,-0.20386 z m -32.315899,-0.11485 c 0.601987,-0.27654 0.820717,-0.31225 1.024315,-0.16727 l 0.113492,0.0808 0.202999,-0.27691 c 0.434271,-0.59241 1.305383,-1.61851 1.682827,-1.98224 0.40322,-0.38857 0.844769,-0.70191 1.38466,-0.98261 0.165513,-0.086 0.293872,-0.1635 0.285259,-0.17213 -0.0252,-0.0251 -2.454454,0.82611 -2.839644,0.99516 -0.582106,0.25548 -1.408983,0.69822 -1.864971,0.99855 -0.298594,0.19666 -0.609722,0.4592 -1.019034,0.85986 -0.324056,0.31721 -0.58897,0.58786 -0.58869,0.60143 0.0019,0.0736 0.334911,0.2321 0.537012,0.25523 0.484096,0.0554 0.518859,0.0486 1.081778,-0.20987 z m -2.09409,-1.40848 c 0.489581,-0.49319 1.009502,-0.94962 1.292251,-1.13446 0.09711,-0.0636 0.169636,-0.12239 0.161168,-0.13082 -0.03786,-0.0378 -1.914873,0.63647 -2.336505,0.83941 l -0.468887,0.2257 0.427541,0.32618 c 0.235153,0.1794 0.437177,0.32736 0.448928,0.32883 0.01183,9.6e-4 0.225731,-0.20323 0.475504,-0.45484 z m -2.895002,-0.69282 c -0.01497,-0.0155 -1.054413,0.40808 -1.054413,0.42972 0,0.007 0.06711,0.0603 0.149099,0.11604 l 0.149109,0.10125 0.384476,-0.3169 c 0.211457,-0.1743 0.378739,-0.32287 0.371729,-0.33014 z m -9.067492,-1.79574 c 0.988498,-1.11999 2.175208,-2.49223 2.637137,-3.04938 l 0.839874,-1.01302 -0.677992,0.66432 c -1.236401,1.2115 -2.668421,2.36827 -4.68871,3.78748 -0.574845,0.40381 -1.548794,1.0581 -1.706177,1.14617 -0.08159,0.0457 -0.04191,0.1048 0.197882,0.29478 l 0.15357,0.12166 0.235279,-0.2059 c 0.204785,-0.17919 0.258551,-0.20589 0.414766,-0.20589 0.161401,0 0.207093,0.025 0.453246,0.2481 0.150566,0.13643 0.289527,0.24807 0.308811,0.24807 0.01921,0 0.843823,-0.91636 1.832314,-2.03638 z m 2.152836,0.85401 c 0.58425,-0.19245 0.614078,-0.20769 0.689182,-0.3518 0.377513,-0.72427 3.056346,-5.29291 3.505082,-5.97774 0.119626,-0.1826 0.01854,-0.0953 -0.139463,0.12046 -0.362198,0.49447 -3.335511,4.03661 -4.432922,5.28098 -0.650953,0.73811 -1.215273,1.38191 -1.254051,1.43065 -0.06142,0.0772 2.8e-4,0.0633 0.475503,-0.10642 0.300302,-0.10717 0.820803,-0.28552 1.156669,-0.39616 z m 4.950594,-1.23394 c 0.488934,-0.0783 0.982012,-0.15503 1.09571,-0.17052 0.113714,-0.0155 0.234653,-0.0517 0.268767,-0.0806 0.118355,-0.0998 2.919499,-1.27436 3.762638,-1.57766 1.051573,-0.37831 1.666695,-0.56909 3.249322,-1.00786 l 1.243952,-0.34487 -0.03128,-0.16783 c -0.209151,-1.12052 -0.45145,-3.27899 -0.478342,-4.26126 -0.02018,-0.73675 -0.0068,-1.00059 0.125465,-2.41884 0.124962,-1.34304 0.180462,-1.75995 0.355006,-2.66692 0.311271,-1.61743 0.60328,-2.70029 0.98118,-3.6386 0.135294,-0.33592 0.512167,-1.0437 1.166886,-2.19144 0.531866,-0.93238 0.998591,-1.73246 1.037168,-1.77795 0.130904,-0.15437 0.532878,-0.75907 0.623624,-0.93815 0.04964,-0.098 0.141473,-0.24335 0.204005,-0.32295 0.06257,-0.0795 0.165349,-0.23776 0.228481,-0.35145 0.06315,-0.11367 0.162995,-0.27877 0.221925,-0.36682 0.0589,-0.0881 0.135043,-0.20852 0.169155,-0.26772 0.382477,-0.66393 1.725991,-2.47212 3.380276,-4.5494 0.551545,-0.69256 0.997771,-1.26423 0.99162,-1.27038 -0.0058,-0.006 -1.573358,-0.0149 -3.482679,-0.0197 l -3.471489,-0.009 -0.256203,0.88442 c -0.140912,0.48644 -0.655434,2.00082 -1.143384,3.36529 -0.487959,1.36447 -1.307092,3.72942 -1.820293,5.25541 l -0.933103,2.77456 -0.545104,1.13281 c -0.299802,0.62303 -0.54578,1.15605 -0.546619,1.18448 -7.63e-4,0.0284 -0.01815,0.0517 -0.03843,0.0517 -0.02028,0 -0.0254,0.0186 -0.01138,0.0414 0.01404,0.0228 0.0049,0.0414 -0.02066,0.0414 -0.02539,0 -0.03477,0.0186 -0.02067,0.0414 0.01404,0.0228 0.0087,0.0414 -0.01138,0.0414 -0.02028,0 -0.03709,0.0232 -0.03737,0.0516 -9.65e-4,0.11884 -1.627268,3.34093 -2.94785,5.84035 -1.547411,2.92875 -1.907805,3.57456 -3.418185,6.12502 -0.553969,0.93546 -1.007204,1.71374 -1.007204,1.72956 0,0.0158 0.05117,0.018 0.113698,0.004 0.06257,-0.0133 0.513751,-0.0879 1.002686,-0.16621 z m 8.445266,-16.88198 c -0.139892,-0.0133 -0.175723,-0.0319 -0.175723,-0.0948 0,-0.0435 -0.04307,-0.10288 -0.09578,-0.132 l -0.09578,-0.0531 1.431191,-3.65928 1.431202,-3.65928 2.075801,-0.0104 c 1.141694,-0.006 2.075811,-2.8e-4 2.075811,0.0118 0,0.0133 -0.06981,0.12727 -0.155057,0.2545 -0.08526,0.12727 -0.207922,0.32644 -0.272551,0.44252 -0.06459,0.11603 -0.250681,0.42152 -0.413474,0.67877 -0.162791,0.25728 -0.384889,0.6201 -0.493559,0.8063 -0.108659,0.18619 -0.278355,0.45945 -0.377088,0.60727 -0.09873,0.14781 -0.259014,0.40831 -0.356193,0.57887 -0.09717,0.17056 -0.236081,0.38454 -0.308675,0.4755 -0.07262,0.0909 -0.142463,0.20669 -0.155279,0.25719 -0.01286,0.0506 -0.494999,0.86434 -1.071524,1.80859 l -1.048221,1.71679 -0.909648,-0.007 c -0.50031,-0.004 -0.988723,-0.0133 -1.085382,-0.0228 z m 6.721436,-9.61308 c 0.09135,-0.16543 0.303768,-0.54266 0.472074,-0.8383 l 0.30602,-0.53751 0.731291,-0.0118 c 0.402214,-0.006 0.731293,-0.003 0.731293,0.007 0,0.0103 -0.219135,0.38734 -0.486964,0.83824 l -0.486964,0.81984 -0.716404,0.0118 -0.716401,0.0118 z m -3.781091,0.19074 c -0.03004,-0.0133 0.07995,-0.30735 0.303521,-0.81385 0.192811,-0.43673 0.353921,-0.79755 0.358027,-0.80184 0.0038,-0.004 0.336,0.004 0.737539,0.0207 l 0.730066,0.0285 -0.360645,0.78562 -0.360644,0.7856 -0.680423,0.007 c -0.37422,0.004 -0.70158,-9.6e-4 -0.727439,-0.0118 z m 2.056809,-0.43885 c 0.114379,-0.25638 0.274027,-0.61965 0.354764,-0.80726 l 0.146809,-0.34112 h 0.762277 0.762279 l -0.22742,0.42381 c -0.12508,0.23311 -0.318312,0.59127 -0.429396,0.79595 l -0.201975,0.37213 -0.687648,0.0118 -0.687645,0.0118 z m -6.947631,26.22489 c 4.641609,-0.3467 8.354673,-0.49641 14.365125,-0.57917 4.326772,-0.0596 6.066717,-0.10672 8.64167,-0.23413 1.911955,-0.0946 2.702904,-0.11175 6.202154,-0.13392 l 4.010728,-0.0254 -0.909658,-0.25601 c -5.507768,-1.55003 -8.743686,-2.23009 -11.97015,-2.51563 -1.567044,-0.13865 -5.2396,-0.0204 -7.194498,0.23182 -1.890637,0.24386 -3.555293,0.58752 -7.21517,1.48951 -3.396557,0.8371 -5.688432,1.49316 -7.111813,2.03579 -0.164713,0.0628 -0.164868,0.0631 -0.03814,0.0659 0.07001,0.001 0.618875,-0.0338 1.219752,-0.0786 z m -0.708967,-15.0746 c 0.491687,-1.02199 0.511259,-1.07409 1.451935,-3.86599 0.524448,-1.55653 1.345668,-3.92785 1.824937,-5.26959 0.834997,-2.33759 1.270958,-3.67632 1.215349,-3.73194 -0.01434,-0.0148 -0.188399,-0.0339 -0.386879,-0.0433 l -0.360867,-0.0173 -0.157972,0.69713 c -0.56122,2.47659 -1.386466,5.52647 -1.833271,6.77527 -0.51966,1.45241 -1.481567,3.56903 -2.487362,5.47331 -0.208667,0.39509 -0.379395,0.72536 -0.379395,0.73391 0,0.009 0.04182,0.0157 0.09299,0.0157 0.05117,5e-5 0.176754,0.0729 0.279089,0.16185 0.102347,0.089 0.198876,0.14938 0.214538,0.13421 0.01564,-0.0151 0.252748,-0.49365 0.526864,-1.06342 z"
       id="path8614"
       inkscape:connector-curvature="0" />
    <path
       style="fill:#ffffff;stroke-width:0.02043062"
       d="m 71.08438,293.45427 c -0.09766,-0.007 -0.21753,-0.0237 -0.266364,-0.0355 -0.04884,-0.0118 -0.173692,-0.0266 -0.277463,-0.033 -0.232405,-0.0142 -0.427901,-0.0794 -0.464843,-0.15498 -0.01344,-0.0275 -0.05965,-0.0825 -0.102692,-0.12234 -0.08758,-0.081 -0.209358,-0.26314 -0.209358,-0.31314 0,-0.018 -0.01472,-0.0431 -0.03271,-0.0556 -0.01799,-0.0127 -0.0391,-0.0518 -0.04689,-0.0871 -0.0079,-0.0353 -0.03138,-0.083 -0.0524,-0.1062 -0.02101,-0.0232 -0.06139,-0.1028 -0.08972,-0.1769 -0.04638,-0.12134 -0.04895,-0.14558 -0.02577,-0.24334 0.01416,-0.0598 0.04567,-0.12657 0.07002,-0.14854 0.05064,-0.0457 0.0547,-0.0709 0.01914,-0.11915 -0.02032,-0.0275 -0.01109,-0.0591 0.04804,-0.16406 0.119802,-0.21267 0.209982,-0.31786 0.325353,-0.37955 0.05873,-0.0314 0.130241,-0.063 0.158905,-0.0704 0.06499,-0.0166 0.244118,0.0368 0.297488,0.0885 0.05685,0.0552 0.05362,0.2646 -0.0055,0.35811 -0.08293,0.1311 -0.03348,0.30286 0.112565,0.39094 0.06184,0.0373 0.086,0.0404 0.227817,0.0292 0.08726,-0.006 0.226113,-0.0294 0.308576,-0.0503 0.121717,-0.0307 0.156349,-0.0484 0.184007,-0.0936 0.01874,-0.0307 0.06391,-0.0916 0.100385,-0.13555 0.03647,-0.0439 0.102437,-0.12629 0.146594,-0.18319 0.04415,-0.0569 0.09891,-0.12634 0.121683,-0.15438 0.02277,-0.0279 0.04141,-0.0586 0.04141,-0.0679 0,-0.01 0.0186,-0.0372 0.04134,-0.0619 0.02274,-0.0247 0.04886,-0.066 0.05804,-0.0918 0.0091,-0.0258 0.03669,-0.0656 0.06113,-0.0881 0.02509,-0.0232 0.04943,-0.0789 0.05594,-0.12776 0.0098,-0.0735 0.02208,-0.0913 0.08066,-0.11688 0.113504,-0.0498 0.191227,-0.12267 0.191227,-0.17956 0,-0.0299 -0.01218,-0.0518 -0.02868,-0.0518 -0.03711,0 -0.225131,0.14722 -0.258186,0.20216 -0.014,0.0233 -0.03864,0.0423 -0.05477,0.0423 -0.01612,0 -0.03857,0.0275 -0.04991,0.0611 -0.01412,0.0419 -0.03608,0.0629 -0.0698,0.0671 -0.06705,0.009 -0.06299,-0.0258 0.01853,-0.15525 0.08838,-0.14031 0.257458,-0.3154 0.329955,-0.34168 0.03154,-0.0115 0.104893,-0.0517 0.162986,-0.0893 0.0581,-0.0376 0.119177,-0.0686 0.135737,-0.0686 0.01656,0 0.05642,-0.0175 0.08857,-0.0389 0.03216,-0.0215 0.08094,-0.0374 0.10843,-0.0355 0.07979,0.005 0.09573,9.6e-4 0.149311,-0.038 0.02785,-0.0204 0.08682,-0.042 0.131029,-0.0479 0.04421,-0.005 0.130328,-0.0264 0.19137,-0.0457 0.06104,-0.0193 0.154485,-0.0403 0.207653,-0.0467 0.05316,-0.006 0.126338,-0.0247 0.162602,-0.0405 0.03627,-0.0158 0.117625,-0.0367 0.180797,-0.0464 0.06318,-0.01 0.169475,-0.0302 0.236231,-0.0458 0.132068,-0.0308 0.381438,-0.036 0.522341,-0.0108 0.185961,0.0333 0.36069,0.0781 0.444259,0.11428 0.04772,0.0205 0.09998,0.0374 0.11614,0.0374 0.01617,0 0.05352,0.0134 0.08305,0.0298 0.04918,0.0273 0.05885,0.0271 0.115755,-0.002 0.03414,-0.0174 0.0911,-0.0709 0.126576,-0.11911 0.146994,-0.19955 0.21351,-0.27927 0.288866,-0.34615 0.04372,-0.0388 0.07948,-0.0773 0.07948,-0.0857 0,-0.0213 0.146138,-0.15407 0.169472,-0.1541 0.01052,-2e-5 0.07414,-0.0334 0.141287,-0.0741 0.261042,-0.15838 0.312201,-0.17036 0.854585,-0.2001 0.268583,-0.0148 0.536167,-0.0321 0.594629,-0.0386 0.07366,-0.009 0.131585,-0.003 0.188675,0.0175 0.04531,0.0162 0.126175,0.0345 0.179706,0.0407 0.05353,0.006 0.122301,0.0281 0.152823,0.0484 0.03052,0.0204 0.06791,0.037 0.08308,0.037 0.01517,0 0.03996,0.0126 0.05509,0.028 0.01513,0.0154 0.06879,0.0374 0.119252,0.0488 0.05046,0.0114 0.107993,0.033 0.127844,0.0479 0.01986,0.015 0.07479,0.0324 0.122083,0.0385 0.0473,0.005 0.123052,0.0269 0.168346,0.0461 0.04529,0.0192 0.09774,0.0349 0.116535,0.0349 0.01881,0 0.05317,0.0161 0.07638,0.0357 0.02322,0.0197 0.06377,0.0416 0.09015,0.0487 0.06236,0.0167 0.175029,0.0763 0.314658,0.16657 0.13338,0.0861 0.20739,0.10646 0.385225,0.10588 0.189451,-4.6e-4 0.290641,-0.0252 0.367658,-0.0889 0.08447,-0.07 0.106395,-0.16825 0.05884,-0.2639 -0.0191,-0.0384 -0.03977,-0.10795 -0.0459,-0.15449 -0.0095,-0.0718 -0.02669,-0.0961 -0.113624,-0.16017 l -0.102458,-0.0755 0.06661,-0.0541 c 0.09756,-0.0792 0.243643,-0.0876 0.388351,-0.0224 0.05979,0.027 0.126937,0.0489 0.14924,0.0489 0.05437,0 0.403194,0.29498 0.459635,0.3887 0.0247,0.041 0.05955,0.0849 0.07748,0.0975 0.05006,0.0353 0.05885,0.12118 0.04087,0.40123 -0.01247,0.19415 -0.02525,0.26579 -0.05201,0.29148 -0.01951,0.0187 -0.04256,0.0637 -0.05121,0.0998 -0.01416,0.059 -0.03116,0.0963 -0.120209,0.26328 -0.01377,0.0259 -0.05467,0.085 -0.09087,0.13163 -0.03618,0.0466 -0.0757,0.10354 -0.08781,0.12675 -0.04159,0.0796 -0.301401,0.28016 -0.425041,0.3281 -0.0664,0.0257 -0.290334,0.0782 -0.49764,0.11654 -0.20731,0.0384 -0.415942,0.0867 -0.463629,0.10769 -0.08317,0.0365 -0.102171,0.0371 -0.466137,0.0165 -0.208688,-0.0118 -0.44436,-0.0342 -0.523715,-0.0499 -0.07936,-0.0156 -0.215793,-0.033 -0.3032,-0.0387 -0.136781,-0.009 -0.169613,-0.005 -0.235688,0.0299 -0.104456,0.0546 -0.399983,0.0574 -0.522171,0.004 -0.304411,-0.13098 -0.274776,-0.12475 -0.576992,-0.12129 -0.237095,0.003 -0.305774,0.0106 -0.431373,0.0491 -0.08216,0.0252 -0.16207,0.0545 -0.177577,0.0651 -0.04278,0.0292 -0.321945,0.1364 -0.355283,0.1364 -0.01611,0 -0.05398,0.0148 -0.08417,0.0327 -0.06587,0.0393 -0.162927,0.0866 -0.257706,0.12546 -0.07807,0.032 -0.274412,0.19108 -0.274412,0.22227 0,0.011 -0.04744,0.0634 -0.105434,0.1161 -0.05799,0.0527 -0.125412,0.11998 -0.14983,0.14942 -0.138307,0.1668 -0.458126,0.43654 -0.537613,0.45346 -0.04144,0.008 -0.07083,4.6e-4 -0.110784,-0.0313 -0.04734,-0.0376 -0.05775,-0.0396 -0.08035,-0.0151 -0.04034,0.0439 -0.201821,0.13163 -0.242103,0.13163 -0.02947,0 -0.141048,0.0666 -0.338781,0.20241 -0.04111,0.0282 -0.318764,0.13606 -0.350313,0.13606 -0.0172,0 -0.04829,0.016 -0.06912,0.0355 -0.02083,0.0195 -0.06814,0.0405 -0.105126,0.0469 -0.037,0.006 -0.09276,0.0284 -0.123942,0.0491 -0.03117,0.0207 -0.07586,0.0377 -0.0993,0.0377 -0.02344,0 -0.08452,0.0162 -0.135738,0.0358 -0.05122,0.0197 -0.143062,0.0419 -0.204104,0.0493 -0.06104,0.007 -0.129486,0.0272 -0.152096,0.044 -0.03424,0.0255 -0.104754,0.0309 -0.421744,0.0332 -0.209348,9.6e-4 -0.460541,-0.004 -0.558208,-0.0116 z m 19.755344,-0.10609 c -0.306419,-0.0468 -0.328895,-0.0555 -0.488934,-0.18974 -0.185662,-0.15574 -0.266236,-0.29196 -0.234841,-0.39699 0.01136,-0.0381 0.02716,-0.12497 0.03513,-0.19317 0.008,-0.0681 0.02995,-0.14859 0.04891,-0.17864 0.01896,-0.03 0.03962,-0.11115 0.04586,-0.18023 0.0099,-0.10843 0.0049,-0.13252 -0.03585,-0.17648 -0.02601,-0.0281 -0.04733,-0.0688 -0.04733,-0.0907 0,-0.0219 -0.02213,-0.0694 -0.04914,-0.10556 -0.157228,-0.21101 -0.157927,-0.21252 -0.141118,-0.30749 0.01738,-0.0982 0.08553,-0.18143 0.14865,-0.18143 0.02415,0 0.07086,-0.0116 0.103818,-0.0255 0.03296,-0.014 0.112106,-0.0306 0.175859,-0.0367 0.06705,-0.006 0.143594,-0.0284 0.181552,-0.0522 0.05366,-0.0337 0.105488,-0.0428 0.283626,-0.0506 0.169202,-0.007 0.230201,-0.0175 0.272527,-0.0455 0.07527,-0.0498 0.128352,-0.0333 0.267432,0.0831 0.339094,0.28388 0.501486,0.4793 0.54338,0.65388 0.0087,0.0363 0.03043,0.0855 0.04837,0.10937 0.04061,0.0543 0.08355,0.24556 0.08309,0.37017 -6.01e-4,0.13799 -0.0447,0.34035 -0.08495,0.38905 -0.01929,0.0233 -0.03508,0.0558 -0.03508,0.0722 0,0.0359 -0.240717,0.24395 -0.28233,0.24395 -0.01617,0 -0.09505,0.055 -0.175186,0.12223 -0.08013,0.0672 -0.158722,0.12223 -0.174625,0.12223 -0.0159,0 -0.07247,0.0167 -0.12568,0.0372 -0.112446,0.0433 -0.127331,0.0435 -0.363127,0.007 z m 0.06477,-0.39464 c 0.01935,-0.006 0.03514,-0.0214 0.03514,-0.0337 0,-0.0122 0.01951,-0.0546 0.04328,-0.0942 0.06296,-0.10461 0.115451,-0.32888 0.133347,-0.56963 0.01607,-0.21629 0.04574,-0.28894 0.101841,-0.24949 0.01563,0.011 0.0352,0.064 0.04345,0.11775 0.0083,0.0538 0.0347,0.16125 0.05867,0.23881 0.02399,0.0775 0.04361,0.18228 0.04361,0.2327 0,0.0713 0.01328,0.10578 0.0598,0.15514 0.0329,0.0349 0.0714,0.0635 0.08558,0.0635 0.02979,0 0.140702,-0.10634 0.140702,-0.13487 0,-0.0106 0.02246,-0.0459 0.04994,-0.0785 0.04192,-0.0498 0.0499,-0.0836 0.04962,-0.20975 -1.45e-4,-0.0932 -0.01444,-0.18262 -0.03727,-0.23505 -0.02034,-0.0466 -0.04837,-0.13117 -0.06226,-0.18806 -0.02918,-0.11912 -0.08157,-0.20955 -0.221965,-0.38307 -0.116714,-0.14425 -0.173674,-0.16482 -0.303408,-0.10954 -0.04679,0.0199 -0.149961,0.0422 -0.229322,0.0496 -0.165284,0.0153 -0.279089,0.0551 -0.320753,0.11205 -0.0159,0.0217 -0.03973,0.0903 -0.05296,0.15233 -0.02951,0.13828 -0.07808,0.91782 -0.06016,0.96569 0.0071,0.019 0.07019,0.0587 0.140172,0.0881 0.06997,0.0294 0.151044,0.0688 0.18016,0.0876 0.05795,0.0372 0.07064,0.0395 0.122823,0.0225 z m 3.336095,-2.65997 c -0.0218,-0.0112 -0.201614,-0.0283 -0.399545,-0.0378 -0.199932,-0.01 -0.399338,-0.0295 -0.448663,-0.0442 -0.04886,-0.0147 -0.123752,-0.0326 -0.166482,-0.0401 -0.04273,-0.007 -0.101511,-0.0291 -0.130626,-0.0485 -0.02913,-0.0193 -0.06703,-0.0352 -0.08426,-0.0352 -0.01721,0 -0.07822,-0.0212 -0.13556,-0.047 -0.05733,-0.0259 -0.120575,-0.047 -0.140545,-0.047 -0.02,0 -0.04842,-0.0124 -0.06322,-0.0275 -0.01481,-0.0151 -0.04848,-0.033 -0.07486,-0.0398 -0.02634,-0.006 -0.07974,-0.0325 -0.118598,-0.0572 -0.03886,-0.0247 -0.07865,-0.0449 -0.08842,-0.0449 -0.04557,0 -0.652321,-0.56771 -0.773766,-0.724 -0.09518,-0.12249 -0.145583,-0.23144 -0.16529,-0.35728 -0.01131,-0.0724 -0.03705,-0.19087 -0.05713,-0.26327 -0.02765,-0.0996 -0.03409,-0.19117 -0.02667,-0.3761 0.01989,-0.4936 -0.06561,-0.64872 -0.438464,-0.79535 -0.185614,-0.0729 -0.357871,-0.10259 -0.532729,-0.0916 -0.189341,0.0118 -0.328967,0.0623 -0.435373,0.15727 -0.07757,0.0692 -0.113227,0.12093 -0.263433,0.38189 -0.112003,0.19458 -0.228637,0.32093 -0.39344,0.42622 -0.05852,0.0374 -0.122386,0.0816 -0.141934,0.0982 -0.17863,0.15217 -0.383549,0.28321 -0.443799,0.28379 -0.01951,1.3e-4 -0.05258,0.0165 -0.0736,0.0361 -0.02099,0.0197 -0.07149,0.0411 -0.112192,0.0475 -0.04071,0.006 -0.08568,0.0237 -0.09997,0.0384 -0.01431,0.0147 -0.05773,0.0321 -0.09657,0.0389 -0.03885,0.006 -0.110564,0.0275 -0.159393,0.0459 -0.209767,0.0791 -0.423371,0.11329 -0.704285,0.11283 -0.149814,-1.2e-4 -0.312338,-0.009 -0.361172,-0.0195 -0.04886,-0.0106 -0.168699,-0.0307 -0.266361,-0.045 -0.202829,-0.0295 -0.342396,-0.0677 -0.532729,-0.14533 -0.321164,-0.13112 -0.666275,-0.39947 -0.845461,-0.65743 -0.01328,-0.0192 -0.04077,-0.0504 -0.06104,-0.0693 -0.02027,-0.019 -0.03715,-0.0423 -0.03754,-0.0518 -1.44e-4,-0.01 -0.0253,-0.0596 -0.05529,-0.11135 -0.03001,-0.0517 -0.05475,-0.10671 -0.05494,-0.12223 -1.44e-4,-0.0155 -0.01617,-0.0536 -0.03552,-0.0846 -0.04656,-0.0746 -0.116804,-0.2898 -0.144293,-0.44192 -0.03339,-0.18468 -0.0044,-0.66167 0.04815,-0.79457 0.02356,-0.0595 0.04284,-0.12089 0.04284,-0.1364 0,-0.0155 0.02,-0.0598 0.04437,-0.0983 0.02442,-0.0386 0.04437,-0.0821 0.04437,-0.0966 0,-0.0294 0.135633,-0.26675 0.195095,-0.3414 0.02088,-0.0261 0.05796,-0.076 0.08237,-0.11069 0.0494,-0.0702 0.350821,-0.32504 0.488332,-0.41302 0.04886,-0.0312 0.112848,-0.0741 0.142249,-0.0953 0.02941,-0.0212 0.07051,-0.0385 0.09134,-0.0385 0.02081,0 0.06171,-0.0158 0.09083,-0.0353 0.02913,-0.0193 0.09775,-0.0416 0.152529,-0.0494 0.05477,-0.007 0.139682,-0.0265 0.188675,-0.0415 0.04902,-0.015 0.225473,-0.0348 0.392183,-0.044 0.240154,-0.0132 0.32206,-0.0251 0.394414,-0.057 0.100428,-0.0443 0.227665,-0.0398 0.378851,0.0136 0.04263,0.015 0.122533,0.0356 0.177574,0.0457 0.05504,0.01 0.130042,0.0307 0.166667,0.0458 0.03661,0.0151 0.101554,0.0406 0.144282,0.0567 0.07876,0.0297 0.161345,0.0685 0.321858,0.15106 0.04886,0.0251 0.122597,0.0591 0.163924,0.0754 0.08222,0.0325 0.209429,0.10429 0.220255,0.12429 0.0038,0.006 0.06369,0.049 0.133177,0.0935 0.230605,0.14764 0.439772,0.33171 0.468172,0.41201 0.01444,0.0408 0.03476,0.0742 0.04519,0.0742 0.03005,0 0.156798,0.17787 0.156798,0.22007 0,0.0209 0.01853,0.0582 0.0412,0.083 0.02262,0.0247 0.04815,0.0787 0.0567,0.12006 0.0085,0.0414 0.0289,0.10907 0.0453,0.15044 0.01639,0.0413 0.03831,0.10907 0.04875,0.15044 l 0.01896,0.0753 0.321857,0.0222 c 0.197905,0.0136 0.381697,0.0377 0.477233,0.0627 0.205363,0.0536 0.63625,0.23655 0.747819,0.31747 0.07617,0.0553 0.0972,0.062 0.147727,0.0469 0.03454,-0.0106 0.0743,-0.0451 0.09605,-0.0842 0.04935,-0.0888 0.409573,-0.39719 0.60633,-0.51932 0.08464,-0.0526 0.332431,-0.15594 0.373697,-0.15594 0.01716,0 0.05544,-0.0162 0.08504,-0.0358 0.02963,-0.0197 0.103372,-0.0422 0.163928,-0.0499 0.06055,-0.007 0.145059,-0.0293 0.187789,-0.0482 0.100352,-0.0441 0.499207,-0.11064 0.663999,-0.11064 0.121359,0 0.282271,0.0512 0.427877,0.13632 0.02995,0.0175 0.05837,0.0131 0.141024,-0.0219 0.08241,-0.0349 0.124204,-0.0413 0.20503,-0.032 0.05583,0.006 0.117233,0.0235 0.136436,0.0378 0.01923,0.0144 0.06633,0.0317 0.104754,0.0385 0.03842,0.006 0.0874,0.029 0.10888,0.0491 0.02148,0.0201 0.04902,0.0366 0.06124,0.0366 0.01225,0 0.05495,0.0212 0.09497,0.047 0.04,0.0258 0.08591,0.047 0.101979,0.0471 0.01606,6e-5 0.09416,0.0382 0.173508,0.0845 0.07936,0.0464 0.156535,0.0844 0.171514,0.0845 0.01497,5e-5 0.04421,0.0234 0.0649,0.0518 0.02072,0.0284 0.07326,0.0982 0.116724,0.15515 0.08749,0.11447 0.132074,0.17924 0.20061,0.29147 0.0253,0.0413 0.07639,0.11667 0.113629,0.16732 0.03722,0.0507 0.07588,0.12925 0.08588,0.17462 0.01,0.0454 0.03252,0.0971 0.05001,0.11475 0.05267,0.0535 0.110302,0.24182 0.09504,0.31076 -0.0085,0.0384 6.02e-4,0.10003 0.02323,0.15875 0.04103,0.1062 0.03673,0.27073 -0.0099,0.38072 -0.0673,0.15876 -0.07028,0.1776 -0.03181,0.20156 0.04973,0.0309 0.06551,0.0193 0.12939,-0.095 0.03678,-0.0659 0.08283,-0.11318 0.139971,-0.14377 0.04683,-0.0252 0.101767,-0.0756 0.122058,-0.11228 0.04338,-0.0784 0.07571,-0.12223 0.143823,-0.19494 0.02749,-0.0293 0.04994,-0.0643 0.04994,-0.0777 0,-0.0135 0.01437,-0.0345 0.03186,-0.0469 0.01754,-0.0123 0.03853,-0.048 0.04667,-0.0794 0.0081,-0.0314 0.0323,-0.0719 0.05372,-0.0901 0.02142,-0.0182 0.04596,-0.0568 0.05459,-0.0859 0.0086,-0.0291 0.03504,-0.0738 0.0587,-0.0993 0.02366,-0.0254 0.04301,-0.0694 0.04301,-0.0977 0,-0.0283 0.02005,-0.0729 0.0446,-0.0994 0.02448,-0.0264 0.05105,-0.0762 0.05894,-0.11067 0.0079,-0.0344 0.03279,-0.0922 0.05531,-0.12817 0.02252,-0.036 0.04093,-0.0842 0.04093,-0.10713 0,-0.0229 0.02498,-0.0813 0.05549,-0.13002 0.03049,-0.0487 0.0555,-0.10014 0.0555,-0.11448 0,-0.0143 0.01547,-0.046 0.03432,-0.0705 0.06116,-0.0791 0.142058,-0.4725 0.164507,-0.79999 0.01176,-0.17094 0.03142,-0.37426 0.04383,-0.45184 0.01234,-0.0776 0.0253,-0.27177 0.02864,-0.43153 l 0.0067,-0.29051 -0.07522,-0.0185 c -0.150273,-0.0371 -0.312201,-0.21939 -0.312819,-0.35226 -1.45e-4,-0.0579 -0.01519,-0.10269 -0.04481,-0.1346 -0.02443,-0.0263 -0.04437,-0.0557 -0.04437,-0.0655 0,-0.01 0.02,-0.0328 0.04437,-0.0517 0.02443,-0.0187 0.04437,-0.0562 0.04437,-0.0833 0,-0.0356 0.03504,-0.0773 0.126611,-0.1503 l 0.12661,-0.10099 0.167493,0.002 c 0.237015,0.003 0.406186,0.0225 0.444968,0.0506 0.01825,0.0132 0.05324,0.0272 0.07771,0.0311 0.03221,0.004 0.04473,0.0224 0.04579,0.063 6.02e-4,0.0308 0.0086,0.10248 0.01835,0.15942 0.02198,0.13411 -1.44e-4,0.1797 -0.15175,0.31005 -0.09834,0.0847 -0.123283,0.11844 -0.123283,0.16695 0,0.0335 0.01,0.0692 0.02208,0.0795 0.01864,0.0158 0.02839,0.19341 0.026,0.47773 -1.43e-4,0.0362 -6.01e-4,0.18005 -6.01e-4,0.31968 -2e-5,0.17938 -0.01,0.2772 -0.03374,0.33337 -0.01854,0.0437 -0.04053,0.13257 -0.04894,0.19745 -0.0086,0.065 -0.02992,0.14254 -0.04789,0.17259 -0.01797,0.03 -0.0456,0.1316 -0.06127,0.22566 -0.04368,0.26103 -0.0993,0.48163 -0.145144,0.57531 -0.02275,0.0466 -0.04751,0.11154 -0.05496,0.14444 -0.0077,0.0328 -0.02686,0.0691 -0.04312,0.0806 -0.01629,0.0115 -0.03628,0.0512 -0.04453,0.0885 -0.0082,0.0372 -0.03427,0.0981 -0.05781,0.13538 -0.02356,0.0372 -0.04284,0.079 -0.04284,0.0926 0,0.0242 -0.09346,0.21069 -0.133944,0.26707 -0.0317,0.0441 -0.176815,0.29863 -0.176815,0.31004 0,0.0114 -0.08104,0.12976 -0.244655,0.35753 -0.168294,0.2343 -0.251376,0.379 -0.236475,0.41189 0.0088,0.0194 0.04045,0.03 0.08928,0.03 0.127325,0 0.1399,0.0371 0.05871,0.17314 -0.03885,0.0651 -0.08626,0.13321 -0.105381,0.15138 -0.01913,0.0182 -0.04564,0.0487 -0.05894,0.0678 -0.07925,0.11409 -0.165448,0.20808 -0.280484,0.30584 -0.134512,0.11431 -0.203817,0.14804 -0.304183,0.14804 -0.03202,0 -0.121632,0.0135 -0.199188,0.03 -0.128998,0.0274 -0.148523,0.0274 -0.229382,0 -0.126805,-0.0431 -0.214046,-0.0376 -0.29515,0.0179 -0.1623,0.11117 -0.29949,0.1873 -0.372718,0.2068 -0.02875,0.007 -0.08704,0.0297 -0.129594,0.0489 -0.04257,0.0193 -0.08749,0.035 -0.09989,0.035 -0.05137,-5e-5 -0.278537,0.10588 -0.28985,0.13521 -0.02158,0.0559 -0.318632,0.10918 -0.393862,0.0706 z m -1.903279,-0.74639 c -1.45e-4,-0.0181 -0.03612,-0.0625 -0.07942,-0.0988 -0.04329,-0.0362 -0.08828,-0.0806 -0.09996,-0.0988 -0.01169,-0.0181 -0.03466,-0.0328 -0.05105,-0.0328 -0.01639,0 -0.04503,-0.019 -0.0637,-0.0423 -0.02836,-0.0355 -0.03875,-0.0383 -0.06375,-0.017 -0.02502,0.0213 -0.02175,0.0299 0.02006,0.054 0.02749,0.0157 0.04994,0.0373 0.04994,0.0478 0,0.0274 0.22771,0.21981 0.260816,0.22032 0.01524,1.2e-4 0.02744,-0.0144 0.02705,-0.0325 z m 2.353591,-0.0298 c 0.23829,-0.10322 0.278855,-0.12634 0.402984,-0.23016 0.06903,-0.0577 0.175267,-0.13215 0.236065,-0.16533 0.127909,-0.0697 0.19811,-0.13765 0.265339,-0.25642 0.03912,-0.0691 0.05224,-0.14318 0.07149,-0.40429 0.03623,-0.49115 0.03317,-0.54179 -0.04192,-0.68489 -0.03569,-0.068 -0.07059,-0.14608 -0.07752,-0.17339 -0.01332,-0.0525 -0.360937,-0.38766 -0.40507,-0.39054 -0.01421,-9.2e-4 -0.04918,-0.0184 -0.0777,-0.0386 -0.144658,-0.10311 -0.193,-0.13092 -0.24754,-0.14252 -0.06446,-0.0137 -0.08009,-0.0595 -0.02629,-0.077 0.01831,-0.005 0.03328,-0.0189 0.03328,-0.0288 0,-0.0221 -0.121429,-0.11212 -0.185892,-0.13781 -0.02595,-0.0106 -0.07215,-0.0327 -0.10267,-0.0499 -0.03055,-0.0171 -0.09046,-0.037 -0.133185,-0.0441 -0.04274,-0.007 -0.09992,-0.025 -0.127074,-0.0395 -0.131686,-0.0707 -0.748366,-0.071 -0.911076,-4.6e-4 -0.03334,0.0145 -0.09556,0.0323 -0.138293,0.0396 -0.04273,0.007 -0.10266,0.0272 -0.133184,0.044 -0.06176,0.0339 -0.12726,0.0662 -0.269952,0.13312 -0.119051,0.0558 -0.340656,0.24509 -0.382428,0.3267 -0.0412,0.0805 -0.156324,0.18281 -0.2065,0.18356 -0.195576,0.003 -0.354763,0.4677 -0.289622,0.84562 0.0241,0.1398 0.03344,0.16055 0.07473,0.16554 0.06951,0.009 0.115024,-0.0417 0.129332,-0.14226 0.01765,-0.12402 0.04809,-0.27204 0.08913,-0.43292 0.06053,-0.23736 0.316847,-0.50102 0.622243,-0.64004 0.294528,-0.13408 0.299972,-0.13503 0.779746,-0.13503 0.334246,0 0.472205,0.007 0.563884,0.0293 0.06675,0.0162 0.166323,0.0394 0.22126,0.0518 0.05494,0.0123 0.124582,0.0372 0.154763,0.0553 0.03017,0.0181 0.06606,0.0328 0.07972,0.0328 0.05137,0 0.43234,0.30951 0.531238,0.43163 0.06536,0.0807 0.06668,0.0871 0.07454,0.36074 0.0058,0.20376 -0.0016,0.32421 -0.0288,0.44838 -0.04613,0.21271 -0.09363,0.3032 -0.214626,0.40896 -0.09176,0.0802 -0.304408,0.21198 -0.342121,0.21198 -0.01,0 -0.03459,0.0127 -0.05475,0.0281 -0.04361,0.0335 -0.255875,0.0984 -0.410848,0.12578 -0.141048,0.0249 -0.508716,0.009 -0.610416,-0.0277 -0.04273,-0.0151 -0.126741,-0.0335 -0.186686,-0.0408 -0.194132,-0.0237 -0.318942,-0.1472 -0.367334,-0.36335 -0.01208,-0.0539 -0.03722,-0.12304 -0.05582,-0.15356 -0.05251,-0.086 -0.04646,-0.37767 0.0097,-0.46733 0.02394,-0.0383 0.04864,-0.0907 0.0549,-0.11656 0.0134,-0.0554 0.08233,-0.11674 0.278117,-0.24728 l 0.143495,-0.0957 0.147173,0.009 c 0.158324,0.01 0.18463,0.0213 0.431522,0.19009 0.294012,0.20116 0.34018,0.31364 0.20934,0.51005 -0.08091,0.12145 -0.232785,0.20661 -0.342519,0.19205 -0.17622,-0.0234 -0.366253,-0.1378 -0.366253,-0.22051 0,-0.0306 0.07552,-0.12676 0.120122,-0.15298 0.03618,-0.0213 0.101842,0.0207 0.101927,0.0652 0,0.0468 0.07726,0.16388 0.107942,0.16388 0.01093,0 0.04606,-0.029 0.07802,-0.0645 0.04284,-0.0476 0.05812,-0.0869 0.05812,-0.14936 0,-0.27672 -0.420383,-0.41351 -0.610416,-0.19864 -0.03661,0.0414 -0.08749,0.0983 -0.113014,0.1264 -0.02552,0.0281 -0.05236,0.068 -0.05956,0.0887 -0.0071,0.0206 -0.0289,0.0739 -0.04815,0.11833 -0.03361,0.0775 -0.0329,0.0846 0.01792,0.17881 0.05011,0.0927 0.229792,0.25761 0.280839,0.25761 0.01296,0 0.05067,0.0163 0.08374,0.0359 0.141491,0.0847 0.570961,0.0847 0.681656,3e-5 0.169034,-0.12925 0.499438,-0.41529 0.499438,-0.43241 0,-0.0115 0.02,-0.0423 0.04437,-0.0687 0.03788,-0.0408 0.04437,-0.0763 0.04437,-0.24163 0,-0.10659 -0.0095,-0.19876 -0.02104,-0.20481 -0.03021,-0.0158 -0.156556,-0.17754 -0.156556,-0.20038 0,-0.0259 -0.155639,-0.14279 -0.247663,-0.186 -0.07976,-0.0375 -0.110564,-0.0503 -0.323911,-0.13504 -0.07631,-0.0303 -0.138736,-0.0659 -0.138736,-0.0792 0,-0.0454 -0.08268,-0.0875 -0.193669,-0.0987 -0.09431,-0.01 -0.12614,-0.004 -0.21203,0.039 -0.05559,0.0276 -0.113123,0.0625 -0.12786,0.0775 -0.03492,0.0356 -0.14148,0.0352 -0.176743,-9.3e-4 -0.04027,-0.0412 -0.05949,-0.0362 -0.18285,0.047 -0.06133,0.0414 -0.130408,0.0753 -0.153501,0.0753 -0.05886,0 -0.234962,0.14259 -0.288904,0.23395 -0.06298,0.10664 -0.129993,0.31807 -0.144421,0.4556 -0.01508,0.14405 0.0676,0.52044 0.128999,0.58702 0.02273,0.0247 0.04137,0.065 0.04137,0.0897 0,0.0438 0.192712,0.27304 0.270684,0.32199 0.02104,0.0132 0.04487,0.0536 0.05284,0.0898 0.0154,0.0695 0.06173,0.10205 0.146677,0.10301 0.06527,4.6e-4 0.187684,0.0643 0.319758,0.16619 l 0.103213,0.0796 0.513421,-0.005 c 0.51287,-0.005 0.513553,-0.005 0.635506,-0.0587 z m 1.429357,-0.0363 c 0.04722,-0.0634 -0.09395,-0.12221 -0.159682,-0.0666 -0.03596,0.0305 -0.03351,0.063 0.0072,0.0975 0.0388,0.0328 0.116634,0.017 0.152394,-0.0309 z m -8.122964,-1.17037 c 0.07075,-0.0466 0.138472,-0.0846 0.150507,-0.0846 0.01201,0 0.05328,-0.0211 0.09166,-0.0469 0.03842,-0.0257 0.09349,-0.0618 0.12244,-0.0799 0.02897,-0.0182 0.108858,-0.077 0.177578,-0.13066 l 0.124933,-0.0976 6.01e-4,-0.12807 c 6.02e-4,-0.12414 0.06994,-0.31499 0.15565,-0.42829 0.0159,-0.0211 0.0412,-0.0921 0.05621,-0.15774 0.03317,-0.1453 -0.0065,-0.51136 -0.06886,-0.63547 -0.02153,-0.0428 -0.04574,-0.10333 -0.05382,-0.13438 -0.0081,-0.031 -0.03405,-0.0713 -0.05777,-0.0895 -0.02372,-0.0182 -0.04312,-0.0431 -0.04312,-0.0552 0,-0.0201 -0.150787,-0.14058 -0.2888,-0.23077 -0.08131,-0.0531 -0.327673,-0.15502 -0.374872,-0.15502 -0.02246,0 -0.103372,-0.0169 -0.179804,-0.0375 -0.197472,-0.0535 -0.246672,-0.0498 -0.732502,0.0551 -0.218532,0.0471 -0.347656,0.10815 -0.500328,0.2364 -0.09235,0.0776 -0.232174,0.25063 -0.232174,0.28734 0,0.0115 -0.02076,0.0507 -0.04618,0.0871 -0.04169,0.0598 -0.04536,0.0896 -0.03781,0.30666 0.009,0.25966 -0.0058,0.21735 0.191346,0.54563 0.06208,0.10343 0.176438,0.19685 0.269974,0.22066 0.03055,0.007 0.120417,0.0403 0.199774,0.0723 0.123302,0.0498 0.17594,0.0592 0.362018,0.0659 0.190351,0.006 0.223851,0.003 0.266359,-0.028 0.06225,-0.0458 0.223154,-0.11901 0.262527,-0.11946 0.03656,-4.6e-4 0.186571,-0.086 0.263697,-0.15044 0.07979,-0.0666 0.168162,-0.18562 0.19865,-0.26737 0.01444,-0.0386 0.03546,-0.0751 0.04679,-0.0811 0.03831,-0.0201 0.02229,-0.13302 -0.02383,-0.16839 -0.03351,-0.0257 -0.04437,-0.0579 -0.04437,-0.13121 0,-0.0961 -0.0016,-0.0989 -0.170416,-0.24155 -0.09373,-0.0794 -0.182281,-0.14437 -0.196783,-0.14437 -0.01448,0 -0.05389,-0.0184 -0.08756,-0.0408 -0.03367,-0.0224 -0.111811,-0.0476 -0.173666,-0.0558 -0.150114,-0.0201 -0.404103,0.0116 -0.475694,0.0592 -0.03087,0.0205 -0.07171,0.0374 -0.09078,0.0374 -0.05915,0 -0.198805,0.0944 -0.213602,0.14431 -0.0078,0.0262 -0.03482,0.0713 -0.0602,0.10035 -0.0383,0.0439 -0.0446,0.0732 -0.03711,0.17273 0.02203,0.29338 0.300333,0.45389 0.601856,0.34717 0.06613,-0.0234 0.08266,-0.0393 0.08266,-0.0794 0,-0.0436 -0.0066,-0.0484 -0.04994,-0.0365 -0.02749,0.007 -0.08714,0.0179 -0.13261,0.023 -0.07008,0.007 -0.09289,4.6e-4 -0.149829,-0.0477 -0.05802,-0.0491 -0.06716,-0.0706 -0.06716,-0.15759 0,-0.14144 0.04023,-0.18423 0.173286,-0.18443 0.0573,-1e-4 0.172966,0.0147 0.257049,0.0328 0.119324,0.0258 0.163748,0.0455 0.202423,0.0895 0.06838,0.0779 0.131019,0.25827 0.111985,0.32252 -0.0171,0.0577 -0.16225,0.18253 -0.284636,0.24471 -0.09818,0.0499 -0.313304,0.0718 -0.533719,0.0543 -0.150977,-0.0119 -0.169502,-0.0185 -0.268177,-0.0942 -0.164725,-0.12631 -0.215918,-0.23807 -0.229741,-0.5015 -0.01694,-0.32311 -0.0044,-0.36843 0.134066,-0.48481 0.139614,-0.11732 0.252076,-0.18122 0.351513,-0.19971 0.04082,-0.007 0.09874,-0.0274 0.128725,-0.0441 0.03912,-0.0217 0.122522,-0.0322 0.295178,-0.0372 l 0.24065,-0.006 0.237879,0.0998 c 0.354171,0.14859 0.622843,0.34863 0.727075,0.54133 0.07167,0.13252 0.07612,0.35624 0.0102,0.51504 -0.02442,0.0589 -0.04437,0.11913 -0.04437,0.13394 0,0.0295 -0.103276,0.21069 -0.145863,0.25607 -0.01454,0.0155 -0.03399,0.0493 -0.04322,0.0753 -0.02006,0.0563 -0.212784,0.22242 -0.321452,0.27709 -0.05067,0.0254 -0.138939,0.0439 -0.253615,0.0527 -0.09676,0.007 -0.220205,0.0303 -0.274322,0.0506 -0.07136,0.0268 -0.123627,0.0337 -0.190324,0.0251 -0.127396,-0.0163 -0.166925,-0.0163 -0.273526,-9.2e-4 -0.07136,0.0106 -0.114976,0.004 -0.18868,-0.0247 -0.05274,-0.021 -0.11927,-0.0441 -0.147888,-0.0511 -0.04679,-0.0117 -0.13179,-0.0575 -0.313382,-0.16915 -0.03367,-0.0206 -0.09006,-0.0544 -0.125353,-0.075 -0.0353,-0.0205 -0.07721,-0.0522 -0.09318,-0.0706 -0.01596,-0.0183 -0.04793,-0.0333 -0.07103,-0.0333 -0.02311,0 -0.05175,-0.0147 -0.06367,-0.0326 -0.01191,-0.018 -0.02868,-0.0268 -0.03732,-0.0195 -0.02782,0.0236 0.09719,0.21806 0.191362,0.29784 0.05022,0.0425 0.122865,0.0896 0.161475,0.1046 0.03858,0.015 0.150102,0.0689 0.24777,0.11995 0.241705,0.12618 0.441411,0.2049 0.55168,0.21747 0.0506,0.005 0.156962,0.0224 0.236312,0.0371 0.170617,0.0315 0.242452,0.0396 0.379018,0.0435 0.08897,0.002 0.117512,-0.007 0.230191,-0.0819 z m 7.325278,-1.11758 c 0.01322,-0.0181 -0.06931,-0.13624 -0.135577,-0.19404 -0.06404,-0.0558 -0.118742,-0.0423 -0.118742,0.0293 0,0.0516 0.01623,0.0724 0.09434,0.12071 0.09974,0.0618 0.139101,0.0726 0.159982,0.044 z m -9.588839,-0.15082 c 0.0071,-0.01 0.01612,-0.16484 0.01989,-0.34446 0.0062,-0.29464 0.01131,-0.332 0.05279,-0.38173 0.05323,-0.0639 0.08037,-0.17498 0.05197,-0.21301 -0.03191,-0.0427 -0.08711,-0.009 -0.103042,0.063 -0.0081,0.0369 -0.03536,0.0891 -0.0604,0.11606 -0.04164,0.0449 -0.04574,0.0762 -0.04743,0.36184 -0.0012,0.172 0.0058,0.336 0.01519,0.36443 0.01727,0.0523 0.04717,0.0666 0.07106,0.0338 z m 3.509472,-0.76144 c 0.01552,-0.0525 -0.0016,-0.0857 -0.04498,-0.0857 -0.04202,0 -0.06051,0.0526 -0.03351,0.0954 0.0312,0.0493 0.06214,0.0456 0.0785,-0.01 z m -3.286193,-0.29423 c 0.0073,-0.0198 0.0281,-0.0359 0.04596,-0.0359 0.01787,0 0.03869,-0.0148 0.04623,-0.0328 0.0075,-0.0181 0.03323,-0.0514 0.05712,-0.0738 0.02388,-0.0224 0.03678,-0.05 0.02869,-0.0611 -0.02257,-0.0308 -0.05203,-0.0241 -0.06685,0.0154 -0.0073,0.0196 -0.0329,0.0399 -0.05687,0.0452 -0.02393,0.005 -0.05044,0.0252 -0.05884,0.0443 -0.0084,0.019 -0.03344,0.0458 -0.05561,0.0593 -0.04,0.0243 -0.05378,0.08 -0.02568,0.10375 0.01984,0.0168 0.06944,-0.0203 0.08592,-0.0642 z m 3.024822,-0.002 c 0.04771,-0.0404 0.02831,-0.0987 -0.06459,-0.19404 -0.05017,-0.0516 -0.09885,-0.0979 -0.10817,-0.10311 -0.0094,-0.004 -0.08402,-0.0602 -0.166016,-0.12223 -0.146421,-0.11083 -0.212179,-0.14785 -0.367085,-0.20673 -0.04274,-0.0163 -0.107659,-0.044 -0.144283,-0.0619 -0.05785,-0.0281 -0.133615,-0.0322 -0.577121,-0.0312 -0.382751,4.6e-4 -0.524165,0.007 -0.565003,0.0261 -0.02995,0.0138 -0.09987,0.0362 -0.155377,0.0498 -0.277663,0.0678 -0.489359,0.16469 -0.489359,0.22403 0,0.0545 0.126724,0.0531 0.201517,-0.002 0.07487,-0.0555 0.500102,-0.10492 0.987845,-0.11468 l 0.467953,-0.01 0.125543,0.0503 c 0.06905,0.0277 0.133153,0.0613 0.14246,0.0748 0.0092,0.0135 0.06776,0.0462 0.129904,0.0727 0.06215,0.0266 0.145943,0.0805 0.186231,0.11991 0.08867,0.0867 0.313272,0.24924 0.345613,0.2499 0.01284,2.3e-4 0.03531,-0.01 0.04994,-0.0221 z m 8.98361,-1.64051 c 0.07657,-0.0849 0.06892,-0.1623 -0.01864,-0.18823 -0.156667,-0.0464 -0.258979,0.11134 -0.133071,0.20517 0.03432,0.0256 0.0694,0.0469 0.0779,0.0471 0.0086,2.2e-4 0.04167,-0.0285 0.0738,-0.064 z m -29.509391,5.32758 c -0.103871,-0.0106 -0.180364,-0.0283 -0.207648,-0.0492 -0.03082,-0.0237 -0.09554,-0.036 -0.22589,-0.0434 -0.142427,-0.007 -0.19639,-0.0195 -0.244834,-0.0517 -0.03418,-0.0228 -0.08618,-0.0414 -0.115564,-0.0414 -0.05656,0 -0.328622,-0.10068 -0.349522,-0.12929 -0.0068,-0.01 -0.04743,-0.0224 -0.09034,-0.0292 -0.05146,-0.009 -0.12899,-0.051 -0.227765,-0.12598 -0.08237,-0.0625 -0.169717,-0.12033 -0.194133,-0.12858 -0.06357,-0.0214 -0.292929,-0.17079 -0.414534,-0.26993 -0.193482,-0.15774 -0.482915,-0.48176 -0.518436,-0.5804 -0.0086,-0.0239 -0.02765,-0.0562 -0.04232,-0.0717 -0.04563,-0.0483 -0.191965,-0.37558 -0.266064,-0.59511 -0.02844,-0.0842 -0.05857,-0.16259 -0.06697,-0.1741 -0.0084,-0.0116 -0.01995,-0.13707 -0.02572,-0.27904 -0.0057,-0.14197 -0.01865,-0.26506 -0.02866,-0.27355 -0.03068,-0.026 -0.131276,0.006 -0.168249,0.0543 -0.0282,0.0365 -0.05396,0.0452 -0.133042,0.0452 -0.05394,0 -0.104254,0.009 -0.111812,0.0188 -0.008,0.0109 -0.05085,0.0137 -0.101076,0.006 -0.04857,-0.006 -0.09969,-0.003 -0.115195,0.007 -0.03091,0.0212 -0.466657,-0.0907 -0.526864,-0.13533 -0.01855,-0.0137 -0.05866,-0.0315 -0.08914,-0.0393 -0.07846,-0.0204 -0.282745,-0.16552 -0.348634,-0.24777 -0.06478,-0.0809 -0.161924,-0.25532 -0.162123,-0.29115 -7.5e-5,-0.0136 -0.01689,-0.0501 -0.03737,-0.0811 -0.02752,-0.0417 -0.0396,-0.11775 -0.04634,-0.29166 -0.0085,-0.22013 -0.0062,-0.23753 0.03737,-0.27088 0.02557,-0.0196 0.04649,-0.0537 0.04649,-0.0759 0,-0.0221 0.01551,-0.0568 0.03447,-0.0771 0.01895,-0.0203 0.07139,-0.0846 0.116534,-0.14308 0.302212,-0.39156 0.365055,-0.42119 0.995909,-0.46978 l 0.270125,-0.0208 0.167104,0.0882 c 0.156153,0.0825 0.324805,0.21404 0.324805,0.25342 0,0.0245 0.110689,0.13301 0.135632,0.13301 0.01139,0 0.03287,-0.0233 0.04776,-0.0517 0.09489,-0.18134 0.485678,-0.54605 0.728003,-0.67944 0.122024,-0.0672 0.34993,-0.22654 0.473839,-0.33133 0.06859,-0.058 0.375853,-0.23479 0.408325,-0.23492 0.01588,-8e-5 0.06583,-0.0161 0.110985,-0.0355 0.159035,-0.0686 0.495986,-0.1439 0.858982,-0.19199 0.218168,-0.0289 0.972076,-0.0127 1.209738,0.026 0.103776,0.0169 0.2536,0.039 0.332954,0.0492 0.285925,0.0366 0.557692,0.0921 0.596515,0.12183 0.02177,0.0167 0.04994,0.0304 0.0626,0.0304 0.01266,0 0.04782,0.0166 0.07813,0.0367 0.03032,0.0203 0.119069,0.0648 0.197218,0.0993 0.185333,0.0815 0.283805,0.13761 0.48614,0.27667 0.220752,0.15175 0.241182,0.14898 0.325844,-0.0441 0.02847,-0.065 0.08871,-0.13299 0.203949,-0.23037 0.08995,-0.076 0.174851,-0.13818 0.188675,-0.13821 0.01382,-10e-6 0.08236,-0.0337 0.152275,-0.0747 0.06993,-0.0411 0.159825,-0.0877 0.199773,-0.10354 0.03995,-0.0158 0.122574,-0.0535 0.183616,-0.0839 0.06104,-0.0303 0.125968,-0.0613 0.144281,-0.0691 0.01832,-0.007 0.06168,-0.0316 0.09637,-0.0529 0.06109,-0.0376 0.08916,-0.0389 0.894047,-0.0389 h 0.830976 l 0.06706,-0.11259 c 0.03688,-0.062 0.0854,-0.12963 0.107816,-0.15045 0.02243,-0.0208 0.04829,-0.059 0.05747,-0.0848 0.0091,-0.0258 0.03532,-0.0672 0.05804,-0.0919 0.02274,-0.0247 0.04134,-0.0561 0.04134,-0.0697 0,-0.0236 0.131709,-0.17019 0.246663,-0.27444 0.02915,-0.0264 0.07797,-0.079 0.108488,-0.11671 0.03052,-0.0377 0.07547,-0.089 0.09989,-0.11379 0.02442,-0.0249 0.06937,-0.0764 0.09989,-0.11475 0.07058,-0.0886 0.193278,-0.19065 0.271913,-0.22625 0.03358,-0.0152 0.06104,-0.0347 0.06104,-0.0433 0,-0.009 0.05744,-0.0462 0.127634,-0.0839 0.0702,-0.0375 0.142616,-0.0772 0.160928,-0.088 0.05495,-0.0326 0.139632,-0.0721 0.22197,-0.10322 0.04273,-0.0162 0.118739,-0.046 0.168909,-0.0663 0.05018,-0.0203 0.105381,-0.0369 0.122694,-0.0369 0.01731,0 0.05508,-0.014 0.08394,-0.0312 0.02886,-0.0171 0.09774,-0.0384 0.153077,-0.047 0.05533,-0.009 0.116359,-0.0272 0.135602,-0.041 0.06386,-0.0457 0.342452,-0.10907 0.589913,-0.13413 0.134293,-0.0136 0.274134,-0.035 0.310758,-0.0475 0.09184,-0.0314 0.512363,-0.0459 0.621516,-0.0215 0.04884,0.011 0.14872,0.0331 0.221972,0.0491 0.223416,0.0489 0.506244,0.12773 0.587892,0.16376 0.04254,0.0187 0.0925,0.0341 0.110984,0.0342 0.01849,6e-5 0.06359,0.0169 0.100215,0.0374 0.03662,0.0205 0.08172,0.0374 0.100214,0.0374 0.07135,2.1e-4 0.303654,0.12059 0.521302,0.27001 0.139502,0.0958 0.536431,0.43361 0.580575,0.49413 0.02492,0.0341 0.02695,0.0341 0.07153,-0.002 0.04284,-0.0352 0.04427,-0.0464 0.0217,-0.16919 -0.01329,-0.0724 -0.03797,-0.14831 -0.05489,-0.16872 -0.01689,-0.0204 -0.03071,-0.064 -0.03071,-0.0967 0,-0.0458 0.01152,-0.0623 0.04994,-0.0713 0.02749,-0.006 0.08399,-0.0366 0.125615,-0.067 0.06289,-0.046 0.07101,-0.0601 0.04809,-0.0835 -0.05109,-0.0522 -0.116413,-0.17026 -0.146533,-0.26496 -0.0458,-0.144 -0.122107,-0.31648 -0.153901,-0.34788 -0.01569,-0.0155 -0.03508,-0.0591 -0.04306,-0.0968 -0.008,-0.0377 -0.02841,-0.0783 -0.04547,-0.0905 -0.01705,-0.0119 -0.03788,-0.0573 -0.04628,-0.10068 -0.01404,-0.0725 -0.05252,-0.15585 -0.167307,-0.36297 -0.02356,-0.0425 -0.0429,-0.0933 -0.04296,-0.11283 -8.1e-5,-0.0195 -0.02,-0.0609 -0.04427,-0.0919 -0.02426,-0.0309 -0.04415,-0.0756 -0.04427,-0.0991 -8.8e-5,-0.0234 -0.02514,-0.10322 -0.05563,-0.17722 -0.03052,-0.074 -0.05552,-0.15213 -0.05558,-0.1736 -4.4e-5,-0.0215 -0.01847,-0.0646 -0.04097,-0.0958 -0.02249,-0.0313 -0.04768,-0.0875 -0.05599,-0.12505 -0.0083,-0.0375 -0.02956,-0.0784 -0.04723,-0.0908 -0.01767,-0.0124 -0.03838,-0.0508 -0.04604,-0.0855 -0.0077,-0.0346 -0.03788,-0.0904 -0.06718,-0.12398 -0.065,-0.0746 -0.06603,-0.10004 -0.0078,-0.19217 0.04277,-0.0676 0.0435,-0.0773 0.01219,-0.15957 -0.01833,-0.0481 -0.03985,-0.11906 -0.04784,-0.15747 -0.008,-0.0385 -0.02818,-0.0794 -0.0449,-0.0912 -0.0167,-0.0118 -0.03691,-0.0523 -0.04488,-0.0899 -0.008,-0.0377 -0.02816,-0.082 -0.04486,-0.0982 -0.0167,-0.0163 -0.04487,-0.067 -0.06259,-0.11283 -0.06401,-0.16531 -0.114501,-0.27219 -0.150395,-0.31831 -0.02013,-0.0258 -0.04323,-0.07 -0.05136,-0.0979 -0.0081,-0.0281 -0.02852,-0.0606 -0.04531,-0.0725 -0.01677,-0.0118 -0.03713,-0.0524 -0.04519,-0.09 -0.0081,-0.0377 -0.02895,-0.0925 -0.04641,-0.12175 -0.01746,-0.0292 -0.0454,-0.1096 -0.06208,-0.17863 -0.03098,-0.12822 -0.09099,-0.29118 -0.125849,-0.3418 -0.01068,-0.0155 -0.03457,-0.0578 -0.05306,-0.0941 -0.0185,-0.0362 -0.05209,-0.0997 -0.07464,-0.14102 -0.02255,-0.0414 -0.04794,-0.10057 -0.05644,-0.13164 -0.0085,-0.0309 -0.02838,-0.0691 -0.04419,-0.0846 -0.01582,-0.0155 -0.03586,-0.0621 -0.04454,-0.10344 -0.0087,-0.0414 -0.02936,-0.088 -0.04594,-0.10375 -0.01658,-0.0156 -0.04034,-0.067 -0.05278,-0.114 -0.01244,-0.047 -0.03791,-0.11037 -0.05661,-0.14074 -0.0187,-0.0304 -0.03414,-0.0679 -0.03434,-0.0834 -1.44e-4,-0.0155 -0.02491,-0.0706 -0.05494,-0.12223 -0.03002,-0.0517 -0.05491,-0.1078 -0.05529,-0.12464 -4.34e-4,-0.0168 -0.01516,-0.0408 -0.03286,-0.0533 -0.01769,-0.0124 -0.04413,-0.0537 -0.05876,-0.0916 -0.01464,-0.0379 -0.04511,-0.0985 -0.06773,-0.13455 -0.02261,-0.036 -0.04113,-0.0815 -0.04113,-0.10121 0,-0.0617 -0.09241,-0.16554 -0.172563,-0.19391 -0.140039,-0.0496 -0.246861,-0.11748 -0.337377,-0.21449 -0.08531,-0.0915 -0.08937,-0.10184 -0.08937,-0.22896 0,-0.13312 4.5e-5,-0.13321 0.09907,-0.21358 0.114506,-0.0929 0.187517,-0.1099 0.418795,-0.0972 0.135673,0.007 0.174664,0.018 0.264347,0.0717 0.08204,0.049 0.108277,0.0777 0.119168,0.12997 0.0077,0.0368 0.02872,0.0943 0.04676,0.12745 0.03142,0.0578 0.0299,0.064 -0.03592,0.14668 -0.03779,0.0474 -0.06848,0.10068 -0.06818,0.11825 7.1e-4,0.0383 0.07411,0.22819 0.10768,0.27839 0.01312,0.0196 0.03888,0.0653 0.05725,0.10142 0.01838,0.0362 0.04248,0.0785 0.05358,0.0941 0.04791,0.067 0.136101,0.23795 0.136101,0.26382 0,0.0155 0.01998,0.0597 0.0444,0.0983 0.02441,0.0386 0.04439,0.0809 0.04439,0.0939 0,0.013 0.02497,0.0635 0.05549,0.11202 0.03052,0.0486 0.05549,0.10599 0.05549,0.12754 0,0.0216 0.01997,0.0724 0.0444,0.11294 0.02441,0.0405 0.04439,0.0881 0.04439,0.10577 0,0.0369 0.126095,0.25789 0.219855,0.38529 0.03512,0.0477 0.07101,0.11541 0.07977,0.15043 0.0088,0.0351 0.03374,0.0891 0.05553,0.1201 0.02178,0.031 0.04698,0.086 0.05599,0.12224 0.009,0.0362 0.03506,0.086 0.05789,0.11065 0.02284,0.0247 0.04149,0.0569 0.04149,0.0715 0,0.0148 0.0196,0.0579 0.04355,0.0962 0.0623,0.0995 0.156222,0.28039 0.156222,0.30091 0,0.01 0.01867,0.0376 0.04149,0.0623 0.02284,0.0247 0.04844,0.0718 0.05693,0.10471 0.0085,0.0328 0.02949,0.0696 0.0467,0.0818 0.0172,0.0121 0.03791,0.0528 0.04601,0.0906 0.0081,0.0377 0.03195,0.10671 0.05299,0.15325 0.02105,0.0466 0.04518,0.13028 0.05364,0.18606 0.0085,0.0558 0.03339,0.13197 0.05544,0.16925 0.02203,0.0373 0.04667,0.0911 0.05475,0.11958 0.0086,0.0302 0.04699,0.0693 0.09239,0.0941 0.04284,0.0233 0.08322,0.0634 0.09003,0.0893 0.01464,0.0558 0.116483,0.24197 0.154316,0.28207 0.01465,0.0155 0.03919,0.0621 0.05455,0.10343 0.01535,0.0414 0.03562,0.0837 0.04503,0.0941 0.0094,0.0106 0.02902,0.0569 0.04355,0.10344 0.01454,0.0466 0.04148,0.099 0.05993,0.11644 0.01842,0.0175 0.04049,0.0821 0.04902,0.14334 0.0085,0.0613 0.03099,0.13165 0.0499,0.15623 0.01891,0.0245 0.04169,0.0782 0.05071,0.11928 0.009,0.041 0.02925,0.096 0.04503,0.12223 0.01579,0.0261 0.04,0.0929 0.05382,0.14817 0.01382,0.0553 0.04,0.11851 0.05819,0.14052 0.0182,0.022 0.03339,0.0572 0.03377,0.0781 1.44e-4,0.021 0.02525,0.0804 0.05529,0.13215 0.03001,0.0517 0.05491,0.11094 0.05529,0.13163 1.45e-4,0.0207 0.02043,0.0745 0.0446,0.11959 0.02415,0.0451 0.04388,0.0967 0.04388,0.11473 0,0.018 0.02498,0.0726 0.0555,0.12117 0.03049,0.0487 0.05566,0.0985 0.05589,0.11093 6.01e-4,0.0373 0.09184,0.0975 0.23268,0.15338 0.07326,0.029 0.14817,0.059 0.166482,0.0665 0.02235,0.01 0.03416,0.0443 0.03596,0.10697 0.0028,0.1029 0.03285,0.16331 0.111691,0.22598 0.04317,0.0343 0.05213,0.0603 0.05213,0.15144 0,0.0934 0.01042,0.12198 0.06851,0.18894 0.03765,0.0434 0.07668,0.079 0.08668,0.079 0.03033,0 0.128523,0.15643 0.145064,0.23113 0.0085,0.0385 0.03438,0.10142 0.05742,0.13974 0.02307,0.0384 0.04186,0.0887 0.04186,0.11193 0,0.0233 0.01863,0.0829 0.04137,0.13236 0.02273,0.0495 0.04842,0.1229 0.05707,0.1631 0.0086,0.0402 0.03497,0.10354 0.05854,0.14074 0.02356,0.0372 0.04284,0.0891 0.04284,0.11526 0,0.0261 0.02,0.0792 0.04437,0.11775 0.02443,0.0386 0.04437,0.0941 0.04437,0.12318 0,0.0462 -0.01493,0.0583 -0.116532,0.0939 -0.06409,0.0224 -0.164852,0.0485 -0.223906,0.0577 -0.125636,0.0198 -0.170027,0.0475 -0.130139,0.0813 0.04465,0.0378 0.03066,0.0625 -0.06564,0.11596 -0.09891,0.0548 -0.282663,0.0969 -0.354095,0.0811 -0.02705,-0.005 -0.06025,0.005 -0.08721,0.0299 -0.03814,0.0347 -0.04355,0.067 -0.04355,0.26194 0,0.1656 -0.01143,0.25708 -0.04481,0.35844 -0.02464,0.0748 -0.06442,0.22766 -0.08836,0.33955 -0.02633,0.12303 -0.06103,0.22427 -0.0878,0.25611 -0.02438,0.0289 -0.05448,0.0728 -0.06696,0.0974 -0.01252,0.0247 -0.03202,0.0575 -0.04345,0.0729 -0.01143,0.0155 -0.05317,0.0875 -0.09275,0.15984 -0.04045,0.074 -0.105561,0.15634 -0.148621,0.18806 -0.04214,0.0309 -0.173792,0.13679 -0.292565,0.23505 -0.428898,0.35479 -0.443696,0.36536 -0.755047,0.53881 -0.06714,0.0374 -0.14725,0.0826 -0.178007,0.10046 -0.03075,0.0177 -0.0807,0.039 -0.110985,0.047 -0.03029,0.007 -0.07888,0.0304 -0.108,0.0496 -0.02911,0.0193 -0.06502,0.035 -0.0798,0.035 -0.01479,0 -0.04495,0.0169 -0.06704,0.0375 -0.0221,0.0207 -0.05111,0.0376 -0.06448,0.0376 -0.01337,4e-5 -0.09422,0.0302 -0.179685,0.067 -0.118777,0.0511 -0.173121,0.0646 -0.230689,0.0571 -0.0542,-0.006 -0.09082,4.6e-4 -0.130626,0.0271 -0.03042,0.0203 -0.07445,0.0369 -0.09782,0.0369 -0.02339,0 -0.06947,0.0116 -0.102447,0.0257 -0.106221,0.0455 -0.215819,0.0516 -0.944356,0.0517 -0.613717,1.2e-4 -0.730093,-0.004 -0.814763,-0.031 -0.05432,-0.0172 -0.153718,-0.0424 -0.220863,-0.056 -0.06714,-0.0136 -0.162037,-0.0376 -0.210871,-0.0534 -0.04884,-0.0157 -0.117534,-0.0337 -0.152668,-0.0402 -0.03513,-0.006 -0.120037,-0.0568 -0.188674,-0.11202 -0.126497,-0.10184 -0.217686,-0.15544 -0.357393,-0.21003 -0.04247,-0.0165 -0.21727,-0.15038 -0.388447,-0.29729 -0.527925,-0.45314 -0.518396,-0.44283 -0.696248,-0.75364 -0.168584,-0.2946 -0.22709,-0.38869 -0.273456,-0.43974 -0.0224,-0.0247 -0.04073,-0.0525 -0.04073,-0.0619 0,-0.01 -0.02235,-0.0426 -0.04966,-0.074 -0.04814,-0.0552 -0.04967,-0.0708 -0.04994,-0.50601 -2.02e-4,-0.32413 -0.0078,-0.45537 -0.02695,-0.4717 -0.01466,-0.0124 -0.0696,-0.0289 -0.122084,-0.0367 -0.05248,-0.007 -0.165343,-0.0275 -0.250801,-0.0439 -0.09555,-0.0183 -0.261279,-0.0299 -0.430411,-0.0301 -0.28149,-4.5e-4 -0.332541,0.01 -0.535161,0.1046 -0.03052,0.0144 -0.09045,0.0396 -0.133181,0.0561 -0.0865,0.0336 -0.256284,0.10535 -0.382591,0.16194 -0.11271,0.0505 -0.279223,0.19064 -0.316657,0.26654 -0.01687,0.0342 -0.04624,0.0731 -0.06527,0.0865 -0.05383,0.0378 -0.04814,0.28212 0.0081,0.34256 0.02341,0.0252 0.04964,0.0792 0.0583,0.12006 0.0087,0.0408 0.02887,0.087 0.04493,0.1027 0.01606,0.0156 0.03909,0.0658 0.05118,0.11136 0.0121,0.0456 0.03686,0.0899 0.05505,0.0986 0.01819,0.008 0.03995,0.0432 0.04836,0.0766 0.0084,0.0336 0.02831,0.0737 0.0442,0.0892 0.05928,0.0578 0.122345,0.25926 0.144113,0.46019 0.01236,0.11407 0.03368,0.23096 0.04737,0.25977 0.01557,0.0327 0.01899,0.0926 0.009,0.15984 -0.0087,0.0591 -0.02047,0.264 -0.02621,0.45534 l -0.01042,0.34789 -0.08526,0.15044 c -0.0469,0.0828 -0.09156,0.16631 -0.09927,0.1857 -0.0203,0.0511 -0.20937,0.30016 -0.313626,0.41312 -0.04922,0.0534 -0.105455,0.11811 -0.124976,0.14398 -0.100619,0.13326 -0.619872,0.58051 -0.874532,0.75325 -0.146474,0.0993 -0.361525,0.20558 -0.416905,0.20597 -0.01413,8e-5 -0.07564,0.0209 -0.136683,0.0465 -0.06104,0.0254 -0.125968,0.0466 -0.144281,0.047 -0.01832,4.6e-4 -0.06406,0.0166 -0.101671,0.0359 -0.0376,0.0195 -0.132498,0.0416 -0.210872,0.0492 -0.07837,0.007 -0.190312,0.0299 -0.248755,0.0492 -0.05845,0.0195 -0.136174,0.0354 -0.172739,0.0354 -0.03656,0 -0.103617,0.0136 -0.149007,0.0303 -0.07998,0.0294 -0.612898,0.0827 -0.792833,0.0793 -0.04884,-9.2e-4 -0.162791,-0.008 -0.253241,-0.0179 z m 0.464114,-0.57107 c 0.06714,-0.0139 0.172027,-0.0339 0.233069,-0.0443 0.133499,-0.0226 0.275627,-0.0543 0.410645,-0.0914 0.05494,-0.0151 0.148856,-0.0393 0.208707,-0.0538 0.05985,-0.0146 0.124778,-0.0381 0.144282,-0.0524 0.0195,-0.0143 0.06542,-0.032 0.102054,-0.0394 0.03663,-0.007 0.08158,-0.0245 0.09989,-0.0379 0.01832,-0.0135 0.05814,-0.0309 0.0885,-0.0388 0.06109,-0.0158 0.220859,-0.0981 0.255558,-0.13166 0.02347,-0.0226 0.04365,-0.0322 0.309038,-0.14734 0.181565,-0.0788 0.429773,-0.27906 0.486872,-0.39296 0.01681,-0.0336 0.07434,-0.0968 0.127854,-0.14081 0.158608,-0.13015 0.167559,-0.14004 0.256344,-0.28334 0.04682,-0.0755 0.09746,-0.15591 0.112541,-0.17858 0.01507,-0.0226 0.02756,-0.055 0.02775,-0.0718 1.73e-4,-0.0168 0.01504,-0.041 0.03304,-0.0537 0.01799,-0.0127 0.0384,-0.0539 0.04537,-0.0915 0.007,-0.0377 0.03151,-0.13632 0.05456,-0.21906 0.08733,-0.31357 0.117324,-0.47954 0.10283,-0.569 -0.008,-0.049 -0.02369,-0.15016 -0.03498,-0.2247 -0.01129,-0.0745 -0.04103,-0.1918 -0.06611,-0.26056 -0.02507,-0.0687 -0.04557,-0.13733 -0.04557,-0.15239 0,-0.0259 -0.09061,-0.20868 -0.133638,-0.26953 -0.01096,-0.0155 -0.05441,-0.079 -0.09654,-0.14103 -0.09452,-0.13923 -0.19715,-0.24014 -0.525971,-0.51714 -0.246574,-0.20771 -0.358288,-0.28186 -0.468872,-0.31123 -0.02821,-0.007 -0.07514,-0.0294 -0.104244,-0.0487 -0.02912,-0.0193 -0.07022,-0.035 -0.09135,-0.035 -0.02112,0 -0.06223,-0.0156 -0.09135,-0.0348 -0.02912,-0.0191 -0.07791,-0.0392 -0.108429,-0.0445 -0.03052,-0.005 -0.137474,-0.0282 -0.237674,-0.0508 -0.171022,-0.0386 -0.222004,-0.0407 -0.832388,-0.0354 -0.57668,0.005 -0.660247,0.01 -0.738995,0.0405 -0.215194,0.0843 -0.290651,0.1181 -0.343311,0.15394 -0.03093,0.0211 -0.136145,0.0574 -0.233811,0.0807 -0.28379,0.0678 -0.440868,0.14472 -0.653302,0.31985 -0.104606,0.0862 -0.207633,0.16479 -0.228957,0.17458 -0.02133,0.01 -0.05886,0.0492 -0.08341,0.0876 -0.04161,0.0652 -0.07829,0.0963 -0.327303,0.27808 -0.05189,0.0378 -0.09434,0.0837 -0.09434,0.10173 0,0.0181 -0.0186,0.0531 -0.04134,0.0777 -0.02274,0.0247 -0.0491,0.066 -0.0586,0.0918 -0.0095,0.0258 -0.03584,0.0764 -0.05855,0.11255 -0.02271,0.036 -0.04148,0.0784 -0.0417,0.0941 -2.32e-4,0.0156 -0.03602,0.0877 -0.07953,0.16013 -0.182295,0.3033 -0.205122,0.4047 -0.155052,0.68877 0.01938,0.10994 0.03523,0.23099 0.03523,0.269 0,0.0381 0.0216,0.10887 0.04803,0.15743 0.02641,0.0486 0.05482,0.14753 0.06312,0.21993 0.01695,0.14768 0.04938,0.2195 0.164641,0.36458 0.04365,0.055 0.07936,0.11497 0.07936,0.13337 0,0.0334 0.277527,0.33204 0.451754,0.4861 0.05063,0.0448 0.169318,0.12778 0.263729,0.18442 0.09441,0.0567 0.184739,0.11883 0.20073,0.13816 0.01599,0.0193 0.05861,0.046 0.09471,0.0592 0.03609,0.0132 0.08946,0.0393 0.118569,0.0578 0.02912,0.0185 0.06922,0.0337 0.08912,0.0337 0.01989,0 0.07099,0.0157 0.113542,0.0351 0.04254,0.0193 0.127508,0.0441 0.188799,0.0554 0.0613,0.0111 0.141201,0.0334 0.177577,0.0494 0.03638,0.0161 0.0961,0.0298 0.132728,0.0305 0.03662,4.6e-4 0.121528,0.0172 0.188674,0.0367 0.132027,0.0384 0.248926,0.036 0.466138,-0.01 z m -0.560722,-1.17555 c -0.04556,-0.0206 -0.09244,-0.0375 -0.104191,-0.0375 -0.05403,0 -0.26643,-0.15855 -0.295711,-0.22074 -0.0283,-0.0602 -0.02719,-0.0764 0.01085,-0.16128 0.03039,-0.0678 0.03809,-0.11606 0.02729,-0.17116 -0.03195,-0.16306 -0.101543,-0.21781 -0.276825,-0.21781 -0.122149,0 -0.139437,-0.0362 -0.119766,-0.25039 0.0192,-0.20917 0.07377,-0.35233 0.163148,-0.42806 0.06464,-0.0547 0.06887,-0.0556 0.133007,-0.0275 0.091,0.0399 0.128443,0.0366 0.209519,-0.0181 0.168284,-0.11358 0.172296,-0.12325 0.102139,-0.24604 -0.06803,-0.11904 -0.04404,-0.16881 0.109176,-0.22668 0.06866,-0.0259 0.176826,-0.0545 0.240355,-0.0634 0.06353,-0.009 0.13529,-0.0252 0.159468,-0.0362 0.06943,-0.0315 0.179357,-0.0234 0.26072,0.0192 0.07574,0.0397 0.09122,0.0679 0.102022,0.18636 0.0052,0.0573 0.01874,0.0709 0.105881,0.10702 0.114872,0.0475 0.27073,0.0562 0.308951,0.0172 0.08555,-0.0874 0.259742,-0.0283 0.395511,0.13406 0.07624,0.0912 0.161221,0.26635 0.161221,0.33237 0,0.058 -0.0236,0.0853 -0.189203,0.21811 -0.117013,0.0939 -0.13632,0.25113 -0.04386,0.35728 0.07495,0.086 0.07209,0.17807 -0.0098,0.31452 -0.08111,0.13522 -0.162574,0.20171 -0.284348,0.23207 -0.108609,0.027 -0.250233,0.002 -0.327407,-0.0583 -0.0716,-0.0557 -0.158004,-0.0764 -0.227518,-0.0545 -0.06966,0.0221 -0.104456,0.055 -0.232234,0.21952 -0.09002,0.11596 -0.0926,0.11753 -0.19342,0.11753 -0.05978,0 -0.136559,-0.0156 -0.185012,-0.0375 z m 0.584351,-0.86374 c 0.113767,-0.0698 0.198341,-0.1699 0.198341,-0.23471 0,-0.13843 -0.168381,-0.27477 -0.338028,-0.27371 -0.120956,4.6e-4 -0.195914,0.0545 -0.264629,0.18986 -0.07177,0.14134 -0.06757,0.22579 0.01494,0.29963 0.123357,0.11043 0.231702,0.11569 0.389376,0.0189 z m 9.32468,-0.25426 c 0.166665,-0.0145 0.331477,-0.0385 0.366251,-0.0536 0.03477,-0.015 0.118163,-0.0408 0.185308,-0.0573 0.109884,-0.027 0.269044,-0.0939 0.891281,-0.37427 0.105637,-0.0476 0.23528,-0.10965 0.288088,-0.1379 0.105105,-0.0562 0.33115,-0.24886 0.418816,-0.35696 0.03055,-0.0376 0.09175,-0.10142 0.136087,-0.14168 0.04585,-0.0417 0.09097,-0.10772 0.104647,-0.15322 0.01322,-0.044 0.04437,-0.11348 0.06924,-0.15446 0.02486,-0.041 0.04519,-0.0885 0.04519,-0.10577 0,-0.0172 0.01493,-0.0418 0.03311,-0.0545 0.0182,-0.0127 0.04411,-0.0584 0.05756,-0.10099 0.01345,-0.0427 0.03743,-0.0905 0.05333,-0.10588 0.0159,-0.0155 0.05017,-0.1595 0.07619,-0.31997 l 0.04733,-0.29176 -0.04602,-0.20656 c -0.0253,-0.11362 -0.06553,-0.23734 -0.08936,-0.27495 -0.02383,-0.0375 -0.04334,-0.0828 -0.04334,-0.10046 0,-0.0175 -0.02,-0.0537 -0.04437,-0.0799 -0.02443,-0.0263 -0.04437,-0.06 -0.04437,-0.0746 0,-0.0512 -0.144783,-0.2782 -0.299013,-0.46876 -0.126649,-0.15649 -0.522888,-0.51943 -0.644092,-0.58998 -0.04443,-0.0259 -0.13257,-0.0811 -0.195896,-0.12263 -0.167,-0.10968 -0.281429,-0.16923 -0.375637,-0.19549 -0.04562,-0.0128 -0.08795,-0.03 -0.09409,-0.0384 -0.0062,-0.008 -0.04873,-0.0213 -0.09464,-0.0284 -0.04591,-0.007 -0.101543,-0.0269 -0.123617,-0.0437 -0.03986,-0.0303 -0.162292,-0.0466 -0.75087,-0.0994 -0.198644,-0.0179 -0.311389,-0.0183 -0.488334,-0.002 -0.42145,0.0393 -0.584431,0.0628 -0.674,0.0966 -0.399498,0.15094 -0.446695,0.17889 -0.468506,0.27738 -0.01961,0.0885 -0.09032,0.12419 -0.215197,0.10833 -0.122594,-0.0156 -0.178525,0.007 -0.383555,0.15765 -0.242297,0.17754 -0.289935,0.22161 -0.416145,0.38503 -0.117292,0.15184 -0.354141,0.56209 -0.383716,0.66462 -0.0084,0.0291 -0.03375,0.0733 -0.0563,0.0979 -0.02255,0.0247 -0.04101,0.063 -0.04101,0.0853 0,0.0223 -0.0208,0.0905 -0.04622,0.15183 -0.03409,0.0822 -0.04282,0.13628 -0.03328,0.20621 0.0071,0.0521 0.01788,0.15824 0.02392,0.23581 0.02809,0.3611 0.06301,0.57519 0.103117,0.6322 0.0227,0.0322 0.04141,0.0745 0.04159,0.0941 1.73e-4,0.0195 0.01408,0.0564 0.0309,0.0824 0.01682,0.0259 0.06834,0.11048 0.114501,0.18805 0.04616,0.0775 0.108451,0.16219 0.138423,0.18805 0.02998,0.0258 0.08002,0.0753 0.111217,0.10973 0.06309,0.0697 0.262374,0.18439 0.514707,0.2961 0.117369,0.0519 0.219415,0.11881 0.345932,0.22665 0.127521,0.1087 0.201391,0.15699 0.255264,0.16686 0.04169,0.007 0.130751,0.0377 0.197898,0.0669 0.247527,0.10748 0.460043,0.16262 0.821289,0.21305 0.241525,0.0337 0.224507,0.0337 0.580488,0.003 z m -0.529682,-1.31632 c -0.04992,-0.0308 -0.09486,-0.13287 -0.09507,-0.21612 -1.72e-4,-0.0632 -0.10453,-0.15148 -0.179142,-0.15148 -0.03285,0 -0.09558,0.0128 -0.139414,0.0282 -0.04383,0.0155 -0.123754,0.0282 -0.177613,0.0282 -0.08849,0 -0.105253,-0.007 -0.173953,-0.0799 -0.08869,-0.0932 -0.195684,-0.24572 -0.195684,-0.2789 0,-0.0128 -0.0264,-0.0703 -0.05864,-0.12805 -0.03936,-0.0705 -0.05921,-0.13827 -0.06036,-0.20621 -0.0015,-0.0905 0.0052,-0.10588 0.06419,-0.14588 0.03626,-0.0246 0.117847,-0.0575 0.18132,-0.0732 0.06348,-0.0156 0.12095,-0.0361 0.127728,-0.0454 0.0192,-0.0263 -0.0594,-0.12892 -0.115246,-0.15048 -0.02761,-0.0106 -0.05021,-0.0323 -0.05021,-0.0479 0,-0.0157 -0.0153,-0.0286 -0.034,-0.0286 -0.0634,0 -0.05752,-0.0511 0.01611,-0.1401 0.04035,-0.0488 0.08836,-0.11125 0.106677,-0.13883 0.01832,-0.0276 0.09056,-0.0977 0.160546,-0.15591 0.107891,-0.0896 0.148416,-0.11021 0.266365,-0.13499 0.167443,-0.0352 0.250631,-0.0243 0.301111,0.0391 0.07436,0.0936 0.181311,0.17628 0.219794,0.16999 0.02835,-0.005 0.04484,-0.0364 0.06154,-0.11834 0.01851,-0.0909 0.03382,-0.11724 0.08126,-0.13975 0.05192,-0.0247 0.071,-0.0242 0.17098,0.003 0.110595,0.0303 0.357249,0.15878 0.473308,0.24662 0.03247,0.0246 0.07571,0.072 0.09612,0.10546 l 0.0371,0.0608 -0.07948,0.0616 c -0.0437,0.0339 -0.07947,0.0744 -0.07947,0.0901 0,0.0399 0.127563,0.0993 0.240268,0.11214 0.105849,0.012 0.159278,0.0414 0.159278,0.0872 0,0.017 0.01997,0.0624 0.04439,0.1011 0.03627,0.0573 0.04439,0.10609 0.04439,0.26639 0,0.17129 -0.0063,0.20464 -0.04994,0.26254 -0.05412,0.0719 -0.11145,0.0842 -0.181819,0.0391 -0.06187,-0.0397 -0.117912,-0.034 -0.147517,0.0147 -0.01413,0.0233 -0.05021,0.0646 -0.08015,0.0919 l -0.05447,0.0495 0.03703,0.12507 c 0.03438,0.11615 0.03441,0.12845 4.34e-4,0.17229 -0.02008,0.026 -0.06345,0.056 -0.09639,0.0668 -0.03292,0.0107 -0.09982,0.0356 -0.148655,0.0554 -0.04884,0.0197 -0.123749,0.0412 -0.166477,0.0477 -0.04272,0.006 -0.102054,0.0249 -0.131834,0.0406 -0.08127,0.043 -0.333153,0.0524 -0.394483,0.0147 z m 0.32744,-0.81089 c 0.105817,-0.0272 0.205912,-0.10174 0.230864,-0.17173 0.0281,-0.0789 -0.03237,-0.192 -0.134348,-0.25144 -0.08333,-0.0486 -0.113375,-0.055 -0.258099,-0.055 -0.17992,0 -0.206781,0.011 -0.279849,0.11505 -0.06456,0.0919 -0.06014,0.16198 0.01668,0.26459 0.04877,0.0652 0.08799,0.0932 0.16093,0.11504 0.05305,0.0158 0.111427,0.0245 0.129739,0.0191 0.01832,-0.005 0.07865,-0.0214 0.134079,-0.0356 z m -13.119502,1.59338 c 0.185038,-0.13288 0.287035,-0.24251 0.317722,-0.34148 0.02151,-0.0693 -0.07786,-0.22182 -0.238834,-0.36648 -0.12858,-0.11556 -0.141866,-0.12245 -0.236351,-0.12245 -0.222389,0 -0.521359,0.1271 -0.631929,0.26865 -0.0502,0.0642 -0.05627,0.0883 -0.04765,0.18926 0.01366,0.16004 0.06993,0.27644 0.181168,0.37479 0.0748,0.0661 0.1174,0.0873 0.203306,0.10099 0.178507,0.0285 0.311133,-0.002 0.45256,-0.10333 z m 34.449931,-1.95737 c -0.170849,-0.0214 -0.244166,-0.0752 -0.244166,-0.17932 0,-0.0299 0.01511,-0.053 0.03881,-0.0596 0.02141,-0.005 0.07035,-0.0225 0.108782,-0.037 0.03853,-0.0145 0.09033,-0.0262 0.115224,-0.0262 0.02495,0 0.05153,-0.008 0.05898,-0.0188 0.01777,-0.0245 0.113235,-0.0241 0.167703,4.4e-4 0.02352,0.0106 0.05821,0.0449 0.07723,0.0759 0.0324,0.053 0.03145,0.0611 -0.01616,0.13291 -0.0455,0.0687 -0.141893,0.13326 -0.18879,0.12661 -0.0098,-9.6e-4 -0.06271,-0.007 -0.117643,-0.0149 z m -3.166294,-0.051 c -0.177213,-0.0223 -0.162546,-0.13847 0.02557,-0.20266 0.07656,-0.0262 0.16347,-0.0381 0.281106,-0.0385 0.148867,-4.4e-4 0.177268,0.005 0.225878,0.0437 0.03055,0.0243 0.06611,0.0387 0.07897,0.032 0.01284,-0.006 0.04355,-0.003 0.06823,0.007 0.05843,0.0265 0.05877,0.10546 6.02e-4,0.13179 -0.04672,0.0213 -0.561354,0.0405 -0.680351,0.0255 z m 0.732715,-0.8546 c -0.07184,-0.0175 -0.49642,-0.35822 -0.49642,-0.3982 0,-0.0348 0.223407,-0.20187 0.26999,-0.20187 0.02361,0 0.06994,0.0118 0.102915,0.0263 0.07103,0.0311 0.204221,0.16619 0.204221,0.20711 0,0.0337 0.08431,0.17577 0.113281,0.19094 0.03181,0.0166 0.023,0.10888 -0.01465,0.15445 -0.03689,0.0447 -0.06893,0.0485 -0.179334,0.0214 z m 1.878659,-0.0171 c -0.05946,-0.0503 -0.05601,-0.10556 0.0099,-0.15717 0.02983,-0.0234 0.09972,-0.0949 0.155334,-0.15894 0.05563,-0.064 0.111153,-0.11745 0.123387,-0.11875 0.248612,-0.0263 0.31758,0.0293 0.243708,0.19663 -0.05888,0.13335 -0.132804,0.20062 -0.220412,0.20062 -0.03805,0 -0.08709,0.0165 -0.112041,0.0375 -0.02447,0.0206 -0.0694,0.0375 -0.0999,0.0375 -0.03059,0 -0.07552,-0.0169 -0.09987,-0.0375 z m -1.005574,-0.43746 c -0.02141,-0.0337 -0.0435,-0.11316 -0.04903,-0.17647 -0.0055,-0.0633 -0.02054,-0.13862 -0.03344,-0.16735 -0.03011,-0.067 -0.0061,-0.20339 0.04574,-0.25915 0.05678,-0.0611 0.207674,-0.10184 0.254799,-0.0687 0.06787,0.0477 0.0715,0.0851 0.03298,0.34401 -0.03709,0.2498 -0.04139,0.26222 -0.112547,0.3244 -0.04063,0.0356 -0.07972,0.0646 -0.0868,0.0646 -0.0067,0 -0.0303,-0.0276 -0.05181,-0.0613 z m -21.314533,-6.96136 c -0.06832,-0.0578 -0.06818,-0.082 9.56e-4,-0.16831 0.03052,-0.0382 0.05549,-0.0741 0.05549,-0.08 0,-0.005 0.03853,-0.0424 0.0856,-0.0811 0.04708,-0.0387 0.09243,-0.0934 0.100789,-0.12164 0.01619,-0.0546 0.106354,-0.14207 0.146568,-0.14207 0.01332,0 0.04825,0.0204 0.07764,0.0453 0.04403,0.0373 0.05124,0.058 0.04099,0.11753 -0.01826,0.10609 -0.0821,0.20993 -0.197995,0.32192 -0.08828,0.0853 -0.196956,0.15465 -0.242394,0.15465 -0.0072,0 -0.03773,-0.0207 -0.06769,-0.0461 z m 0.0058,-1.13678 c -0.06611,-0.0328 -0.126249,-0.0495 -0.159507,-0.0441 -0.04062,0.006 -0.09887,-0.0214 -0.243483,-0.11711 -0.161295,-0.10671 -0.190098,-0.13406 -0.190098,-0.1806 0,-0.0625 0.06824,-0.13009 0.131389,-0.13009 0.07796,0 0.314103,0.0586 0.423293,0.10514 0.07846,0.0334 0.135949,0.0793 0.21145,0.16896 0.115154,0.13672 0.1203,0.19227 0.02136,0.23045 -0.07379,0.0285 -0.07032,0.029 -0.194396,-0.0326 z m 3.002828,-0.35905 c -0.02441,-0.0207 -0.04439,-0.046 -0.04439,-0.0564 0,-0.0106 -0.01463,-0.0188 -0.03252,-0.0188 -0.03771,0 -0.07847,-0.0566 -0.07847,-0.1089 0,-0.038 0.271027,-0.2391 0.395633,-0.29368 0.08587,-0.0376 0.168492,-0.0383 0.211745,-9.6e-4 0.09012,0.0763 0.05763,0.15848 -0.133773,0.33837 -0.06604,0.0621 -0.134676,0.12764 -0.152547,0.14574 -0.04304,0.0436 -0.11094,0.0417 -0.165681,-0.004 z m -2.200195,-0.29728 c -0.06242,-0.0225 -0.263549,-0.25545 -0.263818,-0.30549 -8e-5,-0.0149 -0.02,-0.0525 -0.04425,-0.0837 -0.03766,-0.0482 -0.04413,-0.0886 -0.04424,-0.27627 -8.7e-5,-0.1209 0.0074,-0.2238 0.01667,-0.22864 0.0092,-0.005 0.05248,-0.0146 0.09609,-0.0215 0.06557,-0.0106 0.091,-0.004 0.147151,0.0357 0.03732,0.0266 0.08946,0.0844 0.115817,0.12842 0.02636,0.0441 0.07172,0.11337 0.100788,0.15411 0.02906,0.0407 0.0697,0.13469 0.09029,0.20877 0.04216,0.1517 0.02676,0.20392 -0.0693,0.23487 -0.0482,0.0155 -0.0513,0.022 -0.02656,0.0555 0.04894,0.0664 -0.02864,0.13041 -0.118635,0.0979 z m 1.20052,-0.26466 c -0.0631,-0.0535 -0.06383,-0.0564 -0.05222,-0.22096 0.02282,-0.32356 0.07518,-0.45968 0.195498,-0.50829 0.160319,-0.0647 0.256884,0.0536 0.224856,0.27572 -0.0082,0.0569 -0.02223,0.15844 -0.03118,0.22566 -0.03409,0.2562 -0.183909,0.35752 -0.336955,0.22787 z"
       id="path896"
       inkscape:connector-curvature="0" />
    <flowRoot
       xml:space="preserve"
       id="flowRoot4729"
       style="font-style:normal;font-variant:normal;font-weight:500;font-stretch:normal;font-size:37.33333206px;line-height:100%;font-family:Ubuntu;-inkscape-font-specification:'Ubuntu, Medium';font-variant-ligatures:normal;font-variant-caps:normal;font-variant-numeric:normal;font-feature-settings:normal;text-align:start;letter-spacing:0px;word-spacing:0px;writing-mode:lr-tb;text-anchor:start;fill:#ffffff;fill-opacity:1;stroke:none;stroke-width:1px;stroke-linecap:butt;stroke-linejoin:miter;stroke-opacity:1"
       transform="matrix(0.26458333,0,0,0.26458333,1.9358923,267.43468)"><flowRegion
         id="flowRegion4731"
         style="font-style:normal;font-variant:normal;font-weight:500;font-stretch:normal;font-size:37.33333206px;font-family:Ubuntu;-inkscape-font-specification:'Ubuntu, Medium';font-variant-ligatures:normal;font-variant-caps:normal;font-variant-numeric:normal;font-feature-settings:normal;text-align:start;writing-mode:lr-tb;text-anchor:start;fill:#ffffff"><rect
           id="rect4733"
           width="234.86047"
           height="133.8452"
           x="18.687822"
           y="24.733431"
           style="font-style:normal;font-variant:normal;font-weight:500;font-stretch:normal;font-size:37.33333206px;font-family:Ubuntu;-inkscape-font-specification:'Ubuntu, Medium';font-variant-ligatures:normal;font-variant-caps:normal;font-variant-numeric:normal;font-feature-settings:normal;text-align:start;writing-mode:lr-tb;text-anchor:start;fill:#ffffff" /></flowRegion><flowPara
         id="flowPara4737"
         style="font-style:normal;font-variant:normal;font-weight:500;font-stretch:normal;font-size:42.66666794px;font-family:Ubuntu;-inkscape-font-specification:'Ubuntu, Medium';font-variant-ligatures:normal;font-variant-caps:normal;font-variant-numeric:normal;font-feature-settings:normal;text-align:start;writing-mode:lr-tb;text-anchor:start;fill:#ffffff">Papas Inventeurs</flowPara></flowRoot>  </g>
</svg>
