<?xml version="1.0" encoding="UTF-8" standalone="no"?>
<!-- Created with Inkscape (http://www.inkscape.org/) -->

<svg
   xmlns:dc="http://purl.org/dc/elements/1.1/"
   xmlns:cc="http://creativecommons.org/ns#"
   xmlns:rdf="http://www.w3.org/1999/02/22-rdf-syntax-ns#"
   xmlns:svg="http://www.w3.org/2000/svg"
   xmlns="http://www.w3.org/2000/svg"
   xmlns:sodipodi="http://sodipodi.sourceforge.net/DTD/sodipodi-0.dtd"
   xmlns:inkscape="http://www.inkscape.org/namespaces/inkscape"
   width="210mm"
   height="297mm"
   viewBox="0 0 210 297"
   version="1.1"
   id="svg8"
   inkscape:version="0.92.3 (2405546, 2018-03-11)"
   sodipodi:docname="simple_silouette.svg">
  <defs
     id="defs2" />
  <sodipodi:namedview
     id="base"
     pagecolor="#ffffff"
     bordercolor="#666666"
     borderopacity="1.0"
     inkscape:pageopacity="0.0"
     inkscape:pageshadow="2"
     inkscape:zoom="0.061871843"
     inkscape:cx="-5392.7231"
     inkscape:cy="-1886.4449"
     inkscape:document-units="mm"
     inkscape:current-layer="layer1"
     showgrid="false"
     inkscape:window-width="1853"
     inkscape:window-height="1025"
     inkscape:window-x="67"
     inkscape:window-y="27"
     inkscape:window-maximized="1" />
  <metadata
     id="metadata5">
    <rdf:RDF>
      <cc:Work
         rdf:about="">
        <dc:format>image/svg+xml</dc:format>
        <dc:type
           rdf:resource="http://purl.org/dc/dcmitype/StillImage" />
        <dc:title></dc:title>
      </cc:Work>
    </rdf:RDF>
  </metadata>
  <g
     inkscape:label="Calque 1"
     inkscape:groupmode="layer"
     id="layer1">
    <path
       style="fill:#000000;stroke-width:1.73469388"
       d="m 4.1441347,1029.8402 c -22.6314397,-5.6169 -40.3922997,-20.372 -50.8278997,-42.22619 l -6.417,-13.43836 -0.8673,-527.34694 -0.8674,-527.346943 -13.2996,26.887755 c -34.143705,69.027771 -53.424805,143.238027 -69.859205,268.877548 -4.5167,34.53037 -6.7909,42.94899 -15.0995,55.89682 -24.0121,37.41957 -85.1428,47.97155 -116.7473,20.15216 -17.1562,-15.10148 -21.4464,-31.5517 -17.4171,-66.78408 27.2314,-238.111733 77.0502,-376.1038 170.819,-473.14776 23.739705,-24.56882 48.143605,-41.61307 85.889405,-59.98709 61.13334,-29.75864 116.13169,-41.6509 182.029625,-39.36017 58.80749,2.04425 106.48722,13.62861 158.29895,38.46059 26.86453,12.87546 47.68228,26.70504 68.43111,45.46 103.60071,93.64505 171.36047,260.7448 193.1888,476.41537 3.14784,31.1018 2.12252,40.90488 -5.82245,55.66782 -19.78019,36.75459 -83.62333,39.93123 -118.21392,5.88196 -15.96044,-15.71065 -19.80388,-26.54688 -26.034,-73.40051 C 405.55079,81.84724 386.973,9.84511 354.63876,-57.967213 c -5.91402,-12.40306 -13.21684,-26.45408 -16.2285,-31.22449 l -5.47571,-8.67347 -0.0618,39.89796 c -0.034,21.943878 -1.29738,128.107143 -2.80758,235.918373 -1.51019,107.81122 -3.27354,330.67602 -3.91854,495.2551 l -1.1727,299.23469 -3.98126,9.9687 c -5.75778,14.41688 -18.53143,27.61125 -34.25334,35.38135 -11.51753,5.6923 -14.63245,6.4372 -30.0187,7.178 -14.11259,0.6796 -19.29469,0.1807 -29.12014,-2.8037 -22.55433,-6.8507 -39.96748,-23.8679 -46.32201,-45.26879 -2.52674,-8.50961 -2.79765,-38.53591 -2.79765,-310.07653 V 366.16544 H 142.0523 105.62373 l -0.0257,296.19898 c -0.0224,258.18462 -0.36221,297.62681 -2.64802,307.32421 -10.180905,43.19167 -55.638025,70.86527 -98.8059353,60.15157 z M 116.89924,-391.03404 C 62.453395,-401.3222 20.497985,-440.9098 6.7637847,-494.95388 c -4.77126,-18.77495 -4.77126,-47.4558 0,-66.23074 9.5695603,-37.65619 33.9721903,-69.89572 66.9421703,-88.44059 69.995655,-39.371 158.698955,-11.47661 193.474565,60.84167 13.87228,28.84836 17.69421,64.02321 10.19508,93.82966 -18.06474,71.80098 -88.62883,117.49625 -160.47636,103.91984 z"
       id="path880"
       inkscape:connector-curvature="0" />
  </g>
</svg>
