<?xml version="1.0" encoding="UTF-8" standalone="no"?>
<!-- Created with Inkscape (http://www.inkscape.org/) -->

<svg
   xmlns:dc="http://purl.org/dc/elements/1.1/"
   xmlns:cc="http://creativecommons.org/ns#"
   xmlns:rdf="http://www.w3.org/1999/02/22-rdf-syntax-ns#"
   xmlns:svg="http://www.w3.org/2000/svg"
   xmlns="http://www.w3.org/2000/svg"
   xmlns:sodipodi="http://sodipodi.sourceforge.net/DTD/sodipodi-0.dtd"
   xmlns:inkscape="http://www.inkscape.org/namespaces/inkscape"
   width="210mm"
   height="297mm"
   viewBox="0 0 210 297"
   version="1.1"
   id="svg1347"
   inkscape:version="0.92.3 (2405546, 2018-03-11)"
   sodipodi:docname="Thinking_smiley.svg">
  <defs
     id="defs1341" />
  <sodipodi:namedview
     id="base"
     pagecolor="#ffffff"
     bordercolor="#666666"
     borderopacity="1.0"
     inkscape:pageopacity="0.0"
     inkscape:pageshadow="2"
     inkscape:zoom="0.35"
     inkscape:cx="-277.14286"
     inkscape:cy="560"
     inkscape:document-units="mm"
     inkscape:current-layer="layer1"
     showgrid="false"
     inkscape:window-width="1853"
     inkscape:window-height="1052"
     inkscape:window-x="67"
     inkscape:window-y="0"
     inkscape:window-maximized="1" />
  <metadata
     id="metadata1344">
    <rdf:RDF>
      <cc:Work
         rdf:about="">
        <dc:format>image/svg+xml</dc:format>
        <dc:type
           rdf:resource="http://purl.org/dc/dcmitype/StillImage" />
        <dc:title></dc:title>
      </cc:Work>
    </rdf:RDF>
  </metadata>
  <g
     inkscape:label="Calque 1"
     inkscape:groupmode="layer"
     id="layer1">
    <path
       inkscape:connector-curvature="0"
       id="path1907"
       d="m 75.585007,264.89436 c 0.55765,-0.1262 0.007,-0.23336 -1.85208,-0.36025 -6.75932,-0.46142 -13.91418,-3.03576 -20.26591,-7.29173 -8.70701,-5.83414 -14.16053,-14.28243 -17.19265,-26.63391 -0.91117,-3.71171 -1.85125,-8.92936 -2.64573,-14.68437 -0.77897,-5.64269 -0.62855,-11.89979 0.42296,-17.59479 1.171,-6.34217 0.99553,-11.55048 -0.53867,-15.98865 -0.33052,-0.95614 -1.37882,-3.54388 -2.32957,-5.75052 -4.89046,-11.35061 -5.3901,-16.65874 -2.095,-22.25673 l 1.04599,-1.77702 -0.37496,-4.36563 c -0.48655,-5.6648 -0.31472,-20.65549 0.30024,-26.19375 2.0985,-18.89884 7.41402,-35.33191 16.11836,-49.83039 12.38028,-20.621328 31.34036,-36.715797 54.770633,-46.49263 1.87176,-0.781035 3.46046,-1.56927 3.53044,-1.75163 0.07,-0.18236 -0.1038,-0.66322 -0.38617,-1.06856 -1.95546,-2.80709 -1.35836,-6.6313 1.31813,-8.44217 1.83055,-1.23852 3.93262,-1.55801 10.12607,-1.53905 4.68577,0.0143 5.67442,0.0971 8.63439,0.72292 1.83849,0.38869 4.75553,1.20489 6.48229,1.81376 l 3.13957,1.10705 3.96875,-0.43822 c 2.18282,-0.24102 5.74285,-0.57284 7.91119,-0.73738 5.22728,-0.39665 20.5099,-0.15994 25.36234,0.39284 17.27118,1.96751 31.30708,5.92921 45.6528,12.885758 8.59183,4.166359 15.85573,8.71199 23.07055,14.437176 4.58204,3.635995 13.59884,12.644171 17.25846,17.241956 13.97219,17.55408 22.2082,38.25887 24.67116,62.02178 0.22205,2.14229 0.41559,4.58307 0.43009,5.42395 0.0189,1.09719 0.0806,1.34211 0.21843,0.86743 0.10803,-0.37203 0.25307,1.33561 0.33148,3.9026 0.15797,5.17187 -0.052,14.03336 -0.30882,13.03073 -0.0966,-0.37725 -0.24797,0.67702 -0.35225,2.45367 -0.22996,3.9178 -1.28309,11.74008 -2.16316,16.06716 -4.67326,22.97732 -14.98241,42.53667 -30.82497,58.48367 -20.9492,21.08729 -50.3779,33.93721 -83.04064,36.25935 -5.65528,0.40206 -20.27555,0.17343 -25.43853,-0.39781 -5.01215,-0.55454 -12.36565,-1.78538 -17.33021,-2.90074 l -3.96875,-0.89163 -1.32292,0.52776 c -4.01477,1.60164 -19.283703,6.33432 -24.606253,7.62682 -3.51618,0.85385 -8.04151,1.58373 -10.98021,1.77095 -2.0293,0.12929 -2.52851,0.22361 -1.85208,0.34991 0.50932,0.0951 -0.56224,0.17448 -2.38125,0.17642 -1.81901,0.002 -2.9501,-0.0773 -2.51354,-0.1761 z m 8.78384,-8.63114 c 4.45089,-0.57974 8.16154,-1.45939 16.748453,-3.97039 9.56218,-2.79618 12.3838,-3.77213 16.05012,-5.55146 4.96284,-2.40857 7.39714,-5.25625 7.69809,-9.00537 0.18125,-2.25802 -0.25003,-3.33394 -2.08237,-5.19495 -0.85663,-0.87003 -1.5575,-1.75375 -1.5575,-1.96381 0,-0.21007 0.57604,-0.94382 1.28008,-1.63056 1.06397,-1.03782 1.36056,-1.54868 1.75672,-3.02588 0.98577,-3.67581 -0.10571,-7.49959 -2.77979,-9.73846 -0.72344,-0.6057 -1.31535,-1.20715 -1.31535,-1.33657 0,-0.12941 0.53843,-0.79724 1.19651,-1.48405 0.87107,-0.90909 1.34761,-1.71997 1.75202,-2.9812 0.6642,-2.07144 0.92474,-5.55362 0.526,-7.02992 -0.93059,-3.44538 -4.85727,-5.5595 -9.6873,-5.21565 -1.60304,0.11413 -1.80455,0.0802 -1.52476,-0.25696 0.35993,-0.43369 1.72459,-0.9819 8.71514,-3.50102 7.83817,-2.82457 18.38208,-7.45043 25.66178,-11.2584 6.55374,-3.42824 8.22022,-4.75896 9.57256,-7.64397 0.57086,-1.21785 0.69704,-1.87003 0.69722,-3.60363 1.8e-4,-1.84871 -0.0985,-2.29482 -0.77936,-3.52394 -0.97473,-1.75959 -2.16687,-2.81729 -4.301,-3.81597 -4.34105,-2.03142 -10.15372,-1.49617 -19.69969,1.814 -6.33975,2.19838 -10.99163,4.28672 -31.04683,13.93765 -7.356953,3.54031 -13.377563,6.09082 -18.251943,7.7321 -6.97597,2.34891 -10.49497,2.56101 -13.97276,0.84219 -3.87538,-1.91531 -5.69177,-4.71061 -7.599,-11.69436 -2.27068,-8.31458 -3.94899,-12.19538 -6.80784,-15.74195 -3.43062,-4.25588 -6.4219,-5.85122 -11.04762,-5.89203 -5.46423,-0.0482 -8.85586,2.42131 -8.86207,6.45266 -0.003,1.72042 1.23431,5.83757 3.05075,10.15423 3.22311,7.65953 3.5332,8.50653 4.12893,11.27808 0.89828,4.17913 0.86499,10.56597 -0.0846,16.23859 -1.24529,7.43886 -1.2177,10.12658 0.19394,18.89188 1.85646,11.52737 3.96764,18.03304 7.65,23.57375 5.14224,7.73733 14.23335,13.10354 24.35015,14.37318 2.06421,0.25906 7.5604,0.13833 10.37134,-0.22781 z m 84.481793,-5.81619 c 26.42073,-2.52349 50.41346,-12.37934 68.64918,-28.20004 3.38276,-2.93478 9.52402,-9.18151 12.11198,-12.32 10.32364,-12.51979 17.42622,-26.59794 21.33542,-42.28935 4.30395,-17.27595 4.83247,-36.99066 1.47179,-54.90105 -5.7977,-30.89824 -23.09353,-55.933321 -49.80937,-72.097257 -18.34523,-11.099447 -39.67,-17.102063 -63.15171,-17.776293 -5.80624,-0.16672 -13.02433,0.0725 -13.63838,0.45201 -0.26512,0.16385 0.39811,1.001741 2.55652,3.229806 2.96019,3.055712 3.91349,4.50971 4.2164,6.430977 0.53759,3.409693 -2.55435,6.798405 -6.23142,6.829523 -2.06596,0.01749 -3.18525,-0.448371 -5.5035,-2.290601 -5.5276,-4.39258 -11.92799,-7.758894 -18.21726,-9.581453 l -2.21701,-0.642467 -3.10455,0.896342 C 100.55231,33.027961 85.242707,41.283271 73.071467,52.046375 52.075237,70.61347 40.484707,94.61753 37.570597,125.56889 c -0.35994,3.82301 -0.44691,19.11677 -0.12017,21.13254 l 0.2089,1.28879 1.10346,-0.16702 c 6.0037,-0.90872 11.33019,-0.059 15.69933,2.50453 2.01143,1.18016 6.5205,5.68119 8.11534,8.10087 2.62445,3.9818 4.69424,9.00621 6.5363,15.86688 1.22062,4.54612 1.73056,5.75805 2.82842,6.72198 0.92589,0.81294 1.02532,0.83836 2.69894,0.68991 2.11368,-0.18747 5.75607,-1.31235 10.86576,-3.35566 5.74409,-2.297 7.30638,-3.00368 16.638613,-7.52625 21.04049,-10.1966 29.0655,-13.35966 37.97798,-14.969 10.32431,-1.86427 18.86396,1.13021 23.03393,8.07701 1.53913,2.56407 2.11149,4.80248 2.09725,8.20208 -0.0106,2.53835 -0.11423,3.20192 -0.81035,5.19053 -0.97067,2.77291 -2.75393,5.52458 -4.80743,7.41814 -2.82538,2.6053 -10.83086,6.9155 -22.80082,12.27609 -3.50199,1.56832 -5.40774,2.55874 -5.37819,2.79506 0.0252,0.20131 0.23147,1.19946 0.45843,2.2181 0.69182,3.10501 0.47686,6.40507 -0.66995,10.28512 l -0.53748,1.81845 0.77783,1.75342 c 0.42781,0.96439 0.94215,2.40827 1.14297,3.20864 0.54116,2.15678 0.41772,6.5659 -0.25414,9.07712 l -0.55265,2.06566 0.64945,1.93466 c 1.57658,4.69655 0.83124,10.0479 -2.01223,14.44731 -0.5868,0.90789 -0.96984,1.74358 -0.8512,1.85709 0.53651,0.5133 11.5523,1.95896 18.04113,2.36763 4.93994,0.31113 15.91556,0.10324 21.20062,-0.40154 z m 12.30312,-103.86021 c -0.43656,-0.13128 -1.92484,-1.14666 -3.30729,-2.25641 -10.81566,-8.68217 -23.96281,-14.08186 -39.29063,-16.13715 -2.37419,-0.31835 -5.24254,-0.46271 -9.26041,-0.46607 -6.34706,-0.005 -10.03955,0.37492 -15.44313,1.5902 -4.48344,1.00834 -5.52495,1.05645 -6.62525,0.30605 -1.37923,-0.94063 -1.9648,-1.89047 -1.96324,-3.18453 0.002,-1.75603 0.67469,-2.73068 2.87603,-4.16773 4.66324,-3.04419 10.62026,-5.6282 16.23769,-7.0435 16.90809,-4.25995 35.11156,-0.21597 48.67671,10.81376 4.37658,3.55856 9.24846,9.12803 11.92347,13.63074 1.40318,2.36188 1.54646,3.27389 0.75544,4.80836 -0.90099,1.74782 -2.82642,2.63342 -4.57939,2.10628 z m 6.87917,-41.65158 c -9.78674,-2.16359 -15.54872,-13.1417 -13.10743,-24.97315 1.40363,-6.80251 5.83337,-12.07046 11.71128,-13.92729 2.51292,-0.79383 6.22141,-0.89681 8.74513,-0.24285 6.19835,1.60615 11.01731,7.11161 12.4882,14.26723 0.81762,3.97757 0.48248,9.79991 -0.76625,13.31227 -1.54121,4.33497 -5.00088,8.42846 -8.61989,10.19906 -3.36529,1.64648 -7.01864,2.12354 -10.45104,1.36473 z M 113.94959,85.52837 c -2.88551,-0.87049 -4.89,-2.0939 -7.17409,-4.37858 -1.77813,-1.7786 -2.36071,-2.58766 -3.39084,-4.7091 -1.78304,-3.67195 -2.35913,-6.65768 -2.18593,-11.3291 0.15606,-4.20925 0.59663,-6.11469 2.17715,-9.416089 1.35192,-2.823898 3.95865,-5.805091 6.31325,-7.220162 4.86318,-2.922685 10.58914,-3.188658 15.43734,-0.717068 4.92763,2.512081 8.18096,7.03667 9.47175,13.172889 0.49895,2.37191 0.50005,7.84197 0.002,10.18241 -1.48174,6.96377 -5.59554,12.0883 -11.33132,14.11533 -2.32309,0.82099 -7.08356,0.97396 -9.31936,0.29947 z m 62.83855,-24.93858 c -2.7095,-0.34876 -5.73889,-1.0119 -7.36749,-1.61277 -5.42402,-2.001147 -5.70498,-8.920364 -0.47329,-11.655727 1.02692,-0.536919 1.40983,-0.567958 6.25328,-0.506855 7.29731,0.09206 12.33667,-0.626604 18.52083,-2.641266 3.15584,-1.0281 8.75535,-3.684501 11.56262,-5.485289 2.76939,-1.776489 4.3538,-2.146323 6.50613,-1.518661 2.8243,0.823619 4.69085,3.216582 4.67961,5.999343 -0.008,1.956996 -0.7265,3.407489 -2.56474,5.177012 -6.96971,6.709177 -16.66198,11.130663 -26.85392,12.250413 -2.93324,0.32226 -7.73379,0.31936 -10.26303,-0.006 z"
       style="fill:#0000ff;stroke-width:0.26458335" />
  </g>
</svg>
